<svg id="Layer_1" data-name="Layer 1" xmlns="http://www.w3.org/2000/svg" viewBox="0 0 100 100"><defs><style>.cls-1{fill:none;stroke:#4550e5;stroke-linecap:round;stroke-linejoin:round;}.cls-2{fill:#4550e5;}</style></defs><title>android-phone</title><path class="cls-1" d="M49.89,61.16h-13a3.45,3.45,0,0,1-3.45-3.45V41.61a1.15,1.15,0,0,1,1.15-1.15H50.51"/><line class="cls-1" x1="54.11" y1="40.46" x2="54.1" y2="40.46"/><path class="cls-1" d="M53.09,37.7H34.9a1.13,1.13,0,0,1-1.11-1.41,12.39,12.39,0,0,1,24.15,0,1.26,1.26,0,0,1,0,.61"/><path class="cls-1" d="M40.8,69.44H38.5a2.3,2.3,0,0,1-2.3-2.3v-6h6.9v6A2.3,2.3,0,0,1,40.8,69.44Z"/><path class="cls-1" d="M49.89,61.16H48.62v6a2.31,2.31,0,0,0,1.27,2.06"/><path class="cls-1" d="M63.33,36.9l2.87-5.34a2.76,2.76,0,0,1,4.86,2.61L69.59,36.9"/><path class="cls-1" d="M25.16,52.88a2.76,2.76,0,1,0,5.52,0V43.22a2.76,2.76,0,1,0-5.52,0Z"/><line class="cls-1" x1="50" y1="27.35" x2="54.49" y2="22.86"/><line class="cls-1" x1="41.72" y1="27.35" x2="37.24" y2="22.86"/><path class="cls-1" d="M41.72,32.18a1.38,1.38,0,1,1-1.38,1.38A1.38,1.38,0,0,1,41.72,32.18Z"/><path class="cls-1" d="M50,32.18a1.38,1.38,0,1,1-1.38,1.38A1.38,1.38,0,0,1,50,32.18Z"/><path class="cls-1" d="M74.84,73.74a3.4,3.4,0,0,1-3.4,3.4H56.16a3.4,3.4,0,0,1-3.4-3.4V43.17a3.4,3.4,0,0,1,3.4-3.4H71.44a3.4,3.4,0,0,1,3.4,3.4Z"/><rect class="cls-1" x="52.76" y="46.56" width="22.08" height="25.48"/><line class="cls-1" x1="59.03" y1="43.17" x2="63.28" y2="43.17"/><line class="cls-1" x1="66.68" y1="43.17" x2="67.53" y2="43.17"/><path class="cls-2" d="M63.8,73.74a.85.85,0,1,0,.85.85.85.85,0,0,0-.85-.85Z"/></svg>