<svg id="Layer_1" data-name="Layer 1" xmlns="http://www.w3.org/2000/svg" viewBox="0 0 100 100"><defs><style>.cls-1,.cls-2{fill:none;stroke:#4550e5;stroke-linejoin:round;}.cls-1{stroke-linecap:round;}</style></defs><title>customer-service-woman</title><path class="cls-1" d="M67.13,49.83A6,6,0,0,0,71.88,44L72,32.12a11.92,11.92,0,0,0-12.63-12,12.19,12.19,0,0,0-11.2,12.23l-.08,11.5a6,6,0,0,0,4.67,5.86"/><line class="cls-1" x1="56.36" y1="48.69" x2="56.36" y2="47.99"/><path class="cls-1" d="M70.16,34.65V32.7c0-.28,0-.55,0-.83a10.69,10.69,0,0,1-13.5-2.48,6.08,6.08,0,0,1-5.53,4.38,5.17,5.17,0,0,1-1.19-.16v.9"/><path class="cls-1" d="M71.92,37.48v-.6"/><path class="cls-1" d="M57.34,47.17A10.11,10.11,0,0,0,69.79,40"/><path class="cls-1" d="M50.2,39.86a10.16,10.16,0,0,0,3.92,5.78"/><path class="cls-1" d="M48.1,36.72v.6"/><path class="cls-1" d="M57,41.55a4.32,4.32,0,0,0,6,0"/><path class="cls-1" d="M65.38,36.24a1.62,1.62,0,0,0-3,0"/><path class="cls-1" d="M57.64,36a1.62,1.62,0,0,0-3,0"/><path class="cls-1" d="M45.7,39.09v1.79A5.36,5.36,0,0,0,51,46.28"/><path class="cls-1" d="M49.27,40.31l-2.39,0a1.18,1.18,0,0,1-1.18-1.2l0-3.57a1.2,1.2,0,0,1,1.2-1.19l2.39,0"/><path class="cls-1" d="M48.08,39.11a1.21,1.21,0,0,0,1.19,1.2,1.19,1.19,0,0,0,1.19-1.19l0-3.57a1.19,1.19,0,0,0-1.18-1.2,1.18,1.18,0,0,0-1.2,1.18Z"/><path class="cls-1" d="M70.71,40.45l2.39,0a1.19,1.19,0,0,0,1.19-1.19l0-3.57a1.19,1.19,0,0,0-1.18-1.2l-2.39,0"/><path class="cls-1" d="M71.91,39.27a1.19,1.19,0,1,1-2.38,0l0-3.58a1.2,1.2,0,0,1,2.39,0Z"/><path class="cls-1" d="M57.57,46.32a1.79,1.79,0,1,1-1.78-1.8A1.79,1.79,0,0,1,57.57,46.32Z"/><path class="cls-1" d="M45.71,37.3l0-5.36a14.3,14.3,0,0,1,28.59.19l0,5.36"/><path class="cls-1" d="M51,46.28l3,0"/><line class="cls-1" x1="63.52" y1="46.9" x2="63.51" y2="48.74"/><path class="cls-1" d="M44.45,61.8a15.53,15.53,0,0,1,9.36-12.47"/><path class="cls-1" d="M68.29,50.64a15.48,15.48,0,0,1,7,13.08l0,7.74c-.07,9.68-7,10.68-11.92,10.65l-2.25,0"/><path class="cls-1" d="M69.32,71.42c0,4.54-3.38,5.34-5.92,5.33l-2.46,0v1.79"/><line class="cls-1" x1="50.27" y1="69.88" x2="50.3" y2="64.14"/><line class="cls-1" x1="69.36" y1="64.27" x2="69.32" y2="71.42"/><line class="cls-1" x1="58.61" y1="81.47" x2="58.6" y2="81.47"/><path class="cls-1" d="M60.93,78.52V76.73H59.15a2.26,2.26,0,0,0-1.54.56"/><line class="cls-1" x1="59.89" y1="55.87" x2="59.78" y2="71.36"/><path class="cls-1" d="M54.31,54.17a1,1,0,0,0,1.6,0l1.79-2.47a1,1,0,0,0,0-1.18l-1.46-2a15.38,15.38,0,0,0-4.69,2Z"/><path class="cls-1" d="M65.48,54.25a1,1,0,0,1-.81.38,1,1,0,0,1-.79-.42l-1.76-2.5a1,1,0,0,1,0-1.18l1.48-1.94a15.45,15.45,0,0,1,4.68,2Z"/><path class="cls-2" d="M48.53,79.72l2.22,0L46.11,65a1,1,0,0,0-.94-.69h-1.5Z"/><path class="cls-2" d="M29.17,79.59l20.35.14v2.48l-18.37-.12a2,2,0,0,1-2-2Z"/><path class="cls-2" d="M49.52,79.73l9,.06a.49.49,0,0,1,.49.5,2,2,0,0,1-2,2l-7.49-.05Z"/><path class="cls-2" d="M37.51,71.4a1.09,1.09,0,0,1,.53-.92,1.15,1.15,0,0,0-.89-.49c-.38,0-.74.22-.93.22s-.49-.22-.81-.22a1.19,1.19,0,0,0-1,.6,2.53,2.53,0,0,0,.29,2.46c.2.3.45.64.77.63s.42-.2.8-.2.47.2.8.2.55-.3.75-.59a3.05,3.05,0,0,0,.35-.69A1.1,1.1,0,0,1,37.51,71.4Z"/><path class="cls-2" d="M29.17,79.59l19.36.13L43.67,64.3l-18-.12a1,1,0,0,0-.8.4,1,1,0,0,0-.15.89Z"/><line class="cls-1" x1="36.19" y1="68.73" x2="36.64" y2="68.28"/><line class="cls-1" x1="62.06" y1="51.59" x2="59.89" y2="55.87"/><line class="cls-1" x1="59.89" y1="55.87" x2="57.77" y2="51.56"/></svg>