<svg id="Layer_1" data-name="Layer 1" xmlns="http://www.w3.org/2000/svg" viewBox="0 0 100 100"><defs><style>.cls-1,.cls-2{fill:none;stroke:#4550e5;stroke-linejoin:round;}.cls-1{stroke-linecap:round;}</style></defs><title>customer-service-man</title><path class="cls-1" d="M70,33.44V31.49a10.13,10.13,0,1,0-20.25,0v1.95"/><path class="cls-1" d="M71.82,36.26v-.6"/><path class="cls-1" d="M57.3,46.05a10.16,10.16,0,0,0,12.4-7.26"/><path class="cls-1" d="M50.11,38.79a10.09,10.09,0,0,0,4,5.74"/><path class="cls-1" d="M48,35.66v.6"/><path class="cls-1" d="M56.93,40.43a4.31,4.31,0,0,0,6,0"/><path class="cls-1" d="M65.27,35.07a1.61,1.61,0,0,0-3,0"/><path class="cls-1" d="M57.52,34.87a1.61,1.61,0,0,0-3,0"/><path class="cls-1" d="M70,33.44V31.49a10.13,10.13,0,1,0-20.25,0v1.95"/><path class="cls-1" d="M50.27,34a1.7,1.7,0,0,1,1.29,1.66,10,10,0,0,0,.21-4.22c1,.35,2.77-1.14,2.77-1.14V27.92a23.76,23.76,0,0,0,5.36,1.19,23.75,23.75,0,0,0,5.37-1.19V30.3S67,31.79,68,31.44a10.11,10.11,0,0,0,.22,4.22A1.71,1.71,0,0,1,69.53,34"/><path class="cls-1" d="M48,38v1.79a5.36,5.36,0,0,0,5.36,5.36h.59"/><path class="cls-1" d="M46.8,33.28V32.09a13.11,13.11,0,1,1,26.21,0v1.19"/><path class="cls-1" d="M49.18,39.24H46.8A1.2,1.2,0,0,1,45.6,38V34.47a1.19,1.19,0,0,1,1.2-1.19h2.38"/><path class="cls-1" d="M48,38a1.19,1.19,0,1,0,2.38,0V34.47a1.19,1.19,0,0,0-2.38,0Z"/><path class="cls-1" d="M70.63,39.24H73A1.19,1.19,0,0,0,74.2,38V34.47A1.19,1.19,0,0,0,73,33.28H70.63"/><path class="cls-1" d="M71.82,38a1.2,1.2,0,1,1-2.39,0V34.47a1.2,1.2,0,0,1,2.39,0Z"/><path class="cls-1" d="M57.52,45.19a1.79,1.79,0,1,1-1.79-1.78A1.79,1.79,0,0,1,57.52,45.19Z"/><path class="cls-1" d="M61.24,80.82h2.24c4.89,0,11.84-1,11.84-10.72V62.35"/><path class="cls-1" d="M69.37,70.1c0,4.53-3.34,5.36-5.89,5.36H61v1.81"/><path class="cls-1" d="M63.59,47.34a15.26,15.26,0,0,1,11.73,15V70.1c0,9.68-6.95,10.72-11.84,10.72H61.24"/><path class="cls-1" d="M69.37,70.1c0,4.53-3.34,5.36-5.89,5.36H61v1.81"/><path class="cls-1" d="M44.44,60.65A15.49,15.49,0,0,1,56.26,47.28"/><path class="cls-1" d="M61.62,70.1l.93-1.85a1.81,1.81,0,0,0,.16-1.12L59.83,49.84,57,67.13a1.89,1.89,0,0,0,.17,1.12l.93,1.85"/><path class="cls-1" d="M63.59,47.34l-3.76,2.5,3.4,2.92a.93.93,0,0,0,1.36-.17l2.7-3.81"/><path class="cls-1" d="M56.08,47.34l3.75,2.5-3.4,2.92a.92.92,0,0,1-1.35-.17l-2.71-3.81"/><line class="cls-1" x1="50.3" y1="68.65" x2="50.3" y2="62.95"/><line class="cls-1" x1="69.36" y1="62.95" x2="69.36" y2="70.1"/><path class="cls-1" d="M61,77.27V75.46H59.24a2.38,2.38,0,0,0-1.55.58"/><path class="cls-2" d="M48.64,78.54h2.22l-4.74-14.7a1,1,0,0,0-.95-.69h-1.5Z"/><path class="cls-2" d="M29.27,78.54H49.63V81H31.26a2,2,0,0,1-2-2Z"/><path class="cls-2" d="M49.63,78.54h9a.49.49,0,0,1,.5.49,2,2,0,0,1-2,2h-7.5Z"/><path class="cls-2" d="M37.56,70.3a1.07,1.07,0,0,1,.53-.93,1.18,1.18,0,0,0-.9-.49c-.38,0-.74.23-.93.23s-.49-.22-.81-.22a1.2,1.2,0,0,0-1,.62A2.5,2.5,0,0,0,34.76,72c.2.3.44.63.76.62s.43-.2.8-.2.48.2.81.2.54-.31.74-.6a2.41,2.41,0,0,0,.34-.7A1.06,1.06,0,0,1,37.56,70.3Z"/><line class="cls-1" x1="36.72" y1="67.62" x2="37.17" y2="67.17"/><path class="cls-2" d="M29.27,78.54H48.64l-5-15.39h-18a1,1,0,0,0-.81.41,1,1,0,0,0-.14.88Z"/><line class="cls-1" x1="63.59" y1="47.34" x2="63.59" y2="45.72"/></svg>