<svg id="Layer_1" data-name="Layer 1" xmlns="http://www.w3.org/2000/svg" viewBox="0 0 100 100"><defs><style>.cls-1{fill:none;stroke:#4550e5;stroke-linecap:round;stroke-linejoin:round;}</style></defs><title>ecology-globe</title><path class="cls-1" d="M36.14,25a2.72,2.72,0,0,0-1,.19,4.54,4.54,0,0,0-9,0,2.63,2.63,0,0,0-1-.19,2.74,2.74,0,0,0,0,5.47H36.14a2.74,2.74,0,0,0,0-5.47Z"/><path class="cls-1" d="M75.76,31.56a2.63,2.63,0,0,0-1,.19,4.54,4.54,0,0,0-9,0,2.63,2.63,0,0,0-1-.19,2.73,2.73,0,1,0,0,5.46H75.76a2.73,2.73,0,0,0,0-5.46Z"/><path class="cls-1" d="M68.19,55.46H59L50,44.88,54.29,39a1.15,1.15,0,0,1,1.84,0Z"/><line class="cls-1" x1="44.73" y1="47.26" x2="43.72" y2="46.08"/><path class="cls-1" d="M45.4,44.1l1.09-1.28a1.13,1.13,0,0,1,.86-.4,1.15,1.15,0,0,1,.87.4L50,44.88l9,10.58H39.26V52.85"/><line class="cls-1" x1="35.74" y1="55.46" x2="37.32" y2="53.6"/><line class="cls-1" x1="39.26" y1="55.46" x2="35.74" y2="55.46"/><line class="cls-1" x1="39.26" y1="51.37" x2="39.26" y2="55.46"/><line class="cls-1" x1="26.97" y1="55.47" x2="26.97" y2="50"/><polygon class="cls-1" points="32.44 45.9 28.34 41.12 31.07 41.12 26.97 36.34 22.87 41.12 25.61 41.12 21.51 45.9 24.92 45.9 21.51 50 26.97 50 32.44 50 29.02 45.9 32.44 45.9"/><path class="cls-1" d="M63.87,69.93v0c-.26.32-.52.61-.79.92s-.55.58-.83.86a11.19,11.19,0,0,1-.87.83l-.92.78a18.88,18.88,0,0,1-1.94,1.42c-.42.28-.85.54-1.29.79a23.62,23.62,0,0,1-11.81,3.14A23.9,23.9,0,0,1,21.6,56.6a1.06,1.06,0,0,1,1-1.14H68.19a1.08,1.08,0,0,1,.77.34,1.06,1.06,0,0,1,.27.8A23.79,23.79,0,0,1,63.87,69.93Z"/><path class="cls-1" d="M44.73,59.33a3.83,3.83,0,0,1-1.13,2.73,7.83,7.83,0,0,0-2.28,5.52V69.5a2.36,2.36,0,0,1-4.62.71l-2.29-7.32a2.76,2.76,0,0,0-2.65-2,2.74,2.74,0,0,1,0-5.48h9.11A3.87,3.87,0,0,1,44.73,59.33Z"/><path class="cls-1" d="M63.86,70V65.5A3.89,3.89,0,0,0,60,61.61a3,3,0,0,0-2.94,3,2.94,2.94,0,0,1-2.49,2.9l-.73.11a7.54,7.54,0,0,0-6.33,6.56L47,78.62A23.82,23.82,0,0,0,63.86,70Z"/><polyline class="cls-1" points="44.73 51.37 33.8 51.37 37.22 47.26 33.8 47.26 37.9 42.49 35.17 42.49 39.26 37.71 43.37 42.49 40.64 42.49 43.72 46.08 44.73 47.26 42.71 47.26"/><line class="cls-1" x1="42" y1="48.09" x2="44.73" y2="51.37"/><polyline class="cls-1" points="42.71 47.26 41.32 47.26 42.01 48.09"/></svg>