<svg id="Layer_1" data-name="Layer 1" xmlns="http://www.w3.org/2000/svg" viewBox="0 0 100 100"><defs><style>.cls-1{fill:none;stroke:#4550e5;stroke-linecap:round;stroke-linejoin:round;}</style></defs><title>farm-barn</title><polyline class="cls-1" points="93.7 79.33 81.39 79.33 67.59 79.33"/><polyline class="cls-1" points="33.09 79.33 41.38 79.33 51.03 79.33 59.31 79.33"/><polyline class="cls-1" points="24.82 79.33 15.15 79.33 6.3 79.33"/><polyline class="cls-1" points="63.45 52.22 67.59 58.63 67.59 79.33 70.47 79.33 81.39 79.33 81.39 72.42 81.39 64.14 81.39 55.87 81.39 47.59 81.39 39.3 81.39 31.02 77.94 31.02 74.5 31.02 70.36 31.02 66.91 31.02 63.45 31.02 63.45 46.93"/><path class="cls-1" d="M81.4,31h-18V29.65a9,9,0,0,1,9-9h0a9,9,0,0,1,9,9V31Z"/><line class="cls-1" x1="77.95" y1="73.12" x2="77.95" y2="29.65"/><line class="cls-1" x1="74.49" y1="73.12" x2="74.49" y2="29.65"/><line class="cls-1" x1="70.36" y1="53.8" x2="70.36" y2="29.65"/><line class="cls-1" x1="66.9" y1="50.35" x2="66.9" y2="29.65"/><path class="cls-1" d="M58.88,55.75l-3-4.6L46.2,46l-9.72,5.14-2.95,4.6Z"/><path class="cls-1" d="M63.45,52.22l-3-4.64a3.43,3.43,0,0,0-1.16-1.08l-9.64-5.3-.26-.15-2.17-1.19a2.09,2.09,0,0,0-2,0L43,41.05l-.26.15-9.64,5.3A3.43,3.43,0,0,0,32,47.58l-7.15,11V79.33h2.76V62.53a1.16,1.16,0,0,1,1.15-1.15h35a1.16,1.16,0,0,1,1.15,1.15v16.8H67.6V58.62ZM63.05,58a1.15,1.15,0,0,1-1,.59H30.37a1.15,1.15,0,0,1-1-1.77l4.75-7.39a2.38,2.38,0,0,1,.84-.77l10.53-5.57a1.47,1.47,0,0,1,1.38,0l10.52,5.57a2.38,2.38,0,0,1,.84.77L63,56.85A1.16,1.16,0,0,1,63.05,58Z"/><path class="cls-1" d="M49.65,37.12V41.2l-.26-.15-2.17-1.19a2.09,2.09,0,0,0-2,0L43,41.05l-.26.15V37.12a.56.56,0,0,1,.57-.57h5.75A.56.56,0,0,1,49.65,37.12Z"/><rect class="cls-1" x="44.13" y="32.4" width="4.14" height="4.14"/><path class="cls-1" d="M42.76,32.4h6.89l-3-3.6a.55.55,0,0,0-.45-.21.55.55,0,0,0-.44.21Z"/><path class="cls-1" d="M63.05,58a1.15,1.15,0,0,1-1,.59H30.37a1.15,1.15,0,0,1-1-1.77l4.75-7.39a2.38,2.38,0,0,1,.84-.77l10.53-5.57a1.47,1.47,0,0,1,1.38,0l10.52,5.57a2.38,2.38,0,0,1,.84.77L63,56.85A1.16,1.16,0,0,1,63.05,58Z"/><path class="cls-1" d="M60.47,65.3v.45a1.15,1.15,0,0,1-1.16,1.15V79.33H33.1V66.9A1.14,1.14,0,0,1,32,65.75V65.3a1.14,1.14,0,0,1,1.15-1.15H59.31A1.15,1.15,0,0,1,60.47,65.3Z"/><path class="cls-1" d="M63.05,58a1.15,1.15,0,0,1-1,.59H30.37a1.15,1.15,0,0,1-1-1.77l4.75-7.39a2.38,2.38,0,0,1,.84-.77l10.53-5.57a1.47,1.47,0,0,1,1.38,0l10.52,5.57a2.38,2.38,0,0,1,.84.77L63,56.85A1.16,1.16,0,0,1,63.05,58Z"/><rect class="cls-1" x="41.38" y="66.9" width="9.66" height="12.42"/><rect class="cls-1" x="33.1" y="66.9" width="8.28" height="12.42"/><path class="cls-1" d="M49,51v7.59H43.45V51a1.15,1.15,0,0,1,1.15-1.15h3.21A1.16,1.16,0,0,1,49,51Z"/><path class="cls-1" d="M43.45,51v7.59H40.69V52.19A1.15,1.15,0,0,1,41.84,51Z"/><path class="cls-1" d="M51.72,52.19v6.43H49V51h1.6A1.15,1.15,0,0,1,51.72,52.19Z"/><rect class="cls-1" x="31.95" y="64.15" width="28.52" height="2.76" rx="1.15" ry="1.15"/><line class="cls-1" x1="24.81" y1="58.63" x2="21.69" y2="63.46"/><line class="cls-1" x1="67.6" y1="58.63" x2="70.72" y2="63.46"/><line class="cls-1" x1="33.1" y1="66.9" x2="41.38" y2="79.33"/><line class="cls-1" x1="41.38" y1="66.9" x2="33.1" y2="79.33"/><rect class="cls-1" x="51.04" y="66.9" width="8.28" height="12.42"/><line class="cls-1" x1="51.04" y1="66.9" x2="59.31" y2="79.33"/><line class="cls-1" x1="59.31" y1="66.9" x2="51.04" y2="79.33"/><line class="cls-1" x1="43.45" y1="53.1" x2="40.69" y2="56.56"/><line class="cls-1" x1="48.97" y1="53.1" x2="51.72" y2="56.56"/><line class="cls-1" x1="84.15" y1="29.65" x2="84.15" y2="77.26"/><rect class="cls-1" x="81.4" y="31.03" width="2.76" height="8.28"/><rect class="cls-1" x="81.4" y="47.58" width="2.76" height="8.28"/><rect class="cls-1" x="81.4" y="64.15" width="2.76" height="8.28"/><path class="cls-1" d="M17.91,66.22c0,3.64-1.3,6.79-2.76,6.79s-2.75-3.15-2.75-6.79S15.15,53,15.15,53,17.91,62.57,17.91,66.22Z"/><line class="cls-1" x1="15.15" y1="73.01" x2="15.15" y2="79.33"/><path class="cls-1" d="M64.84,62.53v16.8H59.31V66.9a1.15,1.15,0,0,0,1.16-1.15V65.3a1.15,1.15,0,0,0-1.16-1.15H33.1A1.14,1.14,0,0,0,32,65.3v.45A1.14,1.14,0,0,0,33.1,66.9V79.33H27.57V62.53a1.16,1.16,0,0,1,1.15-1.15h35A1.16,1.16,0,0,1,64.84,62.53Z"/><path class="cls-1" d="M60.47,65.3v.45a1.15,1.15,0,0,1-1.16,1.15V79.33H33.1V66.9A1.14,1.14,0,0,1,32,65.75V65.3a1.14,1.14,0,0,1,1.15-1.15H59.31A1.15,1.15,0,0,1,60.47,65.3Z"/></svg>