<svg id="Layer_1" data-name="Layer 1" xmlns="http://www.w3.org/2000/svg" viewBox="0 0 100 100"><defs><style>.cls-1{fill:none;stroke:#4550e5;stroke-linecap:round;stroke-linejoin:round;}.cls-2{fill:#4550e5;}</style></defs><title>graduate-female</title><polyline class="cls-1" points="48.76 67.94 61.79 67.94 79.04 67.94 84.79 67.94"/><path class="cls-1" d="M64.09,43.79V42.64A2.3,2.3,0,0,1,65,40.8l1.38-1"/><path class="cls-2" d="M66.39,39.61a.16.16,0,0,1,.15.16.15.15,0,0,1-.15.14.14.14,0,0,1-.15-.14.15.15,0,0,1,.15-.16m0-1a1.15,1.15,0,1,0,1.15,1.16,1.15,1.15,0,0,0-1.15-1.16Z"/><path class="cls-1" d="M76.74,43.79V42.64a2.3,2.3,0,0,0-.92-1.84l-1.38-1"/><path class="cls-2" d="M74.44,39.61a.16.16,0,0,1,.15.16.15.15,0,0,1-.15.14.14.14,0,0,1-.15-.14.15.15,0,0,1,.15-.16m0-1a1.15,1.15,0,1,0,1.15,1.16,1.15,1.15,0,0,0-1.15-1.16Z"/><path class="cls-1" d="M77.89,65.64h-15a1.14,1.14,0,0,0-1.15,1.15v1.15H79V66.79A1.15,1.15,0,0,0,77.89,65.64Z"/><path class="cls-1" d="M77.89,43.79h-15a1.14,1.14,0,0,0-1.15,1.15V53a1.14,1.14,0,0,0,1.15,1.15h15A1.15,1.15,0,0,0,79,53V44.94A1.15,1.15,0,0,0,77.89,43.79Z"/><rect class="cls-1" x="64.09" y="54.14" width="12.65" height="11.5"/><circle class="cls-1" cx="70.41" cy="48.97" r="3.45"/><rect class="cls-1" x="66.39" y="54.14" width="8.05" height="11.5"/><path class="cls-1" d="M69.19,47.75a1.71,1.71,0,0,1,2.44,0"/><path class="cls-1" d="M71.63,50.18a1.71,1.71,0,0,1-2.44,0"/><path class="cls-1" d="M30.45,26.86l2.21-1.1a1.39,1.39,0,0,1,1.06-.07l3.16,1a1.3,1.3,0,0,0,.87,0l3.17-1a1.34,1.34,0,0,1,1,.07l2.22,1.1"/><path class="cls-1" d="M30.46,26.46c-.16.37-.31.76-.45,1.15l-.28,0A2.26,2.26,0,0,0,27.66,30a2.66,2.66,0,0,0,.32,1.3,5.14,5.14,0,0,0-1,3.18c0,2,.9,3.59,2.12,4a2.51,2.51,0,0,0-.74,1.84,2.62,2.62,0,0,0,.79,1.91h0"/><path class="cls-1" d="M44.17,26.45c.16.37.31.76.45,1.16a2.36,2.36,0,0,1,.29,0A2.27,2.27,0,0,1,47,30a2.68,2.68,0,0,1-.34,1.3,5.08,5.08,0,0,1,1,3.18c0,2-.91,3.59-2.13,4a2.64,2.64,0,0,1-.06,3.75"/><path class="cls-1" d="M44.22,27.58v2.75a6.9,6.9,0,1,1-13.8,0V27.58c0-.25,0-.48,0-.71h0l2.21-1.1a1.39,1.39,0,0,1,1.06-.07l3.16,1a1.3,1.3,0,0,0,.87,0l3.17-1a1.34,1.34,0,0,1,1,.07l2.22,1.1h0C44.2,27.1,44.22,27.33,44.22,27.58Z"/><path class="cls-1" d="M35.59,33.16a3.13,3.13,0,0,0,3.45,0"/><path class="cls-1" d="M33.86,29.24a1,1,0,0,1,1.38,0"/><path class="cls-1" d="M39.38,29.24a1,1,0,0,1,1.38,0"/><path class="cls-1" d="M30.45,26.86l2.21-1.1a1.39,1.39,0,0,1,1.06-.07l3.16,1a1.3,1.3,0,0,0,.87,0l3.17-1a1.34,1.34,0,0,1,1,.07l2.22,1.1"/><path class="cls-1" d="M30.46,26.46l.39-4A2.76,2.76,0,0,1,33.6,20H41a2.75,2.75,0,0,1,2.75,2.48l.4,4"/><polyline class="cls-1" points="30.46 26.46 30.42 26.89 30.45 26.87 30.45 26.86"/><polyline class="cls-1" points="44.17 26.45 44.22 26.89 44.18 26.87 44.18 26.86"/><line class="cls-1" x1="49.05" y1="19.99" x2="41.02" y2="19.99"/><line class="cls-1" x1="33.6" y1="19.99" x2="25.59" y2="19.99"/><path class="cls-1" d="M38.7,19.29V20H35.94v-.7a1.38,1.38,0,0,1,2.76,0Z"/><path class="cls-1" d="M41.93,73.8,41.61,79a3.29,3.29,0,0,0-1.53-.37,2.76,2.76,0,0,0-2.76,2.76V73.8Z"/><path class="cls-1" d="M41.93,73.8,41.61,79a3.29,3.29,0,0,0-1.53-.37,2.76,2.76,0,0,0-2.76,2.76V73.8Z"/><path class="cls-1" d="M37.32,73.8v7.59a2.77,2.77,0,0,0-2.76-2.76A3.26,3.26,0,0,0,33,79l-.33-5.2Z"/><path class="cls-1" d="M37.32,73.8v7.59a2.77,2.77,0,0,0-2.76-2.76A3.26,3.26,0,0,0,33,79l-.33-5.2Z"/><line class="cls-1" x1="37.32" y1="81.4" x2="37.32" y2="73.81"/><path class="cls-1" d="M37.32,81.39a.69.69,0,0,1-.69.69H32.55a1.15,1.15,0,0,1-1-1.72A3.36,3.36,0,0,1,33,79a3.26,3.26,0,0,1,1.53-.37A2.77,2.77,0,0,1,37.32,81.39Z"/><path class="cls-1" d="M43.05,81.51a1.09,1.09,0,0,1-1,.57H38a.69.69,0,0,1-.69-.69,2.76,2.76,0,0,1,2.76-2.76,3.29,3.29,0,0,1,1.53.37,3.48,3.48,0,0,1,1.46,1.36A1.18,1.18,0,0,1,43.05,81.51Z"/><polyline class="cls-1" points="47.67 59.21 47.67 62.08 43.53 62.08"/><path class="cls-1" d="M42.79,40.88a9.88,9.88,0,0,0-2.07-1h0a10.4,10.4,0,0,0-6.79,0h0a6.62,6.62,0,0,0-.62.24c-.31.13-.61.28-.91.44l-.43.25-.12.07h0"/><line class="cls-1" x1="31.11" y1="49.65" x2="31.11" y2="47.58"/><line class="cls-1" x1="43.53" y1="49.65" x2="43.53" y2="47.58"/><line class="cls-1" x1="37.32" y1="45.51" x2="37.32" y2="42.06"/><path class="cls-1" d="M37.3,42.06,35,43.58,32,41v0h0l-.1-.09.12-.07.43-.25a9.54,9.54,0,0,1,.91-.44,6.62,6.62,0,0,1,.62-.24h0Z"/><path class="cls-1" d="M42.79,40.88l-.13.1v0l-3.06,2.58-2.27-1.52,3.39-2.18h0A9.88,9.88,0,0,1,42.79,40.88Z"/><path class="cls-1" d="M47.67,62.08v2.06a2.07,2.07,0,1,1-4.14,0V62.08Z"/><path class="cls-1" d="M18.27,55l0,0,0,0Z"/><path class="cls-1" d="M22.92,53.92l-1.75,3.93a14.09,14.09,0,0,1-1.39-1.24l.3-1.57a2.56,2.56,0,0,0,1.71-1.62,2.2,2.2,0,0,0,.1-.56C22.29,53.28,22.62,53.63,22.92,53.92Z"/><path class="cls-1" d="M22.92,53.92l-1.75,3.93a14.09,14.09,0,0,1-1.39-1.24l.3-1.57a2.56,2.56,0,0,0,1.71-1.62,2.2,2.2,0,0,0,.1-.56C22.29,53.28,22.62,53.63,22.92,53.92Z"/><path class="cls-1" d="M31.07,53.45h0v-.54A4.9,4.9,0,0,1,31.07,53.45ZM29.3,42.06a.9.9,0,0,0-.15.19,1.46,1.46,0,0,1,.16-.19Zm-.61.72c.15-.19.3-.36.46-.53h0A5.72,5.72,0,0,0,28.69,42.78Z"/><path class="cls-1" d="M37.32,49.65V73.8H32.26a1.14,1.14,0,0,1-1.15-1.15v-23Z"/><path class="cls-1" d="M31.11,52.91a4.9,4.9,0,0,1,0,.54h0v2.42a6.92,6.92,0,0,1-6.21,3.94,6.46,6.46,0,0,1-4-1.32l.29-.64,1.75-3.93.3-.67c.7.72,1.1,1,1.68,1a1.33,1.33,0,0,0,1.38-1.34V49.65h4.83Z"/><path class="cls-1" d="M48.36,49.65v8.52a1.13,1.13,0,0,1-.69,1,1,1,0,0,1-.46.1H43.53V49.65Z"/><path class="cls-1" d="M43.53,49.65v23a1.15,1.15,0,0,1-1.15,1.15H37.32V49.65Z"/><line class="cls-1" x1="31.11" y1="49.65" x2="31.11" y2="47.58"/><line class="cls-1" x1="43.53" y1="49.65" x2="43.53" y2="47.58"/><path class="cls-1" d="M48.36,49.65H26.28c0-.23,0-.46,0-.68a10,10,0,0,1,.3-2c.06-.22.11-.43.18-.64s.13-.41.21-.62l.19-.46a6.59,6.59,0,0,1,.34-.71,7.1,7.1,0,0,1,.41-.7,5.65,5.65,0,0,1,.34-.51,5.56,5.56,0,0,1,.42-.57c.15-.19.3-.36.46-.53a1.46,1.46,0,0,1,.16-.19l.53.45.24.21h0l.35.3,6.88,5.76,2.46-2.06L44.19,43l.35-.29.25-.21.53-.45a1.46,1.46,0,0,1,.16.19A11,11,0,0,1,48.36,49.65Z"/><path class="cls-1" d="M45.32,42.06l-.53.45-.25.21-.35.29-4.41,3.71-2.46,2.06L30.44,43l-.35-.3h0l-.24-.21-.53-.45A11.64,11.64,0,0,1,30.52,41a1.13,1.13,0,0,1,1.3-.07l.11.08h0v0L35,43.58l2.29,1.93,2.27-1.93L42.65,41v0l.13-.1h0a1.17,1.17,0,0,1,1.31.08A14.11,14.11,0,0,1,45.32,42.06Z"/><path class="cls-1" d="M20.08,55l-.3,1.57-.4,2.16a1.39,1.39,0,0,1-1.86,1l-1.42-.54a1.39,1.39,0,0,1-.69-2l1.69-2.79A1.66,1.66,0,0,0,18,55l.22.05,0,0,0,0,.39.08A3.22,3.22,0,0,0,20.08,55Z"/><path class="cls-1" d="M18.27,55l0,0,0,0Z"/><path class="cls-1" d="M23.63,47.63l-2.14,3.53v0a2.58,2.58,0,0,0-1.66-1.08L19,49.88l.7-3.76a1.37,1.37,0,0,1,1.84-1l1.43.54A1.37,1.37,0,0,1,23.63,47.63Z"/><path class="cls-1" d="M21.89,52.86a2.2,2.2,0,0,1-.1.56A2.56,2.56,0,0,1,20.08,55a3.22,3.22,0,0,1-1.42.07L18.27,55h0L18,55a1.76,1.76,0,0,1-1.37-2l.29-1.7a1.73,1.73,0,0,1,2-1.41h0l.85.18a2.58,2.58,0,0,1,1.66,1.08v0A2.46,2.46,0,0,1,21.89,52.86Z"/></svg>