<svg id="Layer_1" data-name="Layer 1" xmlns="http://www.w3.org/2000/svg" viewBox="0 0 100 100"><defs><style>.cls-1{fill:none;stroke:#4550e5;stroke-linecap:round;stroke-linejoin:round;}</style></defs><title>hippie-male</title><polyline class="cls-1" points="41.12 66.33 63.97 66.33 86.35 66.33"/><line class="cls-1" x1="36.14" y1="36.69" x2="36.14" y2="32.47"/><path class="cls-1" d="M39.16,32.45c1.72,0,3.79,0,6.05,0l4.84.06v.51a1.21,1.21,0,1,0,2.42,0v-.45c2,0,4.07.12,6.05.21,7.7.34,14.51,1,15.66,2.33l1.33,1.54H39.16"/><path class="cls-1" d="M50.05,27.61v4.94l-4.84-.06V30a2.43,2.43,0,0,1,2.42-2.42Z"/><path class="cls-1" d="M58.52,30v2.79c-2-.09-4-.16-6.05-.21v-5H56.1A2.42,2.42,0,0,1,58.52,30Z"/><path class="cls-1" d="M45.21,29.43v3.06c-2.26,0-4.33,0-6.05,0v-3A2.43,2.43,0,0,1,41.58,27h1.21A2.42,2.42,0,0,1,45.21,29.43Z"/><polygon class="cls-1" points="34.34 61.07 34.32 61.1 34.32 60.89 34.34 61.07"/><path class="cls-1" d="M41.58,60.3l.12.07,1.7,1.12a4.83,4.83,0,0,1-2,3.89"/><path class="cls-1" d="M37.27,66.15a2.07,2.07,0,0,0,1.29-1.93V59.68"/><polyline class="cls-1" points="38.56 63.91 38.56 62.1 38.56 59.68"/><path class="cls-1" d="M75.51,36.69c.64.76,1.28,1.57,1.9,2.42H71.84a1.22,1.22,0,0,0-1.22,1.21v4.84a1.2,1.2,0,0,0,.1.47v0a1.22,1.22,0,0,0,1.1.71h9.85a5.44,5.44,0,0,1,.44,1.81V59.07M34.6,42.14a1.1,1.1,0,0,0,.17-.32l.33.32h.43a.78.78,0,0,0,.21,0l-.17.52m-5.35-3.53-.06,0A.59.59,0,0,0,30,39h0l-.3-.1-.17,0,.17,0-.07.17Zm0,0a.44.44,0,0,1,.15,0h0l.37.15a2.17,2.17,0,0,1,.42.17l.09,0v-.41Zm-1.72-.44h0l0,0h0Zm-.82-.1a.27.27,0,0,1-.12,0,.42.42,0,0,1,.12,0h0Zm-.23,0h0Zm-1.81,0h0Zm-.2,0h0Zm-.57.06h0Zm-.05,0h0v0a0,0,0,0,1,0,0Zm11.31-1.92V37.9a3.43,3.43,0,0,0,.53,1.78m3.27-.57h8.9a1.21,1.21,0,0,1,1.21,1.21V45.2a1.17,1.17,0,0,1-1.17,1.17H41"/><path class="cls-1" d="M72.44,61.49H68.81a4.84,4.84,0,0,0-9.68,0H55.5l2.56-5.11a3.17,3.17,0,0,1,.61-.87,3.41,3.41,0,0,1,.38-.38c.12-.1.26-.19.39-.28l.11-.07c.13-.07.27-.15.41-.21a3.27,3.27,0,0,1,.47-.18l.09,0,.46-.1H61a3.79,3.79,0,0,1,.49,0h4.89a3.9,3.9,0,0,1,3.47,2.14Z"/><path class="cls-1" d="M64,56.66a4.84,4.84,0,1,0,4.84,4.83A4.83,4.83,0,0,0,64,56.66Zm0,7.25a2.42,2.42,0,1,1,2.42-2.42A2.42,2.42,0,0,1,64,63.91Z"/><circle class="cls-1" cx="63.97" cy="61.49" r="2.42"/><path class="cls-1" d="M73.59,57.2a3.62,3.62,0,1,1,3.06-.84A3.63,3.63,0,0,1,73.59,57.2ZM38.41,48.79a10.87,10.87,0,0,1,.15,1.81v9.08m3,.62.12.07,1.7,1.12h5.44c-.66,0-1.21-.94-1.21-2.11s.55-2.12,1.21-2.12a1.8,1.8,0,0,1-1.28-.53c-.47-.47-1.53-.18-2.35.64s-1.11,1.89-.64,2.36,1.52.18,2.35-.64,1.11-1.89.64-2.36A1.8,1.8,0,0,1,47,55.44c0,.67-1,1.22-2.12,1.22s-2.12-.55-2.12-1.22.94-1.2,2.12-1.2,2.12.54,2.12,1.2a1.8,1.8,0,0,1,.53-1.28c-.47.47-1.53.18-2.35-.64s-1.11-1.89-.64-2.36,1.52-.18,2.35.64,1.11,1.89.64,2.36a1.8,1.8,0,0,1,1.28-.53c.67,0,1.21-.94,1.21-2.12s-.54-2.11-1.21-2.11-1.21.94-1.21,2.11.55,2.12,1.21,2.12a1.8,1.8,0,0,1,1.28.53c-.47-.47-.18-1.52.64-2.36s1.89-1.11,2.36-.64.19,1.54-.64,2.36-1.88,1.11-2.36.64a1.81,1.81,0,0,1,.54,1.28c0,.67.94,1.22,2.11,1.22s2.12-.55,2.12-1.22-.94-1.2-2.12-1.2-2.11.54-2.11,1.2a1.81,1.81,0,0,1-.54,1.29c.48-.47,1.53-.18,2.36.64s1.12,1.89.64,2.36-1.52.18-2.36-.64-1.11-1.89-.64-2.36a1.8,1.8,0,0,1-1.28.53c.67,0,1.21.94,1.21,2.12s-.54,2.11-1.21,2.11H55.5l2.56-5.11a3.17,3.17,0,0,1,.61-.87,3.41,3.41,0,0,1,.38-.38c.12-.1.26-.19.39-.28l.11-.07c.13-.07.27-.15.41-.21a3.27,3.27,0,0,1,.47-.18l.09,0,.46-.1H61a3.79,3.79,0,0,1,.49,0h4.89a3.9,3.9,0,0,1,3.47,2.14l2.56,5.11h3.63a1.21,1.21,0,1,1,0-2.42h6.05A10.29,10.29,0,0,0,71.83,48.79H41.47"/><path class="cls-1" d="M83.33,60.28a1.21,1.21,0,0,1-1.21,1.21H76.07a1.21,1.21,0,1,1,0-2.42h6.05A1.22,1.22,0,0,1,83.33,60.28Z"/><path class="cls-1" d="M82.12,56.05h1.21a1.21,1.21,0,0,0,1.21-1.21V53.63a1.21,1.21,0,0,0-1.21-1.21H82.12Z"/><path class="cls-1" d="M37.79,46.37a12.43,12.43,0,0,0-2.22-3.73l.17-.52a2.32,2.32,0,0,0,.86-.23,1.25,1.25,0,0,0,.66-.9,1.2,1.2,0,0,0-.39-1.07,2.31,2.31,0,0,1-.2-.24"/><path class="cls-1" d="M39.94,39.11h8.9a1.21,1.21,0,0,1,1.21,1.21V45.2a1.17,1.17,0,0,1-1.17,1.17H41"/><rect class="cls-1" x="52.47" y="39.11" width="15.73" height="7.26" rx="1.21" ry="1.21"/><path class="cls-1" d="M81.68,46.37H71.83a1.22,1.22,0,0,1-1.1-.71v0a1.4,1.4,0,0,1-.1-.47V40.32a1.22,1.22,0,0,1,1.22-1.21h5.57c.62.85,1.21,1.72,1.77,2.57l.49.79c.17.28.34.56.49.83s.31.53.44.8.28.52.4.77a4.43,4.43,0,0,1,.35.73c.1.19.17.38.25.56Z"/><path class="cls-1" d="M70.62,45.16a1.2,1.2,0,0,0,.1.47A1.4,1.4,0,0,1,70.62,45.16Z"/><path class="cls-1" d="M50.66,55.44a1.83,1.83,0,1,1-.54-1.28A1.81,1.81,0,0,1,50.66,55.44Z"/><ellipse class="cls-1" cx="48.84" cy="51.51" rx="1.21" ry="2.12"/><path class="cls-1" d="M47.56,54.16c-.47.47-1.53.18-2.35-.64s-1.11-1.89-.64-2.36,1.52-.18,2.35.64S48,53.69,47.56,54.16Z"/><ellipse class="cls-1" cx="44.91" cy="55.45" rx="2.12" ry="1.21"/><path class="cls-1" d="M46.92,59.09c-.83.82-1.88,1.11-2.35.64s-.19-1.54.64-2.36,1.88-1.11,2.35-.64S47.74,58.25,46.92,59.09Z"/><ellipse class="cls-1" cx="48.84" cy="59.38" rx="1.21" ry="2.12"/><path class="cls-1" d="M53.12,59.73c-.47.47-1.52.18-2.36-.64s-1.11-1.89-.64-2.36,1.53-.18,2.36.64S53.6,59.26,53.12,59.73Z"/><ellipse class="cls-1" cx="52.77" cy="55.45" rx="2.12" ry="1.21"/><path class="cls-1" d="M52.48,53.52c-.83.82-1.88,1.11-2.36.64s-.18-1.52.64-2.36,1.89-1.11,2.36-.64S53.31,52.7,52.48,53.52Z"/><path class="cls-1" d="M52.47,27.61v5.45a1.21,1.21,0,1,1-2.42,0V27.61a1.21,1.21,0,0,1,2.42,0Z"/><path class="cls-1" d="M77.82,54.3a3.63,3.63,0,1,1-2.9-4.24A3.65,3.65,0,0,1,77.82,54.3Z"/><line class="cls-1" x1="74.92" y1="50.06" x2="73.59" y2="57.2"/><polyline class="cls-1" points="76.64 56.36 74.36 53.04 71.04 55.31"/><path class="cls-1" d="M16.88,25.19h0s0,0,0-.07v0S16.88,25.17,16.88,25.19Z"/><path class="cls-1" d="M18.66,20.66a7.8,7.8,0,0,0-.58.91h0a9.48,9.48,0,0,0-.44.84c-.13.3-.26.63-.37,1a5.56,5.56,0,0,0-.19.7l-.08.28s0,.08,0,.12a.41.41,0,0,0,0,.11h-.18a2.48,2.48,0,0,1-1.34-.4,2.42,2.42,0,0,1,1.34-4.44A2.37,2.37,0,0,1,18.66,20.66Z"/><path class="cls-1" d="M33.72,27.37v2.91a1.48,1.48,0,0,0,0-2.91Zm1.05,14.45a1.1,1.1,0,0,1-.17.32h.5ZM21.62,25.19v.95a1.35,1.35,0,0,1,.26-.15h0a2,2,0,0,1,.42-.13h0a1.71,1.71,0,0,1,.46-.05,1.8,1.8,0,0,1,.46.05,1.71,1.71,0,0,1,.44.13h0l.39.21h0a3.81,3.81,0,0,1,.36.3,2.4,2.4,0,0,1,.71,1.71,1.21,1.21,0,0,1,2.42,0,2.32,2.32,0,0,1,0-.46v0a3.09,3.09,0,0,1,.14-.43,0,0,0,0,1,0,0,2.42,2.42,0,0,1,.21-.39,0,0,0,0,0,0,0,3.27,3.27,0,0,1,.3-.35l.35-.3h0l.39-.21h0a2,2,0,0,1,.42-.13h0a1.71,1.71,0,0,1,.46-.05,1.8,1.8,0,0,1,.46.05A1.71,1.71,0,0,1,31,26h0a1.43,1.43,0,0,1,.27.15v-.95Zm-2.4,15.72-.21.16a1.13,1.13,0,0,1,.2-.13l0,0ZM23,39S23,39,23,39a.59.59,0,0,0-.2.06L23,39l.06,0Zm1.81-.39h0l-.2,0,.2,0a0,0,0,0,1,0,0Zm.05,0h0Zm.57-.06h0Zm.2,0h0Zm1.81,0h0Zm.23,0a.27.27,0,0,1-.12,0,.42.42,0,0,1,.12,0h0Zm.82.1h0l0,0h0Zm1.72.44a.44.44,0,0,1,.15,0h0l.37.15a2.17,2.17,0,0,1,.42.17l.09,0v-.41Zm0,0-.06,0A.59.59,0,0,0,30,39h0l-.3-.1-.17,0,.17,0-.07.17ZM18,28.82a1.49,1.49,0,0,0,1.21,1.46V27.37A1.5,1.5,0,0,0,18,28.82Zm-1-4.24a.41.41,0,0,1,0-.11.65.65,0,0,1,0,.11c0,.14-.07.29-.09.45v.09s0,.05,0,.07h0s0-.06,0-.08v0A3,3,0,0,1,17,24.58Zm2.34.61h-.1v1.22"/><path class="cls-1" d="M31.3,34.23v4.88H30.22l-.06,0A.59.59,0,0,0,30,39h0l-.3-.1-.17,0a.06.06,0,0,0-.06,0,1,1,0,0,0-.3-.07h-.05a2.23,2.23,0,0,0-.39-.09l-.13,0h0v0h0l-.19,0-.35,0-.18,0h-.07a.27.27,0,0,1-.12,0H27.1a4.57,4.57,0,0,0-.64,0c-.23,0-.45,0-.68,0h-.41a1.46,1.46,0,0,0-.22,0l-.16,0h-.17l-.2,0h-.11a2.14,2.14,0,0,0-.38.07l-.31.07a6.7,6.7,0,0,0-.74.19H23S23,39,23,39a.59.59,0,0,0-.2.06l-.21.07h-.05l-.37.15-.07,0a1.54,1.54,0,0,0-.35.15.38.38,0,0,0-.13.06,2,2,0,0,0,.05-.44V34.23a7.27,7.27,0,0,0,4.17,1.83l.67,0A7.24,7.24,0,0,0,31.3,34.23Z"/><path class="cls-1" d="M19.29,40.86s0,0-.05,0h0l-.21.16-.31.25-.39.33c-.17.16-.34.32-.49.49h-.44a2.34,2.34,0,0,1-1.06-.25,1.2,1.2,0,0,1-.28-2,3.14,3.14,0,0,0,.74-2V26.41a9.76,9.76,0,0,1,.07-1.22H19.2v2.18a1.48,1.48,0,0,0,0,2.91v6.41a3.14,3.14,0,0,1-.74,2,.85.85,0,0,0-.24.34h0a1.11,1.11,0,0,0,.06,1.21,1.08,1.08,0,0,0,.46.41A1.69,1.69,0,0,0,19.29,40.86Z"/><path class="cls-1" d="M37.26,41a1.25,1.25,0,0,1-.66.9,2.32,2.32,0,0,1-.86.23.78.78,0,0,1-.21,0H35.1l-.33-.32a.78.78,0,0,0,.07-.23,1.17,1.17,0,0,0-.39-1.06,3.19,3.19,0,0,1-.73-2V30.28a1.48,1.48,0,0,0,0-2.91V25.19h2.34a9.74,9.74,0,0,1,.08,1.22V37.9a3.43,3.43,0,0,0,.53,1.78,2.31,2.31,0,0,0,.2.24A1.2,1.2,0,0,1,37.26,41Z"/><path class="cls-1" d="M34.83,21.57H18.08a7.8,7.8,0,0,1,.58-.91,9.68,9.68,0,0,1,16.17.91Z"/><path class="cls-1" d="M34.84,41.59a.78.78,0,0,1-.07.23,1.1,1.1,0,0,1-.17.32,1.46,1.46,0,0,1-.42.36,2.79,2.79,0,0,1-.69.22h0l-.36,0a2.15,2.15,0,0,1-.66-.13,1.58,1.58,0,0,1-.74-.47,1.55,1.55,0,0,1-.33-.61,1.88,1.88,0,0,1-.08-.61V25.19h2.42V38.5a3.19,3.19,0,0,0,.73,2A1.17,1.17,0,0,1,34.84,41.59Z"/><path class="cls-1" d="M18,28.82a1.49,1.49,0,0,0,1.21,1.46V27.37A1.5,1.5,0,0,0,18,28.82Zm3.63-3.63v.95a1.35,1.35,0,0,1,.26-.15h0a2,2,0,0,1,.42-.13h0a1.71,1.71,0,0,1,.46-.05,1.8,1.8,0,0,1,.46.05,1.71,1.71,0,0,1,.44.13h0l.39.21h0a3.81,3.81,0,0,1,.36.3,2.4,2.4,0,0,1,.71,1.71,1.21,1.21,0,0,1,2.42,0,2.32,2.32,0,0,1,0-.46v0a3.09,3.09,0,0,1,.14-.43,0,0,0,0,1,0,0,2.42,2.42,0,0,1,.21-.39,0,0,0,0,0,0,0,3.27,3.27,0,0,1,.3-.35l.35-.3h0l.39-.21h0a2,2,0,0,1,.42-.13h0a1.71,1.71,0,0,1,.46-.05,1.8,1.8,0,0,1,.46.05A1.71,1.71,0,0,1,31,26h0a1.43,1.43,0,0,1,.27.15v-.95Zm12.1,2.18v2.91a1.48,1.48,0,0,0,0-2.91Z"/><path class="cls-1" d="M24.64,31.91a3.28,3.28,0,0,0,3.63,0"/><path class="cls-1" d="M36.06,25.19H16.88s0-.06,0-.08v0a3,3,0,0,1,.09-.51.41.41,0,0,1,0-.11s0-.09,0-.12l.08-.28a5.56,5.56,0,0,1,.19-.7c.11-.33.24-.66.37-1a9.48,9.48,0,0,1,.44-.84H34.84a9.48,9.48,0,0,1,.44.84c.11.24.21.5.3.76,0,.1.07.2.1.29s.12.39.17.59l.07.32A7.81,7.81,0,0,1,36.06,25.19Z"/><path class="cls-1" d="M16.88,25.19h0s0,0,0-.07h0S16.88,25.17,16.88,25.19Z"/><path class="cls-1" d="M25.25,28.22a2.42,2.42,0,0,1-2.42,2.42,2.36,2.36,0,0,1-1.21-.33V26.14a1.35,1.35,0,0,1,.26-.15h0a2,2,0,0,1,.42-.13h0a1.71,1.71,0,0,1,.46-.05,1.8,1.8,0,0,1,.46.05,1.71,1.71,0,0,1,.44.13h0l.39.21h0a3.81,3.81,0,0,1,.36.3A2.4,2.4,0,0,1,25.25,28.22Z"/><path class="cls-1" d="M21.88,26a1.35,1.35,0,0,0-.26.15h0Z"/><path class="cls-1" d="M31.3,26.14v4.19a2.47,2.47,0,0,1-1.21.31,2.4,2.4,0,0,1-1.71-.71,3.27,3.27,0,0,1-.3-.35,0,0,0,0,0,0,0,2.42,2.42,0,0,1-.21-.39,0,0,0,0,1,0,0,3.09,3.09,0,0,1-.14-.43v0a2.66,2.66,0,0,1,0-.92v0a3.09,3.09,0,0,1,.14-.43,0,0,0,0,1,0,0,2.42,2.42,0,0,1,.21-.39,0,0,0,0,0,0,0,3.27,3.27,0,0,1,.3-.35l.35-.3h0l.39-.21h0a2,2,0,0,1,.42-.13h0a1.71,1.71,0,0,1,.46-.05,1.8,1.8,0,0,1,.46.05A1.71,1.71,0,0,1,31,26h0A1.43,1.43,0,0,1,31.3,26.14Z"/><path class="cls-1" d="M31.3,26.13h0A1.43,1.43,0,0,0,31,26,1.38,1.38,0,0,1,31.3,26.13Z"/><path class="cls-1" d="M18.59,78.43v2.08a2.77,2.77,0,0,0,5.53.09l.07-2.17Z"/><path class="cls-1" d="M34.32,78.43v2.08a2.77,2.77,0,0,1-5.53.09l-.07-2.17Z"/><path class="cls-1" d="M35.57,70H28.45l-.05-1.76a1.94,1.94,0,0,0-3.88,0L24.46,70H17.34l.5-3.64.09-.56v0l.49-3.65.17-1.21H34.32v.21l0,0,.15,1,.34,2.48L35,65.75l.08.58Z"/><path class="cls-1" d="M24.46,70l-.11,3.62-.16,4.84H17.56a1.21,1.21,0,0,1-1.2-1.37l.48-3.47.5-3.62Z"/><polygon class="cls-1" points="34.34 61.07 34.32 61.1 34.32 60.89 34.34 61.07"/><path class="cls-1" d="M36.55,77.06a1.2,1.2,0,0,1-1.2,1.37H28.72l-.15-4.84L28.45,70h7.12l.51,3.62Z"/><line class="cls-1" x1="35.58" y1="69.97" x2="35.57" y2="69.97"/><line class="cls-1" x1="28.57" y1="73.59" x2="36.08" y2="73.59"/><line class="cls-1" x1="16.84" y1="73.59" x2="24.34" y2="73.59"/><path class="cls-1" d="M24.86,38.61a0,0,0,0,0,0,0l-.2,0,.2,0h0Z"/><path class="cls-1" d="M24.88,38.6h0Z"/><path class="cls-1" d="M25.55,38.54h0Z"/><path class="cls-1" d="M25.78,38.53h0Z"/><path class="cls-1" d="M27.71,38.57h0a.42.42,0,0,0-.12,0,.27.27,0,0,0,.12,0Z"/><path class="cls-1" d="M28.52,38.69h0l0,0h0Z"/><path class="cls-1" d="M29.58,39.11l.07-.17-.17,0,.17,0,.3.1h0a.59.59,0,0,1,.2.06l.06,0Z"/><path class="cls-1" d="M19.24,40.9l0,0s0,0,0,0Z"/><path class="cls-1" d="M23.08,39,23,39l-.27.08A.59.59,0,0,1,23,39S23,39,23,39Z"/><path class="cls-1" d="M23.08,39,23,39h.06Z"/><path class="cls-1" d="M25.55,38.54h0Z"/><path class="cls-1" d="M25.78,38.53h0Z"/><path class="cls-1" d="M27.71,38.57h0a.42.42,0,0,0-.12,0,.27.27,0,0,0,.12,0Z"/><path class="cls-1" d="M28.52,38.69h0v0Z"/><path class="cls-1" d="M32.45,42.61l-2.82,3.76-1.82,2.42L27,49.84a.7.7,0,0,1-1.13,0l-.79-1.05L24,47.37,20.1,42.14l-.89-1.2,0,0s0,0,.05,0h0a1.63,1.63,0,0,0,.5.06,1.8,1.8,0,0,0,1.77-1.37.38.38,0,0,1,.13-.06,1.54,1.54,0,0,1,.35-.15l.07,0,.37-.15h.05l.21-.07L23,39l1.15,2.46.31.67,1.3,2.78a.71.71,0,0,0,1.3,0l.42-1,.77-1.81.27-.61,1-2.42h.65a.44.44,0,0,1,.15,0h0l.37.15a2.17,2.17,0,0,1,.42.17l.09,0v1.4a1.88,1.88,0,0,0,.08.61,1.55,1.55,0,0,0,.33.61A1.58,1.58,0,0,0,32.45,42.61Z"/><path class="cls-1" d="M30.22,39.11h-.64l.07-.17A1.32,1.32,0,0,1,30,39h0a.59.59,0,0,1,.2.06Z"/><path class="cls-1" d="M23,39l-.27.08A.59.59,0,0,1,23,39,.1.1,0,0,1,23,39Z"/><path class="cls-1" d="M19.21,40.94a1.13,1.13,0,0,0-.2.13l.21-.16h0Z"/><path class="cls-1" d="M18.32,42.14c0,1.37-.08,2.29-.33,2.42a2.39,2.39,0,0,1-2,0c-1-.44-1.91-1.53-2.25-3.6-.6-3.62,1.69-16.73,1.69-16.73a2.48,2.48,0,0,0,1.34.4h0a4.31,4.31,0,0,1,.05.44v.09s0,.05,0,.07a9.76,9.76,0,0,0-.07,1.22V37.9a3.14,3.14,0,0,1-.74,2,1.2,1.2,0,0,0,.28,2,2.34,2.34,0,0,0,1.06.25h.44c.15-.17.32-.33.49-.49C18.32,41.82,18.32,42,18.32,42.14Z"/><path class="cls-1" d="M38.56,50.6v6.66H34.32v3.63H18.59V57.26H14.36V50.6A12,12,0,0,1,16,44.52a2.39,2.39,0,0,0,2,0c.25-.13.35-1.05.33-2.42,0-.16,0-.32,0-.49l.39-.33c.14.27.28.54.44.82l4.77,9.07c0,.08.08.16.13.24.73,1.41,1.35,2.59,1.79,3.4a.72.72,0,0,0,1.27,0l3.18-6.05,3.19-6.07h0a2.79,2.79,0,0,0,.69-.22,1.46,1.46,0,0,0,.42-.36h.5l.47.5a12.43,12.43,0,0,1,2.22,3.73,11.62,11.62,0,0,1,.62,2.42A10.87,10.87,0,0,1,38.56,50.6Z"/><path class="cls-1" d="M35.1,42.14l-.33-.32a1.1,1.1,0,0,1-.17.32"/><polyline class="cls-1" points="14.36 57.26 14.36 59.68 14.36 62.1 18.42 62.1"/><path class="cls-1" d="M23.08,39,23,39h.06Z"/><path class="cls-1" d="M24.86,38.61a0,0,0,0,0,0,0l-.2,0,.2,0h0Z"/><path class="cls-1" d="M25,38.6h0Z"/><path class="cls-1" d="M29.65,38.93h0l-.17,0Z"/><line class="cls-1" x1="34.32" y1="57.26" x2="34.32" y2="48.79"/><line class="cls-1" x1="18.59" y1="57.26" x2="18.59" y2="48.18"/><path class="cls-1" d="M18.42,62.1l-.49,3.65v0a2.14,2.14,0,0,1-1.46.56,2.1,2.1,0,0,1-2.11-2.11V62.1Z"/><path class="cls-1" d="M38.56,62.1v2.12a2.07,2.07,0,0,1-1.29,1.93h0a1.86,1.86,0,0,1-.82.18A2,2,0,0,1,35,65.75l-.16-1.17-.34-2.48Z"/><polygon class="cls-1" points="18.59 59.68 18.59 60.89 18.42 62.1 14.36 62.1 14.36 59.68 18.59 59.68"/><rect class="cls-1" x="14.36" y="57.26" width="4.24" height="2.42"/><polygon class="cls-1" points="38.56 59.68 38.56 62.1 34.49 62.1 34.34 61.07 34.32 60.89 34.32 59.68 38.56 59.68"/><polygon class="cls-1" points="34.34 61.07 34.32 61.1 34.32 60.89 34.34 61.07"/><rect class="cls-1" x="34.32" y="57.26" width="4.24" height="2.42"/><path class="cls-1" d="M31.3,30.33v3.9a7.24,7.24,0,0,1-4.84,1.85l-.67,0a7.27,7.27,0,0,1-4.17-1.83V30.31a2.36,2.36,0,0,0,1.21.33,2.42,2.42,0,0,0,2.42-2.42,1.21,1.21,0,0,1,2.42,0,2.32,2.32,0,0,0,0,.46v0a3.09,3.09,0,0,0,.14.43,0,0,0,0,0,0,0,2.42,2.42,0,0,0,.21.39,0,0,0,0,1,0,0,3.27,3.27,0,0,0,.3.35,2.4,2.4,0,0,0,1.71.71A2.47,2.47,0,0,0,31.3,30.33Z"/><path class="cls-1" d="M19.3,25.19h2.32v.94h0v13a2,2,0,0,1-.05.44,1.8,1.8,0,0,1-1.77,1.37,1.63,1.63,0,0,1-.5-.06h0a1.69,1.69,0,0,1-.55-.18,1.08,1.08,0,0,1-.46-.41,1.11,1.11,0,0,1-.06-1.21h0a.85.85,0,0,1,.24-.34,3.14,3.14,0,0,0,.74-2V26.41"/><polyline class="cls-1" points="19.3 25.2 19.2 25.2 19.2 26.41"/></svg>