<svg id="Layer_1" data-name="Layer 1" xmlns="http://www.w3.org/2000/svg" viewBox="0 0 102.29 100"><defs><style>.cls-1{fill:none;stroke:#4550e5;stroke-linecap:round;stroke-linejoin:round;}.cls-2{fill:#4550e5;}</style></defs><title>huligans-gang</title><path class="cls-1" d="M71.58,45.7h0s0,0,0,0"/><line class="cls-1" x1="69.31" y1="44.05" x2="69.31" y2="44.04"/><line class="cls-1" x1="79.19" y1="44.06" x2="79.19" y2="44.05"/><path class="cls-2" d="M71.77,37.46a.83.83,0,1,0,.83.83.83.83,0,0,0-.83-.83Z"/><path class="cls-2" d="M76.74,37.46a.83.83,0,1,0,.82.83.83.83,0,0,0-.82-.83Z"/><path class="cls-1" d="M81.12,89.28a1.1,1.1,0,0,0,1-1.6A3.3,3.3,0,0,0,79.22,86h-.55a3.3,3.3,0,0,0-2.9,1.71,1.1,1.1,0,0,0,1,1.6Z"/><path class="cls-1" d="M76.38,86.9A3.23,3.23,0,0,1,78.67,86h.55a3.24,3.24,0,0,1,2.2.85V68.88H67.09V86.82a3.24,3.24,0,0,1,2.2-.85h.55a3.25,3.25,0,0,1,2.29.93l.41-11.41a1.72,1.72,0,0,1,3.43,0Z"/><path class="cls-1" d="M71.75,89.28a1.1,1.1,0,0,0,1-1.6A3.3,3.3,0,0,0,69.84,86h-.55a3.3,3.3,0,0,0-2.89,1.71,1.1,1.1,0,0,0,1,1.6Z"/><path class="cls-1" d="M67.09,68.88H62.68v2.76a2.21,2.21,0,0,0,4.41,0Z"/><path class="cls-1" d="M69.51,46.2a6.68,6.68,0,0,0,.94,2.66l.13.22c1,1.54,2.1,2.85,2.82,3.76a1.09,1.09,0,0,0,1.71,0c.72-.91,1.79-2.22,2.82-3.76l.13-.22A6.68,6.68,0,0,0,79,46.2,23.06,23.06,0,0,0,79.22,43V41L75.4,40a4.67,4.67,0,0,0-2.29,0l-3.82,1v2A23.06,23.06,0,0,0,69.51,46.2Z"/><path class="cls-1" d="M69.34,44.44s1.06,1.84,4.91,1.29"/><path class="cls-1" d="M78.4,47.89S77.24,49,74.25,49"/><path class="cls-1" d="M74.81,43.52s2.75,0,3.85-1.1"/><path class="cls-1" d="M73.78,34.17a5.11,5.11,0,0,0-4.49,5.15V43c0,.19,0,.36,0,.54s0,.3,0,.45v.09c0,.13,0,.25,0,.38s0,.11,0,.17c0,.54.1,1.07.17,1.6a6.68,6.68,0,0,0,.94,2.66l.13.22c1,1.54,2.09,2.85,2.82,3.77a1.11,1.11,0,0,0,1.71,0c.73-.92,1.8-2.23,2.81-3.77l.15-.22A6.82,6.82,0,0,0,79,46.2c0-.27.07-.53.09-.8s.06-.52.07-.78l0-.56h0c0-.37,0-.72,0-1.08V39.11A5,5,0,0,0,73.78,34.17Zm15.33,6.36a1.79,1.79,0,0,0-.57.49,2.17,2.17,0,0,0-.51,1.4V43a.57.57,0,0,1,0,.13l.34-.79a2.06,2.06,0,0,0,1,1.34L90,44a1.13,1.13,0,0,0,.78.12l-2.21,4A1.1,1.1,0,0,1,87.49,50l-2-1a1,1,0,0,1-.51-.53,6.46,6.46,0,0,1-3.58,1.06h-1A30.19,30.19,0,0,0,82,40V36.35a7.72,7.72,0,0,0-15.44,0V40a30.16,30.16,0,0,0,1.76,10.13l-.08.06A10.69,10.69,0,0,0,66,52a11.46,11.46,0,0,0-3.32,8.08v1.65l0,7.17H81.42V54.54c1.88.51,11-3.1,11-11.57v-.55a2,2,0,0,0,0-.43h0"/><line class="cls-1" x1="67.09" y1="57.85" x2="67.09" y2="68.88"/><path class="cls-1" d="M90.77,44.15l-2.21,4-.1-.07-1.91-.92-.07,0-.12,0L88,43.11h0l.34-.79a2.06,2.06,0,0,0,1,1.34L90,44A1.13,1.13,0,0,0,90.77,44.15Z"/><path class="cls-1" d="M88.36,42.31a2.06,2.06,0,0,0,1,1.34L90,44a1.13,1.13,0,0,0,.78.12"/><path class="cls-1" d="M89.11,40.53l.1-.23,7.05-16.67a2.6,2.6,0,0,1,3.55-1.33,2.65,2.65,0,0,1,1.34,1.56,2.62,2.62,0,0,1-.22,2.05L92.39,41.25"/><path class="cls-1" d="M89,49.52a1.11,1.11,0,0,1-1.48.5l-2-1a1,1,0,0,1-.51-.53,1,1,0,0,1,0-.93A1.08,1.08,0,0,1,86.36,47l.12,0,.07,0,1.91.92.1.07A1.1,1.1,0,0,1,89,49.52Z"/><path class="cls-1" d="M92.4,42h0a.71.71,0,0,1-.08.18l-.82,1.44a1.07,1.07,0,0,1-.73.54A1.13,1.13,0,0,1,90,44l-.64-.38a2.06,2.06,0,0,1-1-1.34,1.88,1.88,0,0,1,.07-1.05.88.88,0,0,1,.11-.24,1.87,1.87,0,0,1,.67-.72,2,2,0,0,1,2,0l.7.41a1.11,1.11,0,0,1,.48.57A1.07,1.07,0,0,1,92.4,42Z"/><path class="cls-1" d="M49.4,48.51H55a4.69,4.69,0,0,0,4.69-4.68V41.62a1.59,1.59,0,0,1,.08-.53,1.61,1.61,0,0,0,.16.38,1.78,1.78,0,0,0,1,.84l2,4.68A8.56,8.56,0,0,1,55,52.37H52.51V68.91H39.31"/><path class="cls-1" d="M41.7,49.14a10.89,10.89,0,0,0-3.52,2"/><path class="cls-1" d="M63.53,41.69V42.8L63.18,42A.93.93,0,0,0,63.53,41.69Z"/><path class="cls-1" d="M52.21,89.31a1.1,1.1,0,0,0,1-1.6A3.3,3.3,0,0,0,50.31,86h-.56a3.3,3.3,0,0,0-2.89,1.71,1.1,1.1,0,0,0,1,1.6Z"/><path class="cls-1" d="M53,39.27a.64.64,0,0,1,.06.18,1.94,1.94,0,0,1,0,.24A1.36,1.36,0,0,1,51.81,41a1.53,1.53,0,0,1-.06.25"/><path class="cls-1" d="M38.94,41.29a.91.91,0,0,1-.07-.25,1.36,1.36,0,0,1-1.24-1.35,1.18,1.18,0,0,1,.17-.64h0"/><path class="cls-2" d="M42.86,37.49a.83.83,0,1,0,.83.83.83.83,0,0,0-.83-.83Z"/><path class="cls-2" d="M47.82,37.49a.83.83,0,1,0,.83.83.83.83,0,0,0-.83-.83Z"/><path class="cls-1" d="M43.69,42.5a3,3,0,0,0,3.31,0"/><path class="cls-1" d="M42.84,89.31a1.1,1.1,0,0,0,1-1.6A3.32,3.32,0,0,0,40.93,86h-.55a3.29,3.29,0,0,0-2.89,1.71,1.1,1.1,0,0,0,1,1.6Z"/><polyline class="cls-1" points="49.4 48.51 52.51 48.51 52.51 52.37 52.51 68.91 39.31 68.91"/><path class="cls-1" d="M41.7,49.14a10.89,10.89,0,0,0-3.52,2"/><path class="cls-1" d="M51.75,41.29,46.41,40a4.31,4.31,0,0,0-2.14,0l-5.33,1.33-.21.06A9.67,9.67,0,0,0,39,43.41a18.87,18.87,0,0,0,2.72,5.73c1,1.52,2.07,2.82,2.78,3.73a1.1,1.1,0,0,0,1.72,0,45.1,45.1,0,0,0,3.2-4.36,9.71,9.71,0,0,0,.56-.94,13,13,0,0,0,2-6.22Zm-3.1,7.22h-.33"/><path class="cls-1" d="M47.05,34.73H43.14a2.22,2.22,0,0,0-2,1.27,5.61,5.61,0,0,1-2.48,2.59,1.07,1.07,0,0,0-.8.43l-.06,0h0l-.17.09V37.49a7.69,7.69,0,0,1,6.67-7.64l.45,1.06,1.14,2.68A2.16,2.16,0,0,0,47.05,34.73Z"/><path class="cls-1" d="M53.06,37.49v2.2a1.94,1.94,0,0,0,0-.24A1.12,1.12,0,0,0,52,38.59l-.2,0-.33-.27a7.61,7.61,0,0,1-1.92-2.41,2.14,2.14,0,0,0-1.18-1,1.94,1.94,0,0,0,.45-.14l2.09-.89,1-.43A7.54,7.54,0,0,1,53.06,37.49Z"/><path class="cls-1" d="M39,43.41a7.51,7.51,0,0,0,6.35,2.35"/><path class="cls-1" d="M50,47.57a7.2,7.2,0,0,1-4.63,1.49"/><path class="cls-1" d="M45.89,43.55s2.76,0,3.86-1.1"/><path class="cls-1" d="M52.51,68.91V86.85h0c-.07-.07-.15-.12-.22-.18L52,86.49l-.17-.09-.25-.13-.3-.11-.1,0a.32.32,0,0,0-.14,0,1.08,1.08,0,0,0-.31-.07,3.71,3.71,0,0,0-.47,0h-.55a3.29,3.29,0,0,0-.45,0,2.89,2.89,0,0,0-.51.11l-.35.13a2,2,0,0,0-.36.19l0,0a2.52,2.52,0,0,0-.33.24h0l-.23.2-.4-11.39a1.72,1.72,0,0,0-3.43,0l-.4,11.39a3.47,3.47,0,0,0-1-.65c-.11,0-.22-.08-.33-.12h0l-.22,0a1.36,1.36,0,0,0-.29-.06,3.19,3.19,0,0,0-.45,0h-.55a3.55,3.55,0,0,0-.46,0,1.09,1.09,0,0,0-.3.07.37.37,0,0,0-.15,0l-.1,0-.3.11a1.46,1.46,0,0,0-.25.13l-.17.09c-.09.05-.16.12-.24.17a1.32,1.32,0,0,0-.22.18h0V72.6a1.06,1.06,0,0,0,.66-.32l1.09-1.08a1.1,1.1,0,0,0,0-1.56,5.78,5.78,0,0,1-.62-.73Z"/><path class="cls-1" d="M39.93,71.2l-1.09,1.08a1.06,1.06,0,0,1-.66.32,1,1,0,0,1-.87-.28,9.32,9.32,0,0,1-3-6.84V59.54a11,11,0,0,1,3.86-8.38V65.48a5.66,5.66,0,0,0,1.13,3.43,5.78,5.78,0,0,0,.62.73A1.1,1.1,0,0,1,39.93,71.2Z"/><path class="cls-1" d="M60.94,38.7a1.92,1.92,0,0,0-1.11,1l-3.51-8.23,2-.86,3.32,7.78Z"/><path class="cls-1" d="M64.39,47.63A1.1,1.1,0,0,1,63,47.05l0-.06-2-4.68a2.23,2.23,0,0,0,1.42,0l.69-.26.14-.06.35.81L65,46.19A1.1,1.1,0,0,1,64.39,47.63Z"/><path class="cls-1" d="M48.33,34.88a1.94,1.94,0,0,0,.45-.14l2.09-.89,1-.43,4.43-1.9,2-.86L66,27.4a2.2,2.2,0,0,0,1.17-2.89L61.83,12a2.22,2.22,0,0,0-2.9-1.16l-17.2,7.35a2.18,2.18,0,0,0-1.16,2.89l3.73,8.74.45,1.06,1.14,2.68a2.16,2.16,0,0,0,1.16,1.14m11.8-13.3-.52-1.23a5.14,5.14,0,0,0-7.2-2.49A5.29,5.29,0,0,0,49,24.44l.44,1a1.08,1.08,0,0,0,.81.65l1.69.32.83,1.94a1.08,1.08,0,0,0,1.44.57l.77-.32,2.35-1h0l.77-.32a1.1,1.1,0,0,0,.58-1.44l-.84-1.94.95-1.45A1.08,1.08,0,0,0,58.85,21.43Z"/><path class="cls-1" d="M47.05,34.73a2,2,0,0,0,1.28.15"/><path class="cls-1" d="M58.76,22.46l-.95,1.45.84,1.94a1.1,1.1,0,0,1-.58,1.44l-.77.32h0l-2.35,1-.77.32a1.08,1.08,0,0,1-1.44-.57l-.83-1.94-1.69-.32a1.08,1.08,0,0,1-.81-.65l-.44-1a5.29,5.29,0,0,1,2.16-6.73,5.14,5.14,0,0,1,7.2,2.49l.52,1.23A1.08,1.08,0,0,1,58.76,22.46Z"/><path class="cls-1" d="M58.76,22.46l-.95,1.45.84,1.94a1.1,1.1,0,0,1-.58,1.44l-.77.32h0l-2.35,1-.77.32a1.08,1.08,0,0,1-1.44-.57l-.83-1.94-1.69-.32a1.08,1.08,0,0,1-.81-.65l-.44-1a5.29,5.29,0,0,1,2.16-6.73,5.14,5.14,0,0,1,7.2,2.49l.52,1.23A1.08,1.08,0,0,1,58.76,22.46Z"/><path class="cls-2" d="M51.58,21.74a.74.74,0,0,0-.25.05.65.65,0,0,0-.34.85.65.65,0,0,0,.59.39.54.54,0,0,0,.25-.06.64.64,0,0,0,.34-.84.64.64,0,0,0-.59-.39Z"/><path class="cls-2" d="M55.12,20.23a.74.74,0,0,0-.25.05.64.64,0,0,0,.25,1.23.6.6,0,0,0,.26-.05.64.64,0,0,0-.26-1.23Z"/><line class="cls-1" x1="54.11" y1="23.4" x2="54.36" y2="23.99"/><line class="cls-1" x1="54.19" y1="26.86" x2="54.94" y2="28.63"/><line class="cls-1" x1="57.3" y1="27.61" x2="56.56" y2="25.85"/><path class="cls-1" d="M63.53,41.69a.93.93,0,0,1-.35.3l-.14.06-.69.26a2.23,2.23,0,0,1-1.42,0,1.78,1.78,0,0,1-1-.84,1.61,1.61,0,0,1-.16-.38,1.87,1.87,0,0,1,.07-1.34,1.92,1.92,0,0,1,1.11-1l.73-.26h0a1.11,1.11,0,0,1,1.42.66l.57,1.54A1.06,1.06,0,0,1,63.53,41.69Z"/><path class="cls-1" d="M27.34,51.16a11.06,11.06,0,0,0-7.17-2.65h-9.1a4.68,4.68,0,0,1-2.8-.93L6.14,50.79a8.42,8.42,0,0,0,4.93,1.58H13V68.91H27.34V61.74h3.85v-2.2A11,11,0,0,0,27.34,51.16Z"/><path class="cls-1" d="M27.89,37.49a7.72,7.72,0,1,0-15.44,0v1.1a7.72,7.72,0,0,0,15.44,0Z"/><path class="cls-1" d="M27,89.31a1.1,1.1,0,0,0,1-1.6A3.32,3.32,0,0,0,25.13,86h-.55a3.29,3.29,0,0,0-2.89,1.71,1.1,1.1,0,0,0,1,1.6Z"/><path class="cls-1" d="M17.67,89.31a1.1,1.1,0,0,0,1-1.6A3.29,3.29,0,0,0,15.76,86h-.55a3.32,3.32,0,0,0-2.9,1.71,1.1,1.1,0,0,0,1,1.6Z"/><path class="cls-1" d="M13,81v5.8a.46.46,0,0,1,.07-.07h0l.09-.09.3-.2a3.73,3.73,0,0,1,.4-.2l.26-.09s0,0,0,0a.29.29,0,0,1,.1,0,.37.37,0,0,1,.15,0,1.09,1.09,0,0,1,.3-.07,3.55,3.55,0,0,1,.46,0h.55a3.29,3.29,0,0,1,.45,0,1.59,1.59,0,0,1,.3.06l.2,0,.06,0,.3.11a2.61,2.61,0,0,1,.56.32,2.24,2.24,0,0,1,.34.27l.07.06.41-11.39a1.72,1.72,0,0,1,3.43,0l.41,11.39a3,3,0,0,1,.52-.4.78.78,0,0,1,.2-.11,1.3,1.3,0,0,1,.26-.14c.11,0,.22-.08.33-.12h0l.22,0a1.36,1.36,0,0,1,.29-.06,3.29,3.29,0,0,1,.45,0h.55a3.71,3.71,0,0,1,.47,0,1.3,1.3,0,0,1,.33.07l.16,0a3.82,3.82,0,0,1,.36.13l.38.2a2.68,2.68,0,0,1,.28.18l.13.11h0a.5.5,0,0,1,.08.07V81"/><polyline class="cls-1" points="27.34 76.63 27.34 73.87 27.34 71.94 27.34 68.91 13.01 68.91 13.01 73.87 13.01 76.63"/><path class="cls-1" d="M20.17,35.83c4.26,0,7.72,1.12,7.72,2.49s-3.46,2.48-7.72,2.48-7.72-1.11-7.72-2.48S15.91,35.83,20.17,35.83Z"/><path class="cls-2" d="M17.69,37.49a.83.83,0,1,0,.83.83.83.83,0,0,0-.83-.83Z"/><path class="cls-2" d="M22.65,37.49a.83.83,0,1,0,.83.83.83.83,0,0,0-.83-.83Z"/><path class="cls-1" d="M29.27,73.87a1.92,1.92,0,0,0,1.92-1.93V61.74H27.34v10.2A1.92,1.92,0,0,0,29.27,73.87Z"/><path class="cls-1" d="M3.34,47.46h0a8.61,8.61,0,0,0,2.8,3.33l2.14-3.22h0a4.69,4.69,0,0,1-1.88-3.75V41.62a1.65,1.65,0,0,0-.09-.54"/><path class="cls-1" d="M6.36,40.26A.74.74,0,0,0,6.28,40a1.56,1.56,0,0,0-.4-.72A1.16,1.16,0,0,0,5.59,39"/><path class="cls-1" d="M3.49,38.48l-.14.09"/><polyline class="cls-1" points="2.51 41.68 2.53 41.88 2.53 42.63"/><path class="cls-1" d="M20.17,51.82A3.31,3.31,0,0,0,23.44,49a11,11,0,0,0-3.27-.5H16.86A3.31,3.31,0,0,0,20.17,51.82Z"/><line class="cls-1" x1="27.34" y1="61.74" x2="27.34" y2="57.88"/><path class="cls-1" d="M12.79,24.44a3.32,3.32,0,0,1-4.61,2,3.44,3.44,0,0,1-1.59-4.31,6,6,0,0,1,4.31-3.87.55.55,0,0,1,.49.95,4.72,4.72,0,0,0-2,3c.57.55,1.28.43,2.11-.22a.53.53,0,0,1,.75.11A2.49,2.49,0,0,1,12.79,24.44Z"/><path class="cls-1" d="M4.9,42.41,3.34,47.46h0L3.17,48a1.09,1.09,0,0,1-1,.78,1,1,0,0,1-.33-.06,1.09,1.09,0,0,1-.72-1.37l1.46-4.73.22-.71a.91.91,0,0,0,.26.13l.76.29A1.83,1.83,0,0,0,4.9,42.41Z"/><path class="cls-1" d="M9.77,26.75h0L5.88,39.25v0A1.52,1.52,0,0,0,5.59,39a2.86,2.86,0,0,0-.54-.3l-.69-.25a1.27,1.27,0,0,0-.18-.06.87.87,0,0,0-.32,0l3.8-12.27h0a3.64,3.64,0,0,0,.46.3c.09,0,.17.09.26.12a3,3,0,0,0,.69.2h.07A3.32,3.32,0,0,0,9.77,26.75Z"/><path class="cls-1" d="M6.35,40.92a.49.49,0,0,1,0,.16,1.89,1.89,0,0,1-1.4,1.33,1.83,1.83,0,0,1-1.13-.07L3,42.05a.91.91,0,0,1-.26-.13,1.36,1.36,0,0,1-.24-.24,1.12,1.12,0,0,1-.14-1l.12-.33.45-1.21a1.17,1.17,0,0,1,.17-.31.71.71,0,0,1,.15-.15.18.18,0,0,1,.09-.07l.14-.09.19-.07a.9.9,0,0,1,.16,0h0a.87.87,0,0,1,.32,0,1.27,1.27,0,0,1,.18.06l.69.25a2.86,2.86,0,0,1,.54.3,1.52,1.52,0,0,1,.28.29,1.82,1.82,0,0,1,.41.68,2.45,2.45,0,0,1,.08.29A2.09,2.09,0,0,1,6.35,40.92Z"/><path class="cls-1" d="M2.93,39.09a.92.92,0,0,1,.18-.3,1.17,1.17,0,0,0-.17.31l-.45,1.21Z"/><path class="cls-1" d="M5.05,38.7l-.69-.25a1.27,1.27,0,0,0-.18-.06.45.45,0,0,1,.18,0Z"/><path class="cls-1" d="M27.34,81h-.56a1.11,1.11,0,0,1-1.1-1.11v-2.2a1.1,1.1,0,0,1,1.1-1.1h.56a1.1,1.1,0,0,1,1.1,1.1v2.2A1.11,1.11,0,0,1,27.34,81Z"/><path class="cls-1" d="M13.55,81H13a1.11,1.11,0,0,1-1.1-1.11v-2.2a1.1,1.1,0,0,1,1.1-1.1h.55a1.11,1.11,0,0,1,1.11,1.1v2.2A1.11,1.11,0,0,1,13.55,81Z"/></svg>