<svg id="Layer_1" data-name="Layer 1" xmlns="http://www.w3.org/2000/svg" viewBox="0 0 100 100"><defs><style>.cls-1{fill:none;stroke:#4550e5;stroke-linecap:round;stroke-linejoin:round;}</style></defs><title>hospital</title><polyline class="cls-1" points="84.52 74.98 78.74 74.98 67.86 74.98 58.2 74.98 55.79 74.98 51.57 74.98 47.35 74.98 47.34 74.98 45.23 74.98"/><line class="cls-1" x1="19.6" y1="74.98" x2="19.58" y2="74.98"/><polygon class="cls-1" points="47.3 18.84 35.27 29.1 25.6 29.1 29.84 18.84 47.3 18.84"/><polygon class="cls-1" points="77.53 29.1 67.86 29.1 55.84 18.84 73.31 18.84 77.53 29.1"/><path class="cls-1" d="M67.87,29.1v6.64h-3v-3a1.21,1.21,0,1,0-2.41,0v3H58.81V29.69c0-.2,0-.4,0-.59a7.24,7.24,0,0,0-14.44,0c0,.19,0,.39,0,.59v6.05H40.7v-3a1.21,1.21,0,1,0-2.41,0v3h-3V29.1l12-10.26,2.77-2.36a2.29,2.29,0,0,1,3,0l2.78,2.36Z"/><rect class="cls-1" x="35.26" y="29.1" width="0.01" height="6.65"/><path class="cls-1" d="M40.7,32.72v3H38.29v-3a1.21,1.21,0,1,1,2.41,0Z"/><path class="cls-1" d="M64.85,32.72v3H62.44v-3a1.21,1.21,0,1,1,2.41,0Z"/><polyline class="cls-1" points="36.99 60.49 35.27 60.49 35.26 60.49 35.26 63.5 35.26 65"/><polyline class="cls-1" points="45.23 74.98 47.34 74.98 47.35 74.98 51.57 74.98 55.79 74.98 58.2 74.98 67.86 74.98 67.86 63.5 67.86 60.49 64.85 60.49 62.44 60.49 58.2 60.49 44.93 60.49 44.47 60.49"/><path class="cls-1" d="M42.36,75V66.56l-.16-.23a2.43,2.43,0,0,0,1-2,2.36,2.36,0,0,0-.15-.84,2.46,2.46,0,0,0-2.33-1.65,2.51,2.51,0,0,0-2.35,1.65,2.36,2.36,0,0,0-.15.84,2.42,2.42,0,0,0,1,2c0,.07-.1.15-.15.24v1.31H35.26"/><polyline class="cls-1" points="44.47 60.49 44.93 60.49 58.2 60.49 62.44 60.49 64.85 60.49 67.86 60.49 67.86 38.76 67.86 35.74 64.85 35.74 62.44 35.74 58.81 35.74 44.33 35.74 40.7 35.74 38.29 35.74 35.27 35.74 35.26 35.74 35.26 38.76 35.26 60.49 35.27 60.49 36.99 60.49"/><polyline class="cls-1" points="35.27 63.5 35.26 63.5 35.26 60.49 35.27 60.49 36.99 60.49"/><polyline class="cls-1" points="46.03 63.5 47.34 63.5 47.35 63.5 51.57 63.5 55.79 63.5 58.2 63.5 67.86 63.5 67.86 60.49 64.85 60.49 62.44 60.49 58.2 60.49 44.93 60.49 44.47 60.49"/><path class="cls-1" d="M38.39,63.5a2.51,2.51,0,0,1,2.35-1.65,2.46,2.46,0,0,1,2.33,1.65"/><path class="cls-1" d="M58.81,29.69v6.05H44.32V29.69c0-.2,0-.4,0-.59a7.24,7.24,0,0,1,14.44,0C58.8,29.29,58.81,29.49,58.81,29.69Z"/><path class="cls-1" d="M24.41,65V30.25a1.14,1.14,0,0,1,1.15-1.15h9.71V65"/><polyline class="cls-1" points="35.27 67.87 35.26 67.87 31.04 67.87 28.63 67.87 24.41 67.87"/><rect class="cls-1" x="24.4" y="60.49" width="10.87" height="3.02"/><rect class="cls-1" x="35.26" y="35.74" width="32.6" height="3.01"/><rect class="cls-1" x="24.4" y="35.74" width="10.87" height="3.02"/><path class="cls-1" d="M29.83,31.51h0a1.21,1.21,0,0,0-1.2,1.21v3H31v-3A1.21,1.21,0,0,0,29.83,31.51Z"/><path class="cls-1" d="M40.7,32.72v3H38.29v-3a1.21,1.21,0,1,1,2.41,0Z"/><path class="cls-1" d="M64.85,32.72v3H62.44v-3a1.21,1.21,0,1,1,2.41,0Z"/><rect class="cls-1" x="28.63" y="41.17" width="2.41" height="4.83"/><rect class="cls-1" x="28.63" y="48.42" width="2.41" height="4.83"/><rect class="cls-1" x="28.63" y="55.66" width="2.41" height="4.83"/><line class="cls-1" x1="31.04" y1="67.87" x2="28.63" y2="67.87"/><path class="cls-1" d="M78.74,30.25V75H67.87V29.1h9.72A1.14,1.14,0,0,1,78.74,30.25Z"/><rect class="cls-1" x="67.87" y="60.49" width="10.87" height="3.02"/><rect class="cls-1" x="67.87" y="35.74" width="10.87" height="3.02"/><path class="cls-1" d="M73.3,31.51h0a1.21,1.21,0,0,0-1.2,1.21v3h2.41v-3A1.21,1.21,0,0,0,73.3,31.51Z"/><rect class="cls-1" x="72.1" y="41.17" width="2.42" height="4.83"/><rect class="cls-1" x="72.1" y="48.42" width="2.42" height="4.83"/><rect class="cls-1" x="72.1" y="55.66" width="2.42" height="4.83"/><rect class="cls-1" x="72.1" y="65.92" width="2.42" height="4.83"/><rect class="cls-1" x="38.29" y="41.17" width="2.41" height="4.83"/><rect class="cls-1" x="38.29" y="48.42" width="2.41" height="4.83"/><polyline class="cls-1" points="38.29 59.57 38.29 55.66 40.7 55.66 40.7 58.97"/><rect class="cls-1" x="62.44" y="41.17" width="2.42" height="4.83"/><rect class="cls-1" x="62.44" y="48.42" width="2.42" height="4.83"/><rect class="cls-1" x="53.38" y="42.38" width="2.42" height="4.83"/><rect class="cls-1" x="53.38" y="49.62" width="2.42" height="4.83"/><rect class="cls-1" x="47.34" y="42.38" width="2.42" height="4.83"/><rect class="cls-1" x="47.34" y="49.62" width="2.42" height="4.83"/><rect class="cls-1" x="62.44" y="55.66" width="2.42" height="4.83"/><rect class="cls-1" x="29.83" y="15.21" width="4.23" height="3.62"/><path class="cls-1" d="M34.06,15.21H29.83l-.42-.61a1.16,1.16,0,0,1,.95-1.81h3.15a1.16,1.16,0,0,1,1,.61,1.14,1.14,0,0,1-.05,1.17Z"/><rect class="cls-1" x="69.08" y="15.21" width="4.23" height="3.62"/><path class="cls-1" d="M73.3,15.21H69.08l-.43-.58a1.13,1.13,0,0,1-.11-1.2,1.15,1.15,0,0,1,1-.64h3.15a1.17,1.17,0,0,1,1,.59,1.15,1.15,0,0,1,0,1.15Z"/><line class="cls-1" x1="44.32" y1="38.76" x2="44.32" y2="54.45"/><line class="cls-1" x1="58.81" y1="38.76" x2="58.81" y2="54.45"/><polyline class="cls-1" points="44.93 60.49 58.2 60.49 58.2 63.5 58.2 74.98 55.79 74.98 51.57 74.98 47.35 74.98 47.34 74.98 45.23 74.98"/><polyline class="cls-1" points="45.23 74.98 47.34 74.98 47.35 74.98 47.35 63.5 47.34 63.5 46.03 63.5"/><rect class="cls-1" x="55.8" y="63.51" width="2.41" height="11.47"/><rect class="cls-1" x="51.57" y="63.51" width="4.23" height="11.47"/><line class="cls-1" x1="35.27" y1="60.49" x2="23.25" y2="60.49"/><line class="cls-1" x1="35.27" y1="35.74" x2="23.25" y2="35.74"/><line class="cls-1" x1="79.89" y1="60.49" x2="67.87" y2="60.49"/><line class="cls-1" x1="79.89" y1="35.74" x2="67.87" y2="35.74"/><rect class="cls-1" x="47.34" y="63.51" width="4.23" height="11.47"/><path class="cls-1" d="M42.36,66.56V87.21H39.1V66.56c0-.09.11-.17.15-.24h0a1.34,1.34,0,0,0,.27.17h2.41a1.13,1.13,0,0,0,.26-.16Z"/><path class="cls-1" d="M19.6,67.87V87.21H39.1V67.87Zm14.69,9a8.18,8.18,0,0,1-5.1,7.57.36.36,0,0,1-.32,0,8.18,8.18,0,0,1-5.1-7.57V73.18a.45.45,0,0,1,.37-.42l.27,0a10,10,0,0,0,4.37-1.88.39.39,0,0,1,.5,0,10,10,0,0,0,4.64,1.92.45.45,0,0,1,.37.42Z"/><rect class="cls-1" x="19.58" y="67.87" width="0.02" height="19.33"/><path class="cls-1" d="M43.22,64.34a2.43,2.43,0,0,1-1,2,1.13,1.13,0,0,1-.26.16H39.53a1.34,1.34,0,0,1-.27-.17h0a2.42,2.42,0,0,1-1-2,2.36,2.36,0,0,1,.15-.84,2.51,2.51,0,0,1,2.35-1.65,2.46,2.46,0,0,1,2.33,1.65A2.36,2.36,0,0,1,43.22,64.34Z"/><path class="cls-1" d="M19.6,66.56v1.31h0V87.21H16.35V66.56a1.19,1.19,0,0,1,.16-.23,1.32,1.32,0,0,0,.25.16h2.41a1,1,0,0,0,.27-.17h0A2.52,2.52,0,0,1,19.6,66.56Z"/><rect class="cls-1" x="19.58" y="67.87" width="0.02" height="19.33"/><path class="cls-1" d="M20.46,64.34a2.45,2.45,0,0,1-1,2h0a1,1,0,0,1-.27.17H16.76a1.32,1.32,0,0,1-.25-.16,2.44,2.44,0,0,1-1-2,2.49,2.49,0,0,1,5,0Z"/><path class="cls-1" d="M34.29,73.18v3.68a8.18,8.18,0,0,1-5.1,7.57.36.36,0,0,1-.32,0,8.18,8.18,0,0,1-5.1-7.57V73.18a.45.45,0,0,1,.37-.42l.27,0a10,10,0,0,0,4.37-1.88.39.39,0,0,1,.5,0,10,10,0,0,0,4.64,1.92A.45.45,0,0,1,34.29,73.18Z"/></svg>