<svg id="Layer_1" data-name="Layer 1" xmlns="http://www.w3.org/2000/svg" viewBox="0 0 100 100"><defs><style>.cls-1{fill:none;stroke:#4550e5;stroke-linecap:round;stroke-linejoin:round;}</style></defs><title>ipod</title><path class="cls-1" d="M62.69,80.63a2.1,2.1,0,0,1-2.1,2.1H38.33a2.1,2.1,0,0,1-2.1-2.1V43.25a2.1,2.1,0,0,1,2.1-2.1H60.59a2.1,2.1,0,0,1,2.1,2.1Z"/><path class="cls-1" d="M57.65,70.76a8.19,8.19,0,1,1-8.19-8.19A8.19,8.19,0,0,1,57.65,70.76Z"/><circle class="cls-1" cx="49.46" cy="70.76" r="3.15"/><path class="cls-1" d="M58.91,57.74a1,1,0,0,1-1,1H41.06a1,1,0,0,1-1.05-1V46a1,1,0,0,1,1.05-1h16.8a1,1,0,0,1,1,1Z"/><path class="cls-1" d="M48.52,48.73a.64.64,0,0,0-.64,0,.66.66,0,0,0-.31.55v5.34a.65.65,0,0,0,.32.55.64.64,0,0,0,.64,0L53,52.41a.63.63,0,0,0,.3-.55.61.61,0,0,0-.31-.53Z"/><path class="cls-1" d="M46.71,32a2.35,2.35,0,1,1-2.35-2.35A2.35,2.35,0,0,1,46.71,32Z"/><path class="cls-1" d="M58.47,29.61a2.35,2.35,0,1,1-2.35-2.35A2.35,2.35,0,0,1,58.47,29.61Z"/><path class="cls-1" d="M46.71,32V22.23a1.27,1.27,0,0,1,.8-1.17l9.24-3.7a1.28,1.28,0,0,1,1.17.13,1.26,1.26,0,0,1,.55,1V29.61"/><path class="cls-1" d="M24.89,46.76a2,2,0,1,1-2,2A2,2,0,0,1,24.89,46.76Z"/><polyline class="cls-1" points="26.86 48.72 26.86 39.86 29.81 41.83"/><path class="cls-1" d="M72,48.8a1.26,1.26,0,1,1-1.26-1.26A1.25,1.25,0,0,1,72,48.8Z"/><polyline class="cls-1" points="72.04 48.8 72.04 43.13 73.93 44.39"/><line class="cls-1" x1="73.3" y1="57.94" x2="73.3" y2="56.99"/><line class="cls-1" x1="75.3" y1="58.77" x2="75.97" y2="58.1"/><line class="cls-1" x1="76.14" y1="60.77" x2="77.08" y2="60.77"/><line class="cls-1" x1="75.3" y1="62.78" x2="75.97" y2="63.45"/><line class="cls-1" x1="73.3" y1="63.61" x2="73.3" y2="64.55"/><line class="cls-1" x1="71.3" y1="62.78" x2="70.63" y2="63.45"/><line class="cls-1" x1="70.46" y1="60.77" x2="69.52" y2="60.77"/><line class="cls-1" x1="71.3" y1="58.77" x2="70.63" y2="58.1"/><line class="cls-1" x1="67" y1="34.31" x2="67" y2="31.79"/><line class="cls-1" x1="65.74" y1="33.05" x2="68.26" y2="33.05"/><line class="cls-1" x1="32.35" y1="34.31" x2="32.35" y2="29.27"/><line class="cls-1" x1="29.83" y1="31.79" x2="34.87" y2="31.79"/><line class="cls-1" x1="24.26" y1="61.4" x2="24.26" y2="58.88"/><line class="cls-1" x1="23" y1="60.14" x2="25.52" y2="60.14"/></svg>