<svg id="Layer_1" data-name="Layer 1" xmlns="http://www.w3.org/2000/svg" viewBox="0 0 100 100"><defs><style>.cls-1{fill:none;stroke:#4550e5;stroke-linecap:round;stroke-linejoin:round;}</style></defs><title>monitor-cash-credit-card</title><path class="cls-1" d="M68.49,67.43v4.75a2.37,2.37,0,0,1-2.37,2.37h-32a2.38,2.38,0,0,1-2.38-2.37V67.43Z"/><path class="cls-1" d="M51.29,71a1.19,1.19,0,1,1-1.19-1.18A1.19,1.19,0,0,1,51.29,71Z"/><polygon class="cls-1" points="56.03 79.3 44.17 79.3 44.76 74.55 55.44 74.55 56.03 79.3"/><line class="cls-1" x1="40.61" y1="79.3" x2="59.59" y2="79.3"/><path class="cls-1" d="M68.49,67.43v-19a2.37,2.37,0,0,0-2.37-2.37h-32a2.38,2.38,0,0,0-2.38,2.37v19Z"/><path class="cls-1" d="M57.22,56.75a7.12,7.12,0,1,1-7.12-7.12A7.12,7.12,0,0,1,57.22,56.75Z"/><path class="cls-1" d="M48.91,60.91a1.79,1.79,0,0,1-1.26-.53L45.28,58a1.77,1.77,0,0,1,0-2.52,1.79,1.79,0,0,1,2.52,0l1.11,1.12,2.9-2.9a1.78,1.78,0,0,1,2.51,2.52l-4.15,4.15A1.77,1.77,0,0,1,48.91,60.91Z"/><path class="cls-1" d="M19.73,37.12a2.37,2.37,0,1,1-2.93-1.64A2.38,2.38,0,0,1,19.73,37.12Z"/><path class="cls-1" d="M27.23,37.46l-1.3-4.57A2.38,2.38,0,0,1,23,31.25L9.3,35.14a2.38,2.38,0,0,1-1.64,2.93L9,42.64a2.37,2.37,0,0,1,2.93,1.63l13.7-3.88A2.37,2.37,0,0,1,27.23,37.46Z"/><path class="cls-1" d="M30.54,40.43a1,1,0,0,1-.68,1.22L8.92,47.58A1,1,0,0,1,7.7,46.9L4.36,35.1A1,1,0,0,1,5,33.88L26,28a1,1,0,0,1,1.22.68Z"/><line class="cls-1" x1="74.63" y1="40.34" x2="80.33" y2="41.97"/><path class="cls-1" d="M90.33,47.3,73.59,42.51a2,2,0,0,1-1.35-2.44l2.83-9.89a2,2,0,0,1,2.44-1.36l16.74,4.8a2,2,0,0,1,1.36,2.44L92.77,46A2,2,0,0,1,90.33,47.3Z"/><rect class="cls-1" x="83.7" y="23.96" width="2.37" height="21.36" transform="translate(28.21 106.71) rotate(-74.01)"/><rect class="cls-1" x="82.39" y="30.89" width="2.37" height="16.61" transform="translate(22.88 108.76) rotate(-74.02)"/><path class="cls-1" d="M50.1,20.7a7.91,7.91,0,1,1-7.91,7.91A7.91,7.91,0,0,1,50.1,20.7Z"/><line class="cls-1" x1="50.1" y1="32.57" x2="50.1" y2="33.56"/><line class="cls-1" x1="50.1" y1="23.67" x2="50.1" y2="24.66"/><path class="cls-1" d="M48.12,30.59a2,2,0,1,0,2-2,2,2,0,1,1,2-2"/></svg>