<svg id="Layer_1" data-name="Layer 1" xmlns="http://www.w3.org/2000/svg" viewBox="0 0 100 100"><defs><style>.cls-1,.cls-2{fill:none;stroke:#4550e5;stroke-linejoin:round;}.cls-1{stroke-linecap:round;}</style></defs><title>lab-scientist</title><path class="cls-1" d="M46.55,34.21a2,2,0,0,0,0,3.94h.12a9.84,9.84,0,0,0,19.47,0h.12a2,2,0,0,0,0-3.94"/><path class="cls-1" d="M53.43,40.91a4.3,4.3,0,0,0,5.93,0"/><path class="cls-2" d="M45.51,34.52a2,2,0,0,1,1-.3"/><path class="cls-2" d="M66.29,34.22a2,2,0,0,1,1.26.48s0,0,.07,0c.79.79,3.49-12.11-4.31-13.84,0-.86-1.53-2-3.45-2H53.45c-5.4,0-9.36,4.46-9.36,9.86"/><path class="cls-1" d="M61.83,35.2a1.61,1.61,0,0,0-3,0"/><path class="cls-1" d="M54,35.2a1.6,1.6,0,0,0-3,0"/><path class="cls-1" d="M56.41,32.24H46.55v3.94c0,1.48,3.45,2.47,5.42,2.47a3.32,3.32,0,0,0,3.19-2.14,1.37,1.37,0,0,1,1.25-.82,1.34,1.34,0,0,1,1.24.82,3.34,3.34,0,0,0,3.19,2.14c2,0,5.42-1,5.42-2.47V32.24Z"/><path class="cls-1" d="M68.54,32.24H66.26v2h1.82A10,10,0,0,0,68.54,32.24Z"/><path class="cls-1" d="M44.27,32.24h2.28v2H44.73A10,10,0,0,1,44.27,32.24Z"/><path class="cls-2" d="M48.23,32.24a14.76,14.76,0,0,0-.11-2.8,11.32,11.32,0,0,0,3.55.51c4.94,0,10.78-2.31,10.78-5a14.07,14.07,0,0,0,1.36,7.27"/><path class="cls-2" d="M44.09,28.79a13.2,13.2,0,0,0,.41,3.47"/><path class="cls-1" d="M66.44,70.19a8.91,8.91,0,0,0,2.78,3.61"/><path class="cls-1" d="M41.13,70.19V62.8c0-.23,0-.45,0-.69h0"/><path class="cls-1" d="M41.67,58.72a15.31,15.31,0,0,1,7.15-9.18"/><path class="cls-1" d="M74.92,69.7h-.36a2.88,2.88,0,0,1-2.88-2.88v-4A15.27,15.27,0,0,0,64,49.53"/><path class="cls-1" d="M53,46.53c-2.47,0-5.92,5-5.92,6.41l3,1-1.48,2.46,7.89,11.33,7.88-11.33-1.48-2.46,3-1c0-1.4-3.45-6.41-5.91-6.41"/><path class="cls-1" d="M53,46.53l-.66,2.84a13,13,0,0,0,.34,7.05l3.77,11.3,3.76-11.3a13,13,0,0,0,.34-7.05l-.65-2.84"/><line class="cls-1" x1="56.41" y1="67.72" x2="56.41" y2="70.19"/><path class="cls-1" d="M56.41,53.43l3.93,2.47a13,13,0,0,0,.17-6.53l-.65-2.84C59.33,49.17,58.48,51.64,56.41,53.43Z"/><path class="cls-1" d="M53,45.91v.62c.52,2.64,1.38,5.11,3.45,6.9,2.07-1.79,2.92-4.26,3.45-6.9v-.62"/><line class="cls-1" x1="47.04" y1="61.32" x2="47.04" y2="70.19"/><path class="cls-1" d="M56.41,53.43l3.93,2.47a13,13,0,0,0,.17-6.53l-.65-2.84C59.33,49.17,58.48,51.64,56.41,53.43Z"/><path class="cls-1" d="M56.41,53.43,52.48,55.9a13,13,0,0,1-.18-6.53L53,46.53C53.48,49.17,54.34,51.64,56.41,53.43Z"/><path class="cls-1" d="M56.41,53.43,52.48,55.9a13,13,0,0,1-.18-6.53L53,46.53C53.48,49.17,54.34,51.64,56.41,53.43Z"/><polygon class="cls-1" points="56.41 53.43 54.62 54.55 55.42 56.39 57.39 56.39 58.19 54.55 56.41 53.43"/><path class="cls-1" d="M57.39,56.39h-2a32.42,32.42,0,0,0-.82,5.91l1.81,5.42,1.8-5.42A32.42,32.42,0,0,0,57.39,56.39Z"/><path class="cls-1" d="M78.58,59.84a1.48,1.48,0,1,1-1.47,1.48A1.48,1.48,0,0,1,78.58,59.84Z"/><path class="cls-1" d="M83,59.35a1,1,0,1,1-1,1A1,1,0,0,1,83,59.35Z"/><path class="cls-1" d="M80.55,52.94a1,1,0,1,1-1,1A1,1,0,0,1,80.55,52.94Z"/><path class="cls-1" d="M18.46,75.61H17a1,1,0,0,1-1-1V62.3a1,1,0,0,1,1-1h.49a1,1,0,0,1,1,1Z"/><path class="cls-1" d="M43.59,74.62a1,1,0,0,1-1,1H41.13V62.3a1,1,0,0,1,1-1h.5a1,1,0,0,1,1,1Z"/><rect class="cls-1" x="18.46" y="73.15" width="22.67" height="2.46"/><path class="cls-1" d="M24.87,65.75v5.42a2,2,0,1,1-3.95,0V65.75"/><path class="cls-1" d="M20.92,63.67V55.9a1,1,0,0,1,1-1h2a1,1,0,0,1,1,1v7.88"/><path class="cls-1" d="M20.92,58.85h3.95"/><rect class="cls-1" x="18.46" y="63.78" width="22.67" height="1.97"/><path class="cls-1" d="M65.77,61.32v5.5a8.81,8.81,0,0,0,.67,3.37"/><path class="cls-1" d="M78.93,70.77l1.65-2.53a1,1,0,0,0-.28-1.36L78.65,65.8a1,1,0,0,0-1.37.28L74.86,69.8l-6.27,4.44a2,2,0,0,0,0,3.27l4.94,3.23a2,2,0,0,0,3-1.26"/><path class="cls-1" d="M77.7,76.7l-2.19-1a1.49,1.49,0,0,1-.74-2L76,71.06a1.46,1.46,0,0,1,2-.74l2.2,1a1.94,1.94,0,0,1,1.09,2.31A10.32,10.32,0,0,1,80.16,76,2,2,0,0,1,77.7,76.7Z"/><path class="cls-1" d="M76.6,79.48l.62-3"/><path class="cls-1" d="M31.77,65.75v5.42a2,2,0,1,1-3.95,0V65.75"/><path class="cls-1" d="M27.82,63.67V55.9a1,1,0,0,1,1-1h2a1,1,0,0,1,1,1v7.88"/><path class="cls-1" d="M27.82,58.85h3.95"/><path class="cls-1" d="M38.67,65.75v5.42a2,2,0,1,1-4,0V65.75"/><path class="cls-1" d="M34.72,63.67V55.9a1,1,0,0,1,1-1h2a1,1,0,0,1,1,1v7.88"/><path class="cls-1" d="M34.72,58.85h4"/></svg>