<svg id="Layer_1" data-name="Layer 1" xmlns="http://www.w3.org/2000/svg" viewBox="0 0 100 100"><defs><style>.cls-1,.cls-2{fill:none;stroke:#4550e5;stroke-linejoin:round;}.cls-1{stroke-linecap:round;}</style></defs><title>netherlands-windmill</title><line class="cls-1" x1="32.13" y1="84.1" x2="81.58" y2="84.1"/><path class="cls-2" d="M30.16,33.59a2.55,2.55,0,0,0-.92.17,4.22,4.22,0,0,0-8.34,0,2.59,2.59,0,0,0-.92-.17,2.54,2.54,0,0,0,0,5.08H30.16a2.54,2.54,0,1,0,0-5.08Z"/><path class="cls-1" d="M71.7,47.07l-1.8-4.66a.77.77,0,0,0-.07-.16,12.55,12.55,0,0,0-3.14-4.65l-2.53,2.52-2.9-2.91,2-2L58.2,32.11l-.43-.26a1.13,1.13,0,0,0-1.2,0L54.69,33,56,34.3v0l-2.91,2.9-2-2-1.45.88a11.84,11.84,0,0,0-3.3,3,12.73,12.73,0,0,0-1.9,3.35l-.59,1.52-1.19,3.14a1.15,1.15,0,0,0,1.07,1.56H44l2.27-2.26,3.89-3.9,2.92,2.92-3.24,3.24h8.83l-.33-.33,2.91-2.91,3.24,3.24h6.13A1.15,1.15,0,0,0,71.7,47.07ZM58.61,43.88H55.74a1.15,1.15,0,0,1-.82-.33,1.13,1.13,0,0,1-.33-.82V39.86a1.14,1.14,0,0,1,.33-.81,1.18,1.18,0,0,1,.82-.34h2.87a1.17,1.17,0,0,1,.82.33,1.21,1.21,0,0,1,.33.82v2.87a1.16,1.16,0,0,1-.34.82A1.14,1.14,0,0,1,58.61,43.88Z"/><polygon class="cls-1" points="44.01 48.63 43.64 49 43.64 48.63 44.01 48.63"/><polygon class="cls-1" points="62.03 51.97 62.99 52.95 45.52 52.95 49.84 48.63 58.68 48.63 62.03 51.97"/><polygon class="cls-1" points="70.71 48.63 70.71 52.95 68.81 52.95 64.5 48.63 70.71 48.63"/><path class="cls-1" d="M53.09,45.39l-3.24,3.24h0L45.52,53,42,56.43,39.57,58.9a2.06,2.06,0,0,1-2.92,0L35.2,57.45l3.32-3.32,3.88-3.89L43.64,49l.37-.37,2.27-2.26,3.89-3.9Z"/><path class="cls-1" d="M72.3,56.43,68.81,53h2.34A1.14,1.14,0,0,1,72.3,54.1Z"/><path class="cls-1" d="M75.84,76.23H38.5a1.14,1.14,0,0,1-1-1.7A35.56,35.56,0,0,0,42,57.07v-.64L45.52,53H63l2.91,2.9,3.89,3.88,2.95,3c.05.34.11.67.16,1a35.63,35.63,0,0,0,3.94,10.83A1.14,1.14,0,0,1,75.84,76.23Z"/><rect class="cls-1" x="39.66" y="76.23" width="35.03" height="7.87"/><rect class="cls-1" x="45.96" y="63.4" width="6.9" height="8.63" rx="1.15" ry="1.15"/><line class="cls-1" x1="45.96" y1="67.71" x2="52.86" y2="67.71"/><line class="cls-1" x1="49.41" y1="63.4" x2="49.41" y2="72.02"/><path class="cls-1" d="M66.66,84.1H61.48V80.65a2.59,2.59,0,0,1,2.59-2.59h0a2.59,2.59,0,0,1,2.59,2.59Z"/><line class="cls-1" x1="46.53" y1="84.1" x2="46.53" y2="79.79"/><line class="cls-1" x1="54.58" y1="84.1" x2="54.58" y2="79.79"/><line class="cls-1" x1="61.26" y1="45.39" x2="59.42" y2="43.55"/><line class="cls-1" x1="54.92" y1="39.05" x2="53.09" y2="37.22"/><path class="cls-1" d="M72.3,56.43l2.47,2.47a2.07,2.07,0,0,1,0,2.93l-1.44,1.44-.43.43-2.66,2.67a1.16,1.16,0,0,1-1.62,0l-2.73-2.74L62,59.75l-3.87-3.88L55.26,53l0,0a1.16,1.16,0,0,1,0-1.57L58,48.63l.34-.33"/><path class="cls-1" d="M39.57,23.7a1.84,1.84,0,0,1-.45-.68,2.06,2.06,0,0,1,.45-2.25l4.53-4.53a1.15,1.15,0,0,1,1.63,0L48.46,19l3.87,3.89,3.89,3.88,2.86,2.86a1.15,1.15,0,0,1,0,1.63l-.88.89L56,34.3"/><line class="cls-1" x1="56" y1="34.32" x2="53.09" y2="37.21"/><line class="cls-1" x1="61.26" y1="37.21" x2="59.43" y2="39.04"/><line class="cls-1" x1="54.92" y1="43.55" x2="53.09" y2="45.39"/><path class="cls-1" d="M79.15,25.15l3.08,3.08a1.14,1.14,0,0,1,.33.82,1.11,1.11,0,0,1-.33.8l-2.72,2.73-3.89,3.89-3.88,3.87-1.91,1.91-1,1a1.14,1.14,0,0,1-1.63,0l-3.09-3.08"/><path class="cls-1" d="M35.2,57.45l-3.09-3.08a1.14,1.14,0,0,1,0-1.63l2.51-2.51,3.89-3.87,7-7a1.16,1.16,0,0,1,1.62,0l3.08,3.08"/><polyline class="cls-1" points="72.3 56.43 68.81 52.95 64.5 48.63 61.26 45.39 58.35 48.3 58.68 48.63 62.03 51.97 62.99 52.95 65.9 55.85 69.79 59.73 72.74 62.69"/><path class="cls-1" d="M72.74,62.69l.59.58,1.44-1.44a2.07,2.07,0,0,0,0-2.93L72.3,56.43"/><path class="cls-1" d="M56,34.3v0l-2.91,2.9L39.57,23.7a2.23,2.23,0,0,1-.45-.68,2,2,0,0,1,.46-2.24L41,19.33l3.53,3.53,3.87,3.89,3.89,3.87L54.69,33Z"/><path class="cls-1" d="M79.15,25.15l-3.54,3.53-7.77,7.76L66.69,37.6l-2.53,2.52-2.9-2.91L74.77,23.7a2.05,2.05,0,0,1,2.93,0Z"/><line class="cls-1" x1="62" y1="59.75" x2="65.9" y2="55.85"/><line class="cls-1" x1="65.89" y1="63.63" x2="69.78" y2="59.74"/><line class="cls-1" x1="58.12" y1="55.87" x2="62.02" y2="51.97"/><line class="cls-1" x1="48.44" y1="26.75" x2="52.34" y2="22.85"/><line class="cls-1" x1="52.32" y1="30.63" x2="56.22" y2="26.73"/><line class="cls-1" x1="44.55" y1="22.87" x2="48.45" y2="18.97"/><line class="cls-1" x1="75.62" y1="36.47" x2="71.73" y2="32.57"/><line class="cls-1" x1="71.74" y1="40.35" x2="67.84" y2="36.45"/><line class="cls-1" x1="79.5" y1="32.58" x2="75.61" y2="28.69"/><line class="cls-1" x1="42.4" y1="50.25" x2="38.5" y2="46.35"/><line class="cls-1" x1="38.52" y1="54.13" x2="34.62" y2="50.23"/><line class="cls-1" x1="46.28" y1="46.37" x2="42.4" y2="42.49"/><path class="cls-1" d="M59.76,39.86v2.87a1.16,1.16,0,0,1-.34.82,1.14,1.14,0,0,1-.81.33H55.74a1.15,1.15,0,0,1-.82-.33,1.13,1.13,0,0,1-.33-.82V39.86a1.14,1.14,0,0,1,.33-.81,1.18,1.18,0,0,1,.82-.34h2.87a1.17,1.17,0,0,1,.82.33A1.21,1.21,0,0,1,59.76,39.86Z"/></svg>