<svg id="Layer_1" data-name="Layer 1" xmlns="http://www.w3.org/2000/svg" viewBox="0 0 100 100"><defs><style>.cls-1,.cls-2{fill:none;stroke:#4550e5;stroke-linejoin:round;}.cls-2{stroke-linecap:round;}</style></defs><title>one-world-trade-center</title><path class="cls-1" d="M83.26,46.53a2.1,2.1,0,0,0-.79.16,3.62,3.62,0,0,0-7.16,0,2,2,0,0,0-.78-.16,2.19,2.19,0,0,0,0,4.37h8.73a2.19,2.19,0,0,0,0-4.37Z"/><path class="cls-1" d="M23.62,29.77a1.75,1.75,0,0,0-.65.12,3,3,0,0,0-5.95,0,1.75,1.75,0,0,0-.65-.12,1.81,1.81,0,1,0,0,3.62h7.25a1.81,1.81,0,1,0,0-3.62Z"/><path class="cls-2" d="M59.75,94.24h-23L39.76,33a1.68,1.68,0,0,1,1.67-1.6H55A1.67,1.67,0,0,1,56.68,33Z"/><polygon class="cls-2" points="41.94 31.39 48.22 94.24 54.51 31.39 41.94 31.39"/><path class="cls-2" d="M54,29H42.48a1.21,1.21,0,0,1-1.21-1.21h0a1.21,1.21,0,0,1,1.21-1.21H54a1.21,1.21,0,0,1,1.2,1.21h0A1.21,1.21,0,0,1,54,29Z"/><path class="cls-2" d="M54,31.38H42.48a1.21,1.21,0,0,1-1.21-1.2h0A1.21,1.21,0,0,1,42.48,29H54a1.21,1.21,0,0,1,1.2,1.21h0A1.2,1.2,0,0,1,54,31.38Z"/><polyline class="cls-2" points="48.22 3.19 48.22 12.28 48.22 20.15"/><polyline class="cls-2" points="59.75 96.81 59.75 94.24 36.7 94.24 36.7 96.81"/><path class="cls-2" d="M54,25.35a1.21,1.21,0,0,0-1.21-1.21H43.68a1.21,1.21,0,0,0-1.2,1.21v1.2H54Z"/><polygon class="cls-2" points="46.88 24.14 46.88 21.95 47.64 20.16 48.8 20.16 49.56 21.95 49.56 24.14 46.88 24.14"/><polyline class="cls-2" points="52.76 24.14 48.8 12.28 47.64 12.28 43.68 24.14"/><line class="cls-2" x1="46.88" y1="12.28" x2="49.55" y2="12.28"/><line class="cls-2" x1="48.22" y1="39.83" x2="48.22" y2="44.86"/><line class="cls-2" x1="50.18" y1="39.83" x2="50.18" y2="44.86"/><line class="cls-2" x1="46.26" y1="39.83" x2="46.26" y2="44.86"/></svg>