<svg id="Layer_1" data-name="Layer 1" xmlns="http://www.w3.org/2000/svg" viewBox="0 0 100 100"><defs><style>.cls-1,.cls-2{fill:none;stroke:#4550e5;stroke-linecap:round;}.cls-1{stroke-linejoin:round;}.cls-2{stroke-miterlimit:10;}</style></defs><title>polaroid</title><path class="cls-1" d="M34.77,67.58H31.64a1.9,1.9,0,0,1-1.88-1.64L28.08,54.76H71.92L70.24,65.94a1.9,1.9,0,0,1-1.88,1.64H64.77"/><path class="cls-1" d="M35.59,64.42H34.4a1.1,1.1,0,0,1-1.1-1.1V61H66.7v2.36a1.1,1.1,0,0,1-1.1,1.1H63.85"/><path class="cls-1" d="M68.1,59.86A1.1,1.1,0,0,1,67,61H33a1.1,1.1,0,0,1-1.1-1.1v-.79A1.1,1.1,0,0,1,33,58H67a1.1,1.1,0,0,1,1.1,1.1Z"/><polygon class="cls-1" points="71.92 54.76 28.09 54.76 30.94 47.62 69.06 47.62 71.92 54.76"/><path class="cls-1" d="M69.06,47.62H30.94V30.45a2.84,2.84,0,0,1,2.84-2.84H66.22a2.84,2.84,0,0,1,2.84,2.84Z"/><path class="cls-1" d="M39.52,41.47a2.86,2.86,0,1,1-2.86-2.86A2.86,2.86,0,0,1,39.52,41.47Z"/><path class="cls-1" d="M64.77,43.33a1.91,1.91,0,1,1-1.91-1.91A1.91,1.91,0,0,1,64.77,43.33Z"/><path class="cls-1" d="M65.94,36.45a1.1,1.1,0,0,1-1.1,1.1H61a1.1,1.1,0,0,1-1.1-1.1V32.58a1.1,1.1,0,0,1,1.1-1.1h3.87a1.1,1.1,0,0,1,1.1,1.1Z"/><line class="cls-2" x1="48.77" y1="27.61" x2="51.8" y2="27.61"/><line class="cls-2" x1="51.8" y1="47.62" x2="48.77" y2="47.62"/><line class="cls-2" x1="51.8" y1="27.61" x2="54.84" y2="27.61"/><line class="cls-2" x1="54.84" y1="47.62" x2="51.8" y2="47.62"/><path class="cls-1" d="M34,72.39a1.1,1.1,0,0,1-.89-1.75A16.5,16.5,0,0,0,35.87,61h27.7a16.5,16.5,0,0,0,2.73,9.69,1.11,1.11,0,0,1,.09,1.15,1.08,1.08,0,0,1-1,.6Z"/><path class="cls-2" d="M57.31,38.09a6.83,6.83,0,1,1-6.83-6.83A6.83,6.83,0,0,1,57.31,38.09Z"/><polygon class="cls-2" points="45.73 47.62 48.77 47.62 47.98 54.76 43.87 54.76 45.73 47.62"/><polygon class="cls-2" points="54.84 47.62 51.8 47.62 52.59 54.76 56.7 54.76 54.84 47.62"/><polygon class="cls-2" points="51.8 47.62 48.77 47.62 47.98 54.76 52.59 54.76 51.8 47.62"/><line class="cls-2" x1="54.84" y1="43.35" x2="54.84" y2="47.62"/><line class="cls-2" x1="54.84" y1="27.61" x2="54.84" y2="32.83"/><line class="cls-2" x1="51.8" y1="44.79" x2="51.8" y2="47.62"/><line class="cls-2" x1="51.8" y1="27.61" x2="51.8" y2="31.39"/><line class="cls-2" x1="48.76" y1="44.7" x2="48.76" y2="47.62"/><line class="cls-2" x1="48.76" y1="27.61" x2="48.76" y2="31.47"/><line class="cls-2" x1="45.73" y1="33.18" x2="45.73" y2="27.61"/><line class="cls-2" x1="45.73" y1="47.62" x2="45.73" y2="43"/></svg>