<svg id="Layer_1" data-name="Layer 1" xmlns="http://www.w3.org/2000/svg" viewBox="0 0 100 100"><defs><style>.cls-1{fill:none;stroke:#4550e5;stroke-linecap:round;stroke-linejoin:round;}.cls-2{fill:#4550e5;}</style></defs><title>postman-receive-letter</title><path class="cls-1" d="M61.93,12.61a2.37,2.37,0,0,0-2.37-2.37H39.39A2.37,2.37,0,0,0,37,12.61V31a2.37,2.37,0,0,0,2.37,2.37h4.35a1,1,0,0,1,1,1v2.56a1,1,0,0,0,.61.91,1,1,0,0,0,1.07-.21l4-4a1,1,0,0,1,.7-.29h8.49A2.37,2.37,0,0,0,61.93,31Z"/><line class="cls-1" x1="25.2" y1="81.98" x2="25.2" y2="86.88"/><line class="cls-1" x1="28.75" y1="87.01" x2="29.01" y2="81.98"/><line class="cls-1" x1="37.06" y1="81.98" x2="37.06" y2="87.01"/><line class="cls-1" x1="33.49" y1="86.89" x2="33.25" y2="81.98"/><path class="cls-1" d="M24.6,45.24a1.52,1.52,0,0,0,1.49,1.64h0A5.91,5.91,0,0,0,37.65,45.1V42.43"/><path class="cls-2" d="M30.68,43.91a.74.74,0,1,0,.74.74.74.74,0,0,0-.74-.74Z"/><path class="cls-2" d="M35.13,43.91a.74.74,0,1,0,.74.74.74.74,0,0,0-.74-.74Z"/><path class="cls-1" d="M31.72,48.11a1.77,1.77,0,0,0,2.09.2,1.31,1.31,0,0,0,.28-.2"/><path class="cls-1" d="M27.57,42.35a3,3,0,0,1-3,2.89h0V38.57"/><path class="cls-1" d="M39.72,60.11A9.49,9.49,0,0,0,21,62.48v1.19H24.6v7.71"/><path class="cls-1" d="M37.65,40.35V38a3,3,0,0,0-3-3H27.56a3,3,0,0,0-3,3v2.38"/><path class="cls-1" d="M31.13,35s-3.56,1.78-3.56,4.75"/><path class="cls-1" d="M31.13,35s3.56,1.78,3.56,4.75"/><path class="cls-1" d="M24.6,70.2V81.07a1,1,0,0,0,1,1h3.08a1,1,0,0,0,1-.94l.24-4.4a1.24,1.24,0,0,1,2.47,0l.24,4.4a1,1,0,0,0,1,.94h3.08a1,1,0,0,0,1-1V72"/><path class="cls-1" d="M39.43,89.76c0-2.12-2.08-3-3.91-3H33.89a1,1,0,0,0-1,1v1a1,1,0,0,0,1,1Z"/><path class="cls-1" d="M31.13,89.76c0-2.12-2.08-3-3.92-3H25.59a1,1,0,0,0-1,1v1a1,1,0,0,0,1,1Z"/><path class="cls-1" d="M24.6,74.35a1.78,1.78,0,0,1-3.56,0V63.67H24.6V74.35Z"/><line class="cls-1" x1="24.6" y1="63.67" x2="24.6" y2="60.11"/><path class="cls-1" d="M30.53,53a9.26,9.26,0,0,0-2.64.38l3.24,5.55,3-5.21A9.48,9.48,0,0,0,30.53,53Z"/><path class="cls-1" d="M35.81,54.6a9.64,9.64,0,0,0-1.65-.88l-3,5.21a10,10,0,0,1,4.76-2.28.5.5,0,0,0,.39-.65Z"/><path class="cls-1" d="M31.13,58.93l-3.24-5.55a9.19,9.19,0,0,0-1.18.43L26,56a.51.51,0,0,0,.39.65A10.07,10.07,0,0,1,31.13,58.93Z"/><line class="cls-1" x1="31.13" y1="58.93" x2="31.13" y2="61.89"/><polyline class="cls-1" points="37.65 71.98 24.6 71.98 24.6 69.6"/><rect class="cls-1" x="29.35" y="69.6" width="3.56" height="2.37"/><path class="cls-1" d="M24.6,40.35,26,42.15A1,1,0,0,0,27,42.5a20.5,20.5,0,0,1,10,0,1,1,0,0,0,1-.37,1,1,0,0,0,0-1.09l-.42-.7C35.28,39.17,29.35,39.17,24.6,40.35Z"/><path class="cls-1" d="M33.89,72a1,1,0,0,1-1-1V61.1a1,1,0,0,1,1-1h9.89a1,1,0,0,1,1,1V71"/><path class="cls-1" d="M44,69.39A1.78,1.78,0,0,0,40.81,71l.62,1.24a1,1,0,0,0,.58.49,1,1,0,0,0,.75-.06L44.17,72a1,1,0,0,0,.44-1.32Z"/><path class="cls-1" d="M40.12,65.45H37.55a.49.49,0,0,1-.49-.49V60.11h3.56V65A.5.5,0,0,1,40.12,65.45Z"/><path class="cls-1" d="M57.38,16.76H41.56A.93.93,0,0,0,41,17l7.5,4.5a2,2,0,0,0,2,0L58,17A.94.94,0,0,0,57.38,16.76Z"/><path class="cls-1" d="M58.37,26.45a1,1,0,0,1-1,1H41.56a1,1,0,0,1-1-1V17.74a1,1,0,0,1,1-1H57.38a1,1,0,0,1,1,1Z"/><path class="cls-1" d="M62.35,63.67H60V74.35a1.77,1.77,0,0,0,1.78,1.77"/><path class="cls-1" d="M62.35,87.22v-17h5.93"/><path class="cls-1" d="M70.67,87.21l-.56-10.49a1.24,1.24,0,0,0-2.47,0L67,88.16"/><path class="cls-1" d="M75.4,71.38V88.16"/><path class="cls-1" d="M60.57,89.76c0-2.12,2.08-3,3.91-3h2.61v2a1,1,0,0,1-1,1Z"/><path class="cls-1" d="M68.87,89.76c0-2.12,2.08-3,3.92-3H75.4v2a1,1,0,0,1-1,1Z"/><path class="cls-1" d="M74.8,43.91c1.7,0,1.58,3-.29,3h0A5.91,5.91,0,0,1,62.94,45.1v-3"/><path class="cls-2" d="M69.91,43.32a.74.74,0,1,0,.74.74.74.74,0,0,0-.74-.74Z"/><path class="cls-2" d="M65.46,43.32a.74.74,0,1,0,.74.74.74.74,0,0,0-.74-.74Z"/><path class="cls-1" d="M69.17,47.41a2.22,2.22,0,0,1-2.62.25,3.79,3.79,0,0,1-.35-.25"/><path class="cls-1" d="M62.94,42.13c-1.18-.59-.48-3.65.6-4.15l-.77-.62a1,1,0,0,1,.61-1.75h7.27a4.75,4.75,0,0,1,4.75,4.74v3.56c-3.56,0-3.49-2.8-6.53-3.56-.08.69-1,1.34-2.37,1.78a1.74,1.74,0,0,0-1.78-1.78Z"/><path class="cls-1" d="M62.35,71.38V63.67H60V62.48a9.49,9.49,0,0,1,19,0v1.19H75.4"/><line class="cls-1" x1="62.35" y1="63.67" x2="62.35" y2="60.11"/><line class="cls-1" x1="75.4" y1="63.67" x2="75.4" y2="60.11"/><path class="cls-1" d="M68.87,56.56a3,3,0,0,1-2.93-2.88,9.35,9.35,0,0,1,5.85-.38A3,3,0,0,1,68.87,56.56Z"/><path class="cls-1" d="M75.4,63.67v.59a5.34,5.34,0,0,1-4.75,5.34H69.47a1.78,1.78,0,0,0,0,3.56h1.18c3.92,0,8.31-3.8,8.31-8.9v-.59Z"/><line class="cls-1" x1="24.6" y1="69.6" x2="32.91" y2="69.6"/><path class="cls-1" d="M41.3,72H33.89"/></svg>