<svg id="Layer_1" data-name="Layer 1" xmlns="http://www.w3.org/2000/svg" viewBox="0 0 100 100"><defs><style>.cls-1{fill:none;stroke:#4550e5;stroke-linecap:round;stroke-linejoin:round;}.cls-2{fill:#4550e5;}</style></defs><title>public-speaker</title><g id="_Group_" data-name="&lt;Group&gt;"><path class="cls-1" d="M43.41,30.18v.58a1.34,1.34,0,0,0,.14,2.66,6.59,6.59,0,0,0,12.91,0,1.34,1.34,0,0,0,.14-2.66V28.29"/><path class="cls-1" d="M48.36,34.88a3,3,0,0,0,3.3,0"/><path class="cls-2" d="M47.53,29.92a.83.83,0,1,0,.83.83.83.83,0,0,0-.83-.83Z"/><path class="cls-2" d="M52.48,29.92a.83.83,0,0,0,0,1.65.83.83,0,0,0,0-1.65Z"/><path class="cls-1" d="M49.79,20.86a7.46,7.46,0,0,0-7,7.56v1.22a.55.55,0,0,0,.76.51c1.06-.43,2.87-1.45,2.87-3.37,2.63,2.55,7,2.4,10,1.59a1.09,1.09,0,0,0,.81-1.22A7.26,7.26,0,0,0,49.79,20.86Z"/></g><path class="cls-1" d="M65.06,51.87l-.85-8.16a3.67,3.67,0,0,0-3.75-3.28"/><path class="cls-1" d="M57.59,39.22h2.32a.55.55,0,0,1,.55.55v1.1a.55.55,0,0,1-.55.55H57.59a1.11,1.11,0,0,1,0-2.2Z"/><path class="cls-1" d="M34.94,51.87l.87-8.16a3.66,3.66,0,0,1,3.74-3.28"/><path class="cls-1" d="M42.42,39.22H40.1a.55.55,0,0,0-.55.55v1.1a.55.55,0,0,0,.55.55h2.32a1.11,1.11,0,0,0,0-2.2Z"/><path class="cls-1" d="M55,50.73l-.78,1.14"/><path class="cls-1" d="M51.77,51.87l2.94-10.16"/><path class="cls-1" d="M45.05,50.73l.78,1.14"/><path class="cls-1" d="M40.19,47c-.78,1.61-1.33,3.31-1.92,4.83"/><path class="cls-1" d="M25.37,20,17.92,41.71a2.65,2.65,0,0,0,.42,2.49l7.17,9.08a2.64,2.64,0,0,0,3.94.23l1.86-1.86Z"/><path class="cls-1" d="M18.34,44.2l7.17,9.08a2.64,2.64,0,0,0,3.94.23l0,0L18.6,39.72l-.68,2A2.65,2.65,0,0,0,18.34,44.2Z"/><polygon class="cls-1" points="19.63 36.72 31.27 51.47 30.21 45.81 20.66 33.71 19.63 36.72"/><polygon class="cls-1" points="25.37 19.98 21.69 30.71 29.15 40.16 25.37 19.98"/><line class="cls-1" x1="25.26" y1="52.96" x2="25.26" y2="62.2"/><path class="cls-1" d="M26.69,18.66a1.32,1.32,0,1,1-1.32-1.32A1.32,1.32,0,0,1,26.69,18.66Z"/><polygon class="cls-1" points="23.98 37.92 27.5 31.34 25.37 19.98 20.66 33.71 23.98 37.92"/><path class="cls-1" d="M28.47,64.63a3.56,3.56,0,0,0-3.21-2.42,3.56,3.56,0,0,0-3.21,2.42,1.09,1.09,0,0,0,1,1.53h4.4a1.1,1.1,0,0,0,.92-.49A1.13,1.13,0,0,0,28.47,64.63Z"/><path class="cls-1" d="M74.63,20l7.45,21.73a2.65,2.65,0,0,1-.42,2.49l-7.17,9.08a2.64,2.64,0,0,1-3.94.23l-1.86-1.86Z"/><path class="cls-1" d="M81.66,44.2l-7.17,9.08a2.64,2.64,0,0,1-3.94.23l0,0L81.4,39.72l.68,2A2.65,2.65,0,0,1,81.66,44.2Z"/><polygon class="cls-1" points="80.37 36.72 68.73 51.47 69.79 45.81 79.34 33.71 80.37 36.72"/><polygon class="cls-1" points="74.63 19.98 78.31 30.71 70.85 40.16 74.63 19.98"/><line class="cls-1" x1="74.74" y1="52.96" x2="74.74" y2="62.2"/><path class="cls-1" d="M73.31,18.66a1.32,1.32,0,1,0,1.32-1.32A1.32,1.32,0,0,0,73.31,18.66Z"/><polygon class="cls-1" points="76.02 37.92 72.5 31.34 74.63 19.98 79.34 33.71 76.02 37.92"/><path class="cls-1" d="M71.53,64.63a3.34,3.34,0,0,1,6.42,0,1.09,1.09,0,0,1-1,1.53h-4.4a1.1,1.1,0,0,1-.92-.49A1.13,1.13,0,0,1,71.53,64.63Z"/><path class="cls-1" d="M33.66,61.22h-1.8a2.2,2.2,0,0,1-2.2-2.2h0a2.19,2.19,0,0,1,2.2-2.2h1.8"/><path class="cls-1" d="M66.35,61.22h1.79a2.2,2.2,0,0,0,2.2-2.2h0a2.19,2.19,0,0,0-2.2-2.2H66.35"/><path class="cls-1" d="M33.51,56.38a7.47,7.47,0,0,1,0,5.27"/><path class="cls-1" d="M61.78,51.87c-.61-1.54-1.16-3.28-2-4.92-1.57-3.24-4.08-6.08-9.81-6.08S41.76,43.71,40.19,47"/><path class="cls-1" d="M62.88,60.86a8.33,8.33,0,0,0,3.62.79,7.47,7.47,0,0,1,0-5.27"/><path class="cls-1" d="M42.85,64v12.1"/><path class="cls-1" d="M57.15,76.06V64"/><path class="cls-1" d="M54.71,41.71a12.09,12.09,0,0,0-4.7-.84,12.1,12.1,0,0,0-4.71.84l2.94,10.16"/><path class="cls-1" d="M45.3,41.71a8.86,8.86,0,0,0-3.57,2.73l3.32,3v3.3"/><path class="cls-1" d="M54.71,41.71a8.86,8.86,0,0,1,3.57,2.73l-3.33,3v3.3"/><polyline class="cls-1" points="51.97 51.21 50.01 40.87 48.05 51.21 48.24 51.87"/><polyline class="cls-1" points="53.54 45.78 50.01 40.87 46.47 45.78"/><path class="cls-1" d="M61.55,78.81H38.45a1.1,1.1,0,0,0-1.1,1.1v1.65a1.11,1.11,0,0,0,1.1,1.1h23.1a1.1,1.1,0,0,0,1.09-1.1V79.91A1.09,1.09,0,0,0,61.55,78.81Z"/><path class="cls-1" d="M54.76,64h6.33a1.1,1.1,0,0,0,1-.75l2.39-7.49h-29l2.39,7.49a1.1,1.1,0,0,0,1,.75"/><path class="cls-1" d="M57.15,76.06H42.85a1.1,1.1,0,0,0-1.1,1.1v1.65h16.5V77.16A1.1,1.1,0,0,0,57.15,76.06Z"/><path class="cls-1" d="M65.06,51.87H34.94a1.93,1.93,0,1,0,0,3.85H65.06a1.93,1.93,0,1,0,0-3.85Z"/><polyline class="cls-1" points="45.46 64.31 46.53 76.06 53.47 76.06 54.54 64.31"/><path class="cls-1" d="M50,55.72a5.5,5.5,0,1,1-5.5,5.5A5.5,5.5,0,0,1,50,55.72Z"/><path class="cls-1" d="M50,58.47a2.75,2.75,0,1,1-2.75,2.75A2.75,2.75,0,0,1,50,58.47Z"/><path class="cls-1" d="M38.91,64h6.33"/><path class="cls-1" d="M33.51,61.65a8.45,8.45,0,0,0,3.61-.78"/><path class="cls-1" d="M57.15,67.59V64"/><path class="cls-1" d="M35.53,55.86a3.88,3.88,0,0,1-2,.52"/><path class="cls-1" d="M66.5,56.38a3.79,3.79,0,0,1-2-.53"/></svg>