<svg id="Layer_1" data-name="Layer 1" xmlns="http://www.w3.org/2000/svg" viewBox="0 0 100 100"><defs><style>.cls-1{fill:none;stroke:#4550e5;stroke-linecap:round;stroke-linejoin:round;}</style></defs><title>reggae-male</title><path class="cls-1" d="M78.33,52a1.09,1.09,0,0,0,.11-1.14A11.36,11.36,0,0,1,77,45.51"/><path class="cls-1" d="M74.85,46.84a12,12,0,0,0,.33,1.78"/><path class="cls-1" d="M79,43a48.13,48.13,0,0,1,1,6.9,1.1,1.1,0,0,0,1.13,1h.08a1.1,1.1,0,0,0,1-1.2c-.37-3.84-.77-7-1.87-9.63"/><path class="cls-1" d="M82.27,38.14A2.16,2.16,0,0,0,83,36.53a2.2,2.2,0,0,0-2.2-2.2V31.58a10.72,10.72,0,0,0-.18-2,127.46,127.46,0,0,1,5,11.94,46.89,46.89,0,0,1,1.25,7.83,1.1,1.1,0,0,1-1,1.17h-.08a1.1,1.1,0,0,1-1.1-1,44.42,44.42,0,0,0-1.16-7.38"/><path class="cls-1" d="M61.23,52a1.09,1.09,0,0,1-.11-1.14,11.36,11.36,0,0,0,1.46-5.39"/><path class="cls-1" d="M64.71,46.84a11.66,11.66,0,0,1-.33,1.77"/><path class="cls-1" d="M60.54,43a47.91,47.91,0,0,0-1,6.9,1.1,1.1,0,0,1-1.13,1h-.07a1.1,1.1,0,0,1-1-1.2c.37-3.85.77-7.06,1.88-9.65"/><path class="cls-1" d="M56.58,36.53a2.19,2.19,0,0,1,2.2-2.2V31.58a10.72,10.72,0,0,1,.18-2c-1.46,3.17-4.34,9.52-5,11.94a46.89,46.89,0,0,0-1.25,7.83,1.1,1.1,0,0,0,1,1.17h.08a1.1,1.1,0,0,0,1.1-1,44.42,44.42,0,0,1,1.16-7.38,39,39,0,0,1,1.45-3.82A2.19,2.19,0,0,1,56.58,36.53Z"/><path class="cls-1" d="M74.36,53.34,73.61,58A3.88,3.88,0,0,1,66,58"/><path class="cls-1" d="M79,52.47v0c-.93,4.86-2.59,10.18,1.19,16.49v6"/><path class="cls-1" d="M60.52,52.47c.92,4.85,2.6,10.17-1.19,16.51v6"/><line class="cls-1" x1="59.33" y1="65.13" x2="59.33" y2="75.03"/><line class="cls-1" x1="80.23" y1="65.13" x2="80.23" y2="75.03"/><path class="cls-1" d="M73.63,50.18V47.39"/><line class="cls-1" x1="86.83" y1="66.78" x2="86.83" y2="75.03"/><line class="cls-1" x1="52.73" y1="75.03" x2="52.73" y2="66.78"/><path class="cls-1" d="M65.93,47.35v2.83"/><path class="cls-1" d="M65.2,54c0-1.49-.18-2.42.73-3.82V48C63.47,48,63,51.55,63,54c0,5.53,1.8,12.46,4.4,15.24"/><path class="cls-1" d="M76.56,54c0-2.45-.47-6-2.93-6v2.23c.91,1.4.73,2.33.73,3.82,0,6.63-2.37,12.51-3.93,14"/><circle class="cls-1" cx="69.78" cy="70.63" r="2.75"/><path class="cls-1" d="M86.72,64.85a4.38,4.38,0,0,1-1.54.27,5.25,5.25,0,0,1-5-5.5,5.69,5.69,0,0,1,2-4.44"/><path class="cls-1" d="M86.34,62.67a2.84,2.84,0,0,1-1.16.25,3.14,3.14,0,0,1-3-3.3,3.4,3.4,0,0,1,1.4-2.8"/><line class="cls-1" x1="59.33" y1="70.63" x2="55.48" y2="70.63"/><line class="cls-1" x1="59.33" y1="72.83" x2="55.48" y2="72.83"/><path class="cls-1" d="M83,36.53a2.2,2.2,0,0,0-2.2-2.2V31.58"/><path class="cls-1" d="M59,29.6a10.8,10.8,0,0,0-.18,2v2.75a2.2,2.2,0,0,0,0,4.4h.13a11,11,0,0,0,21.6.72"/><path class="cls-1" d="M79.5,42.21a0,0,0,0,0,0,0,17.19,17.19,0,0,1-4.81,3,9.11,9.11,0,0,0-.27-3.4,1.9,1.9,0,0,0-1.86-1.42H67a1.9,1.9,0,0,0-1.86,1.42,9.11,9.11,0,0,0-.27,3.4,17.19,17.19,0,0,1-4.81-3v0m9.72,5.88M71,46.22c-.4.08-.82.14-1.25.19s-.85-.11-1.25-.19A2.2,2.2,0,0,1,66.77,44c0-.39.13-1.42.53-1.42h5c.41,0,.54,1,.54,1.42A2.21,2.21,0,0,1,71,46.22Z"/><line class="cls-1" x1="68.6" y1="32.15" x2="70.96" y2="32.15"/><line class="cls-1" x1="68.32" y1="33.8" x2="71.24" y2="33.8"/><circle class="cls-1" cx="81.33" cy="38.71" r="1.1"/><path class="cls-1" d="M63.39,38.18a3.34,3.34,0,0,1-3.5-3.59,3.26,3.26,0,0,1,3.29-3h5.5C68.41,33.2,68.21,38.18,63.39,38.18Z"/><path class="cls-1" d="M76.17,38.18a3.34,3.34,0,0,0,3.5-3.59,3.26,3.26,0,0,0-3.29-3h-5.5C71.15,33.2,71.35,38.18,76.17,38.18Z"/><polyline class="cls-1" points="70.88 22.92 70.88 26.08 68.68 26.08 68.68 22.92"/><line class="cls-1" x1="66.81" y1="23.76" x2="67.1" y2="25.99"/><line class="cls-1" x1="72.53" y1="26.08" x2="72.82" y2="23.81"/><path class="cls-1" d="M74.51,26.08H65.05"/><path class="cls-1" d="M64.33,29.38h10.9"/><path class="cls-1" d="M81.5,28.14c-.58-5.49-4.88-10.22-11.72-10.31-6.84.09-11.14,4.82-11.72,10.31a1.12,1.12,0,0,0,1.1,1.24h5.31c0-4.4,2.43-6.51,5.31-6.6,2.87.09,5.31,2.17,5.31,6.6H80.4A1.12,1.12,0,0,0,81.5,28.14Z"/><path class="cls-1" d="M82.27,38.14A2.16,2.16,0,0,0,83,36.53"/><path class="cls-1" d="M83.51,42.14c-.2-.71-.62-1.81-1.14-3.08"/><path class="cls-1" d="M72.16,69.24c2.6-2.78,4.4-9.71,4.4-15.24"/><path class="cls-1" d="M69.13,68c-1.56-1.44-3.93-7.32-3.93-14"/><path class="cls-1" d="M66,58l-.76-4.76"/><path class="cls-1" d="M63.3,51l0,0h0a16.07,16.07,0,0,0-2,1c-.24.14-.47.29-.7.44a17,17,0,0,0-5.06,5"/><path class="cls-1" d="M86.83,66.78A17,17,0,0,0,76.29,51"/><path class="cls-1" d="M52.73,80a2.21,2.21,0,0,1-2.2,2.2H15.33a2.2,2.2,0,0,1-2.2-2.2V61.82h39.6Z"/><line class="cls-1" x1="37.33" y1="82.17" x2="28.53" y2="82.17"/><line class="cls-1" x1="28.53" y1="61.82" x2="37.33" y2="61.82"/><path class="cls-1" d="M52.73,61.82H13.13V58a2.19,2.19,0,0,1,2.2-2.2h35.2a2.2,2.2,0,0,1,2.2,2.2Z"/><path class="cls-1" d="M50,61.82H15.88v-2.2a1.1,1.1,0,0,1,1.1-1.1h31.9a1.1,1.1,0,0,1,1.1,1.1Z"/><circle class="cls-1" cx="20.83" cy="72.82" r="5.5"/><circle class="cls-1" cx="20.83" cy="72.82" r="2.2"/><circle class="cls-1" cx="45.03" cy="72.82" r="5.5"/><circle class="cls-1" cx="45.03" cy="72.82" r="2.2"/><rect class="cls-1" x="28.53" y="66.22" width="8.8" height="4.95"/><line class="cls-1" x1="30.73" y1="74.47" x2="35.13" y2="74.47"/><line class="cls-1" x1="30.73" y1="76.67" x2="35.13" y2="76.67"/><line class="cls-1" x1="30.73" y1="78.87" x2="35.13" y2="78.87"/><path class="cls-1" d="M17,55.77v-5a1.1,1.1,0,0,1,1.1-1.1h.55"/><path class="cls-1" d="M48.88,55.77v-5a1.1,1.1,0,0,0-1.1-1.1h-.55"/><path class="cls-1" d="M47.78,49.44a1.38,1.38,0,0,1-1.38,1.38H19.45a1.38,1.38,0,0,1,0-2.75h27A1.37,1.37,0,0,1,47.78,49.44Z"/><path class="cls-1" d="M46.68,55.77h-5v-1.1a1.1,1.1,0,0,1,1.1-1.1h2.75a1.1,1.1,0,0,1,1.1,1.1Z"/><path class="cls-1" d="M22.48,55.77h-2.2v-1.1a1.1,1.1,0,0,1,2.2,0Z"/><path class="cls-1" d="M26.88,55.77h-2.2v-1.1a1.1,1.1,0,1,1,2.2,0Z"/><path class="cls-1" d="M31.28,55.77h-2.2v-1.1a1.1,1.1,0,0,1,2.2,0Z"/><line class="cls-1" x1="42.28" y1="60.35" x2="42.28" y2="61.82"/><rect class="cls-1" x="13.13" y="61.82" width="39.6" height="2.2"/><line class="cls-1" x1="28.53" y1="82.17" x2="28.53" y2="64.27"/><line class="cls-1" x1="37.33" y1="64.02" x2="37.33" y2="82.17"/></svg>