<svg id="Layer_1" data-name="Layer 1" xmlns="http://www.w3.org/2000/svg" viewBox="0 0 100 100"><defs><style>.cls-1{fill:none;stroke:#4550e5;stroke-linecap:round;stroke-linejoin:round;}.cls-2{fill:#4550e5;}</style></defs><title>robot-hand</title><path class="cls-1" d="M54.8,47l.75-4.49a2.28,2.28,0,0,0-.73-2.34c-1.64-1-18.83-1.53-18,4.14l1.29,8.56a2.72,2.72,0,0,0,2.69,2.32h1.8"/><path class="cls-1" d="M49.29,55.16h1.84a2.73,2.73,0,0,0,2.69-2.27l.2-1.26"/><path class="cls-1" d="M52.08,60.6a2.72,2.72,0,0,0-2.72-2.72h-6.8a2.72,2.72,0,0,0-2.73,2.72Z"/><path class="cls-1" d="M55.22,44.39a5.41,5.41,0,0,0-2,9.82,2.71,2.71,0,0,0,.64-1.46"/><path class="cls-1" d="M49.36,54.48a3.4,3.4,0,1,1-3.4-3.4A3.4,3.4,0,0,1,49.36,54.48Z"/><rect class="cls-1" x="50.72" y="29.32" width="4.08" height="5.44"/><path class="cls-1" d="M54.8,29.32H50.72v-2a2,2,0,1,1,4.08,0v2Z"/><rect class="cls-1" x="43.72" y="28.03" width="4.08" height="5.44" transform="matrix(1, -0.1, 0.1, 1, -2.79, 4.62)"/><path class="cls-1" d="M47.53,27.87l-4.07.39-.19-2a2,2,0,1,1,4.06-.4Z"/><polygon class="cls-1" points="37.5 38.97 33.94 40.97 32.32 38 35.88 36 37.5 38.97"/><path class="cls-1" d="M35.88,36l-3.56,2-1-1.77a2,2,0,1,1,3.56-2Z"/><rect class="cls-1" x="37.57" y="30.72" width="4.08" height="4.57" transform="translate(-7.09 11.16) rotate(-14.74)"/><path class="cls-1" d="M41,30.3l-4,1-.51-2a2,2,0,1,1,3.94-1Z"/><path class="cls-1" d="M54.8,40.13V34.76H50.72v4.78A13.06,13.06,0,0,1,54.8,40.13Z"/><path class="cls-2" d="M40.51,43.6a.68.68,0,0,0,0,1.36.68.68,0,1,0,0-1.36Z"/><path class="cls-2" d="M51.4,41.56a.68.68,0,0,0,0,1.36.68.68,0,0,0,0-1.36Z"/><path class="cls-2" d="M40.51,49a.68.68,0,0,0,0,1.36.68.68,0,1,0,0-1.36Z"/><path class="cls-1" d="M56.84,46.32a3.35,3.35,0,0,0-3.4,3.4,3.4,3.4,0,0,0,3.4,3.4c1.74,0,4.13-2,6.75-4.5l-3.33-3.34A7.93,7.93,0,0,1,56.84,46.32Z"/><path class="cls-1" d="M68.46,44.15a1.33,1.33,0,0,0,.46-1.25,1.34,1.34,0,0,0-.83-1,4.08,4.08,0,0,0-4.06.59c-.21.22-.43.42-.64.62l3,3C67.05,45.38,67.76,44.75,68.46,44.15Z"/><path class="cls-1" d="M63.39,43.06a15.29,15.29,0,0,1-3.13,2.22l3.33,3.34L66.35,46Z"/><path class="cls-1" d="M48.84,39.51l-.78-6.23-4.06.4.55,6.07A39.23,39.23,0,0,1,48.84,39.51Z"/><path class="cls-1" d="M43.67,39.86l-1.52-5.14-3.94,1,1.56,5A18.74,18.74,0,0,1,43.67,39.86Z"/><path class="cls-1" d="M36.84,44.28c-.2-1.34.62-2.33,2-3.06L37.5,39l-3.56,2,3.24,5.57Z"/><path class="cls-1" d="M54.36,63.05a2.72,2.72,0,0,0-2.7-2.45H40.26a2.72,2.72,0,0,0-2.71,2.45l-1,10.36a1,1,0,0,0,.68,1.08,26.11,26.11,0,0,0,17.53,0,1,1,0,0,0,.68-1.08Z"/><path class="cls-1" d="M46,54a.51.51,0,0,1,.51.52A.52.52,0,1,1,46,54Z"/></svg>