<svg id="Layer_1" data-name="Layer 1" xmlns="http://www.w3.org/2000/svg" viewBox="0 0 100 100"><defs><style>.cls-1{fill:none;stroke:#4550e5;stroke-linecap:round;stroke-linejoin:round;}</style></defs><title>ship</title><polyline class="cls-1" points="29.51 47.88 38.05 47.88 38.05 51.46"/><rect class="cls-1" x="29.51" y="43.89" width="8.54" height="3.98"/><path class="cls-1" d="M29.51,43.89h8.54V40.48a.56.56,0,0,0-.57-.57h-7.4a.57.57,0,0,0-.57.57Z"/><path class="cls-1" d="M73.34,51.86H59.68V31.37H70a1.15,1.15,0,0,1,.88.41l2.5,3Z"/><rect class="cls-1" x="73.34" y="47.88" width="8.54" height="3.99"/><rect class="cls-1" x="73.34" y="43.89" width="8.54" height="3.98"/><rect class="cls-1" x="73.34" y="39.91" width="8.54" height="3.98"/><path class="cls-1" d="M73.34,39.91h8.54V36.49a.58.58,0,0,0-.57-.57h-8Z"/><rect class="cls-1" x="48.86" y="47.88" width="8.54" height="3.99"/><rect class="cls-1" x="48.86" y="43.89" width="8.54" height="3.98"/><rect class="cls-1" x="48.86" y="39.91" width="8.54" height="3.98"/><path class="cls-1" d="M48.86,39.91H57.4V36.49a.57.57,0,0,0-.57-.57h-7.4a.58.58,0,0,0-.57.57Z"/><rect class="cls-1" x="40.33" y="47.88" width="8.54" height="3.99"/><rect class="cls-1" x="40.33" y="43.89" width="8.54" height="3.98"/><path class="cls-1" d="M40.33,43.89h8.53v-4h-8a.56.56,0,0,0-.57.57Z"/><rect class="cls-1" x="22.68" y="40.48" width="2.28" height="7.4"/><path class="cls-1" d="M30.65,47.88H25v-4h1.23a1.14,1.14,0,0,1,.81.33"/><path class="cls-1" d="M25,38.2H22.68a1.14,1.14,0,0,0-1.14,1.14h0a1.14,1.14,0,0,0,1.14,1.14H25a1.14,1.14,0,0,0,1.14-1.14h0A1.14,1.14,0,0,0,25,38.2Z"/><rect class="cls-1" x="57.4" y="27.95" width="11.39" height="3.42"/><path class="cls-1" d="M65.3,22.83H63.09A1.14,1.14,0,0,0,62,24v1.71h5.7l-1.38-2.3A1.12,1.12,0,0,0,65.3,22.83Z"/><path class="cls-1" d="M59.68,33.65H58.54a1.14,1.14,0,0,1-1.14-1.14V31.37h2.28Z"/><path class="cls-1" d="M67.65,25.68H58.54a1.14,1.14,0,0,0-1.14,1.13V28H68.79V26.81A1.14,1.14,0,0,0,67.65,25.68Z"/><path class="cls-1" d="M18.34,58.09a43.4,43.4,0,0,0-3-4.31l-3.2-4.06a1.14,1.14,0,0,1,.9-1.84H32.21a2.23,2.23,0,0,1,1.3.41l5.11,3.57H84.15v5.42a2.27,2.27,0,0,1-1.25,2l-7.78,3.89"/><line class="cls-1" x1="73.34" y1="34.78" x2="73.34" y2="26.81"/><line class="cls-1" x1="63.09" y1="22.83" x2="63.09" y2="18.85"/><line class="cls-1" x1="21.54" y1="39.34" x2="13.01" y2="47.88"/><line class="cls-1" x1="62.53" y1="42.75" x2="62.53" y2="45.6"/><line class="cls-1" x1="73.34" y1="39.34" x2="73.34" y2="36.49"/><line class="cls-1" x1="62.53" y1="49.01" x2="62.53" y2="51.86"/><line class="cls-1" x1="73.34" y1="45.6" x2="73.34" y2="42.75"/><rect class="cls-1" x="62.53" y="36.49" width="10.82" height="2.84"/><rect class="cls-1" x="62.53" y="42.75" width="10.82" height="2.85"/><rect class="cls-1" x="62.53" y="49.01" width="10.82" height="2.85"/><path class="cls-1" d="M18.27,58.09l3.45,5.74"/><path class="cls-1" d="M81.81,59.83H38.62l-6-3.9a2.28,2.28,0,0,0-1.24-.37H16.61"/><line class="cls-1" x1="61.39" y1="27.95" x2="61.39" y2="31.37"/><line class="cls-1" x1="65.37" y1="27.95" x2="65.37" y2="31.37"/><path class="cls-1" d="M5.6,62.21c2.78,0,2.78,1.78,5.55,1.78s2.77-1.78,5.55-1.78S19.47,64,22.25,64,25,62.21,27.8,62.21,30.57,64,33.34,64s2.77-1.78,5.55-1.78S41.66,64,44.43,64s2.78-1.78,5.55-1.78S52.75,64,55.53,64s2.77-1.78,5.55-1.78S63.85,64,66.63,64s2.77-1.78,5.55-1.78S75,64,77.73,64s2.78-1.78,5.55-1.78S86.06,64,88.84,64s2.78-1.78,5.56-1.78"/><path class="cls-1" d="M21.15,70.71c2.78,0,2.78-1.78,5.55-1.78s2.77,1.78,5.55,1.78S35,68.93,37.8,68.93s2.77,1.78,5.54,1.78,2.77-1.78,5.55-1.78,2.77,1.78,5.54,1.78"/><path class="cls-1" d="M37.67,81.15c2.77,0,2.77-1.77,5.55-1.77s2.77,1.77,5.54,1.77,2.77-1.77,5.55-1.77,2.77,1.77,5.54,1.77"/><path class="cls-1" d="M78.21,73.47c-2.77,0-2.77,1.78-5.54,1.78s-2.77-1.78-5.55-1.78-2.77,1.78-5.54,1.78"/><path class="cls-1" d="M81.88,38.2H83a1.13,1.13,0,0,1,1.13,1.14V51.86H81.88Z"/><path class="cls-1" d="M27,44.22l2.51,2.52"/><line class="cls-1" x1="68.43" y1="39.34" x2="62.53" y2="42.75"/><line class="cls-1" x1="67.6" y1="42.66" x2="73.34" y2="39.34"/><line class="cls-1" x1="68.06" y1="45.81" x2="62.53" y2="49.01"/><line class="cls-1" x1="67.44" y1="49.01" x2="73.34" y2="45.6"/></svg>