<svg id="Layer_1" data-name="Layer 1" xmlns="http://www.w3.org/2000/svg" viewBox="0 0 100 100"><defs><style>.cls-1,.cls-2{fill:none;stroke:#4550e5;stroke-linejoin:round;}.cls-1{stroke-linecap:round;}</style></defs><title>statue-of-liberty</title><polyline class="cls-1" points="64.04 57.33 65.53 57.33 66.88 57.33 68.23 57.33 69.71 57.33"/><path class="cls-1" d="M69.71,53.06V50.61A1.2,1.2,0,0,0,68.5,49.4H65.25A1.21,1.21,0,0,0,64,50.61v2.45"/><path class="cls-1" d="M39.45,17.11,35.79,19l-1.13-3.93a.38.38,0,0,0-.72,0L32.77,19l-3.42-2.07a.37.37,0,0,0-.54.46l1.74,4.33a3.85,3.85,0,0,1,7.1.18L40,17.62A.38.38,0,0,0,39.45,17.11Z"/><path class="cls-1" d="M23.37,15.51,23,18.25a1.17,1.17,0,0,0-.64-.18H20.89a3.25,3.25,0,0,0-1.87.59l-.4-3.15Z"/><path class="cls-1" d="M23,18.25a1.2,1.2,0,0,1,.55.81c.31,1.68,1,5.3,1.69,9.09l-3.41,6a4.25,4.25,0,0,0-.21.43l-.27-.26a6.18,6.18,0,0,1-1.8-4.35V24.28A3.24,3.24,0,0,1,19,18.66"/><path class="cls-1" d="M29.8,30.69l.34-6v-.15s0,0,0,0,0,0,0,0l0-.72,0-.71a3.5,3.5,0,0,1,.34-1.36,4.67,4.67,0,0,1,.27-.49s0,0,0,0a2.55,2.55,0,0,1,.29-.38,4.44,4.44,0,0,1,.37-.38l0,0a3.56,3.56,0,0,1,.42-.32,3.37,3.37,0,0,1,.46-.25l0,0a2.05,2.05,0,0,1,.49-.18,2.54,2.54,0,0,1,.37-.1h.06a1.65,1.65,0,0,1,.32,0l.37,0,.64.06h0a2.44,2.44,0,0,1,.5.12,4.87,4.87,0,0,1,.53.21,2.64,2.64,0,0,1,.46.27l.07.05a2.44,2.44,0,0,1,.4.32h0c.13.14.26.27.37.41a4,4,0,0,1,.58,1,4.22,4.22,0,0,1,.27,1.19l0,.44.06.85v.12l.41,7.47h0"/><path class="cls-1" d="M38.41,31.94,26.3,45.56a2.34,2.34,0,0,0-.33.51l-4.37-8.8a3.81,3.81,0,0,1,0-2.72,4.25,4.25,0,0,1,.21-.43l3.41-6,.24-.42a.88.88,0,0,1,1.41-.15l1.52,1.68.9,1a4,4,0,0,0,.47.45,4.3,4.3,0,0,0,.93.59,4.67,4.67,0,0,0,1.93.45Z"/><path class="cls-1" d="M41.2,33.28v0h0a.16.16,0,0,0-.09,0Z"/><path class="cls-1" d="M42,55.33V68.71H26.36v-.22L36.68,60.4c.13-.09.25-.19.38-.3L39.69,58A6.06,6.06,0,0,0,42,55.33Z"/><path class="cls-1" d="M43.75,48.78,42.56,50V47.53l.8.94A1.16,1.16,0,0,0,43.75,48.78Z"/><path class="cls-1" d="M46.15,38.19l-3.61,3.05c0-.9-.06-1.81-.14-2.72l-.35-3.8a1.87,1.87,0,0,0-.85-1.42,4.86,4.86,0,0,1,1.48,1.14Z"/><path class="cls-1" d="M38,24.28a5.75,5.75,0,0,1-3,5.19h0a2,2,0,0,1-1.83,0h0a5.73,5.73,0,0,1-3-5.19"/><line class="cls-1" x1="19.58" y1="24.28" x2="21.61" y2="24.28"/><path class="cls-1" d="M22.84,11.15a2.45,2.45,0,0,0,.46-.82L24,8.59l-1.41-.43.52-3.37L19.43,7.9h0A2.36,2.36,0,0,0,21.06,12a2.34,2.34,0,0,0,1.75-.79h0Z"/><path class="cls-1" d="M30.16,23.78a7.11,7.11,0,0,1,3.91-1.38A8.11,8.11,0,0,1,38,23.51"/><path class="cls-1" d="M52,44.55A1.79,1.79,0,0,1,51.27,46L49,47.71a1.82,1.82,0,0,1-2.52-.31l0,0a1.81,1.81,0,0,1-.37-1v-.06a1.78,1.78,0,0,1,.71-1.44l1-.74,1.29-1a1.8,1.8,0,0,1,2.33.12.87.87,0,0,1,.21.22A1.8,1.8,0,0,1,52,44.55Z"/><line class="cls-1" x1="28.44" y1="29.26" x2="24.97" y2="35.35"/><line class="cls-1" x1="30.72" y1="31.28" x2="28.31" y2="35.52"/><line class="cls-1" x1="24.97" y1="39.71" x2="23.96" y2="41.48"/><line class="cls-1" x1="39.2" y1="68.71" x2="39.2" y2="61.65"/><line class="cls-1" x1="34.01" y1="68.71" x2="34.01" y2="65.36"/><path class="cls-1" d="M19.84,72v-2.1A1.21,1.21,0,0,1,21,68.71H45.1a1.22,1.22,0,0,1,1.21,1.21V72"/><line class="cls-1" x1="32.3" y1="76.98" x2="31.26" y2="76.98"/><line class="cls-1" x1="20.54" y1="76.98" x2="19.84" y2="76.98"/><line class="cls-1" x1="44.07" y1="76.98" x2="43.03" y2="76.98"/><polyline class="cls-1" points="20.54 76.98 19.84 76.98 19.5 76.98"/><path class="cls-1" d="M17.11,76.08V73.23A1.2,1.2,0,0,1,18.32,72H47.84a1.21,1.21,0,0,1,1.21,1.21v1.89"/><line class="cls-1" x1="32.3" y1="76.98" x2="31.26" y2="76.98"/><line class="cls-1" x1="44.07" y1="76.98" x2="43.03" y2="76.98"/><line class="cls-1" x1="79.39" y1="76.98" x2="78.35" y2="76.98"/><path class="cls-1" d="M83.19,75.34V73.23A1.2,1.2,0,0,0,82,72H59.42a1.2,1.2,0,0,0-1.21,1.21v2.86"/><line class="cls-1" x1="67.62" y1="76.98" x2="66.58" y2="76.98"/><path class="cls-2" d="M70.63,31.07A2.1,2.1,0,0,0,68.53,29a2,2,0,0,0-.75.14,3.48,3.48,0,0,0-6.88,0,2.1,2.1,0,1,0-.75,4.05h8.38A2.1,2.1,0,0,0,70.63,31.07Z"/><path class="cls-1" d="M64.92,53.07H63.17a.6.6,0,0,0-.6.6v3.66h2.95V53.67A.6.6,0,0,0,64.92,53.07Z"/><path class="cls-1" d="M70.59,53.07H68.84a.6.6,0,0,0-.61.6v3.66h3V53.67A.6.6,0,0,0,70.59,53.07Z"/><polyline class="cls-1" points="61.8 72.02 63.87 72.02 69.91 72.02 71.98 72.02"/><path class="cls-1" d="M72,66.54v-8a1.2,1.2,0,0,0-1.21-1.2H63a1.2,1.2,0,0,0-1.2,1.2v8"/><path class="cls-1" d="M81.29,72H74.13l.68-16A1.2,1.2,0,0,1,76,54.85h3.4A1.21,1.21,0,0,1,80.61,56Z"/><path class="cls-1" d="M52.39,42.39l-1,.84a1.8,1.8,0,0,0-2.33-.12l-1.29,1-1,.74a1.78,1.78,0,0,0-.71,1.44v.06a1.81,1.81,0,0,0,.37,1l0,0-1.44,1.22a1.21,1.21,0,0,1-1.3.16,1.16,1.16,0,0,1-.39-.31l-.8-.94-2.33-2.74a1.21,1.21,0,0,1,.13-1.7l2.18-1.85,3.61-3.05,1.56-1.33a1.22,1.22,0,0,1,1.7.14l3.13,3.69A1.21,1.21,0,0,1,52.39,42.39Z"/><path class="cls-1" d="M42.56,50V47.53l-2.33-2.74a1.21,1.21,0,0,1,.13-1.7l2.18-1.85c0-.9-.06-1.81-.14-2.72l-.35-3.8a1.87,1.87,0,0,0-.85-1.42h0a.16.16,0,0,0-.09,0,.37.37,0,0,0-.12-.07l-2.56-1.24h0L26.3,45.56a2.34,2.34,0,0,0-.33.51,2.15,2.15,0,0,0-.23.91l-.13,4.55h0a2,2,0,0,0-.13.25.91.91,0,0,0-.09.17,1,1,0,0,0-.05.16,2.75,2.75,0,0,0-.11.41,3,3,0,0,0,0,.52,2.44,2.44,0,0,0,0,.27V67.87a.78.78,0,0,0,.7.84.64.64,0,0,0,.31-.09l.16-.13L36.68,60.4c.13-.09.25-.19.38-.3L39.69,58A6.06,6.06,0,0,0,42,55.33"/><path class="cls-1" d="M42.56,50v2.37a7.73,7.73,0,0,1-.6,3"/><line class="cls-1" x1="41.2" y1="33.3" x2="41.2" y2="33.28"/><line class="cls-1" x1="41.19" y1="33.3" x2="37.29" y2="37.65"/><line class="cls-1" x1="28.83" y1="54.56" x2="35.1" y2="47.97"/><path class="cls-1" d="M39.29,41V54.89a6.91,6.91,0,0,1-2.23,5.21"/><path class="cls-1" d="M36.68,60.4l-.26.17"/><line class="cls-1" x1="27.7" y1="62.84" x2="32.45" y2="58.66"/><polygon class="cls-1" points="65.52 49.4 66.89 41.99 68.26 49.4 65.52 49.4"/><line class="cls-1" x1="66.88" y1="57.33" x2="66.88" y2="67.85"/><line class="cls-1" x1="66.89" y1="41.99" x2="66.89" y2="39.49"/><line class="cls-1" x1="61.8" y1="60.44" x2="63.94" y2="60.44"/><line class="cls-1" x1="61.8" y1="63.58" x2="63.94" y2="63.58"/><line class="cls-1" x1="69.84" y1="60.44" x2="71.98" y2="60.44"/><line class="cls-1" x1="69.84" y1="63.58" x2="71.98" y2="63.58"/><polyline class="cls-1" points="74.96 55.48 77.71 72.02 80.46 55.48"/><path class="cls-1" d="M78.57,52.23H76.73a1.21,1.21,0,0,0-1.21,1.2v1.43h4.26V53.43A1.21,1.21,0,0,0,78.57,52.23Z"/><line class="cls-1" x1="77.65" y1="52.23" x2="77.65" y2="48.56"/><path class="cls-1" d="M72.85,66.54H71.11a1.21,1.21,0,0,0-1.2,1.21V72h4.15V67.75A1.21,1.21,0,0,0,72.85,66.54Z"/><path class="cls-1" d="M62.66,66.54H60.93a1.21,1.21,0,0,0-1.21,1.21V72h4.15V67.75A1.21,1.21,0,0,0,62.66,66.54Z"/><path class="cls-1" d="M25.79,13.79a1.71,1.71,0,0,1-1.71,1.71H17.9a1.71,1.71,0,0,1-1.71-1.71v-.61A1.21,1.21,0,0,1,17.4,12h7.18a1.21,1.21,0,0,1,1.21,1.21v.61Z"/><line class="cls-1" x1="33.52" y1="42.63" x2="26.36" y2="50.62"/><path class="cls-1" d="M25.61,51.54a.75.75,0,0,0-.13.25"/><path class="cls-1" d="M92.87,76.5a4.47,4.47,0,0,1-2.21.51c-3,0-3-1.9-5.9-1.9a5,5,0,0,0-1.57.23c-1.4.47-1.93,1.49-3.8,1.64a4.52,4.52,0,0,1-1,0c-2.44-.2-2.61-1.87-5.37-1.87S70,76.78,67.62,77a4.52,4.52,0,0,1-1,0c-2.44-.2-2.61-1.87-5.37-1.87a4.84,4.84,0,0,0-3,1,4.66,4.66,0,0,1-2.88.92c-2.95,0-2.95-1.9-5.9-1.9h-.38c-2.39.15-2.66,1.67-5,1.86a4.52,4.52,0,0,1-1,0c-2.44-.2-2.61-1.87-5.36-1.87S34.74,76.78,32.3,77a4.28,4.28,0,0,1-.52,0,4.41,4.41,0,0,1-.52,0c-2.43-.2-2.6-1.87-5.36-1.87S23,76.78,20.54,77a4.52,4.52,0,0,1-1,0,4.68,4.68,0,0,1-2.39-.9,4.88,4.88,0,0,0-3-1c-3,0-3,1.9-5.9,1.9a5.14,5.14,0,0,1-1.11-.11"/><path class="cls-1" d="M18.86,84.13c2.94,0,2.94-1.88,5.88-1.88s2.94,1.88,5.89,1.88,2.94-1.88,5.88-1.88,2.94,1.88,5.88,1.88,3-1.88,5.89-1.88,2.94,1.88,5.88,1.88"/><path class="cls-1" d="M36.38,95.21c2.94,0,2.94-1.89,5.88-1.89s2.94,1.89,5.88,1.89,2.94-1.89,5.89-1.89,2.94,1.89,5.88,1.89"/><path class="cls-1" d="M79.38,87.06c-2.94,0-2.94,1.88-5.88,1.88s-2.94-1.88-5.88-1.88-2.94,1.88-5.88,1.88"/></svg>