<svg id="Layer_1" data-name="Layer 1" xmlns="http://www.w3.org/2000/svg" viewBox="0 0 100 100"><defs><style>.cls-1{fill:none;stroke:#4550e5;stroke-linecap:round;stroke-linejoin:round;}.cls-2{fill:#4550e5;}</style></defs><title>wedding-couple</title><path class="cls-1" d="M24.38,44.77a7.25,7.25,0,0,0,10.8-3"/><path class="cls-2" d="M27.66,36.44a.91.91,0,1,0,0,1.81.91.91,0,0,0,0-1.81Z"/><path class="cls-2" d="M32.49,36.44a.91.91,0,1,0,0,1.81.91.91,0,0,0,0-1.81Z"/><path class="cls-1" d="M28,41.93a3.27,3.27,0,0,0,3.62,0"/><path class="cls-1" d="M29.79,93.19a1.21,1.21,0,0,1-1.09-1.75,3.64,3.64,0,0,1,3.18-1.87h.6a3.64,3.64,0,0,1,3.17,1.87,1.2,1.2,0,0,1-1.08,1.75Z"/><path class="cls-1" d="M22.56,93.19a1.2,1.2,0,0,1-1.08-1.75,3.61,3.61,0,0,1,3.17-1.87h.6a3.61,3.61,0,0,1,3.17,1.87,1.2,1.2,0,0,1-1.08,1.75Z"/><path class="cls-1" d="M38.81,90.17A1.21,1.21,0,0,0,40,88.94C39.75,74.19,34.6,69,34.6,69c-1.11-1.7-2-4.71.6-8.93V56.36s-2.41-3.61-6.64,0c-4.22-3.61-6.64.61-6.64.61v3.14c2.23,3.59,1.91,6.3,1.08,8.08"/><path class="cls-1" d="M27.25,90.17h2.63"/><path class="cls-1" d="M17.1,89a1.21,1.21,0,0,0,1.21,1.22"/><path class="cls-1" d="M20.08,32.25c-.69,2.27-2.23,4.54-.57,8.42s-2.58,7.5,4.32,9.39a.59.59,0,0,0,.59-.17.58.58,0,0,0,.14-.6C23,44.34,26,44.56,24.34,39.46"/><path class="cls-1" d="M35.6,36.79c-2.28,4.2,2.07,7.53-1.4,12a.52.52,0,0,0,.62.79c5.57-2.47,1.7-6.21,2.8-8.94,1.71-4.27-.19-6.55-.74-9a5.44,5.44,0,0,0-5.3-4.25,6,6,0,0,0-3,.84,5.91,5.91,0,0,0-3-.84"/><path class="cls-1" d="M28.56,32.88a5.45,5.45,0,0,0,3.63,1.75"/><line class="cls-1" x1="22.29" y1="32.82" x2="18.9" y2="32.82"/><path class="cls-1" d="M34,34.67A1.52,1.52,0,0,1,37,34c.22,1-.84,3.29-.84,3.29S34.27,35.69,34,34.67Z"/><path class="cls-1" d="M22.37,32.23a1.4,1.4,0,0,1-2.14.17c-.8-.68-1.33-3.12-1.33-3.12s2.5.13,3.3.81"/><path class="cls-1" d="M26.75,31a1.86,1.86,0,0,0-.67.13,1.81,1.81,0,0,0-3.55.47,1.77,1.77,0,0,0,.24.89,1.81,1.81,0,1,0,2.76,1.65,1.78,1.78,0,0,0,1.22.48,1.81,1.81,0,0,0,0-3.62Z"/><path class="cls-1" d="M52.11,59.34a4.92,4.92,0,0,0-2.22-2.15,5,5,0,0,0-2.17-.5,4.93,4.93,0,0,0-2.55.71l-4.65,2.79a.76.76,0,0,1-.37.1.72.72,0,0,1-.72-.72v-.19a10.87,10.87,0,0,0-21.73,0v4.91a11.92,11.92,0,0,0,2.36,7.1l1.68,2.24a2.13,2.13,0,0,0,1.69.85,2.12,2.12,0,0,0,1.69-3.38l-1.68-2.24a7.67,7.67,0,0,1-1.52-4.57V57s2.42-4.22,6.64-.61c4.23-3.61,6.64,0,6.64,0v3.21a5,5,0,0,0,7.5,4.24L47.35,61a.69.69,0,0,1,.37-.1A.71.71,0,0,1,48,61a.73.73,0,0,1,.4.56l.06.51"/><line class="cls-1" x1="28.56" y1="53.35" x2="28.56" y2="56.36"/><path class="cls-1" d="M78,37.6a1.44,1.44,0,0,1,.72,1.26,1.5,1.5,0,0,1-1.36,1.48A7.24,7.24,0,0,1,63,38.86V35.23"/><path class="cls-1" d="M68.28,78.25a2,2,0,0,1,1.44-1.9,2,2,0,0,1,2.44,1.82"/><path class="cls-1" d="M78.35,93.19a1.2,1.2,0,0,0,1.08-1.75,3.64,3.64,0,0,0-3.17-1.87h-.61a3.64,3.64,0,0,0-3.17,1.87,1.2,1.2,0,0,0,1.08,1.75Z"/><path class="cls-1" d="M66.87,93.19A1.21,1.21,0,0,0,68,91.44a3.64,3.64,0,0,0-3.17-1.87h-.61A3.64,3.64,0,0,0,61,91.44a1.2,1.2,0,0,0,1.08,1.75Z"/><line class="cls-1" x1="70.22" y1="55.16" x2="70.22" y2="70.85"/><path class="cls-1" d="M70.22,48.52a12.74,12.74,0,0,0-3.68.54l3.68,3.68,3.68-3.68A12.74,12.74,0,0,0,70.22,48.52Z"/><path class="cls-1" d="M72.64,59.38a48.4,48.4,0,0,0,1.57,11.81,1.76,1.76,0,0,0,.54.87l2.56,2.24a1.19,1.19,0,0,0,1.58,0,11.81,11.81,0,0,0,4-8.89V61.19h0a12.67,12.67,0,0,0-8.73-12"/><line class="cls-1" x1="62.37" y1="58.18" x2="62.37" y2="66.31"/><path class="cls-2" d="M71.13,36.44a.91.91,0,1,0,0,1.81.91.91,0,0,0,0-1.81Z"/><path class="cls-2" d="M66.3,36.44a.91.91,0,1,0,0,1.81.91.91,0,0,0,0-1.81Z"/><path class="cls-1" d="M70.82,41.93a3.27,3.27,0,0,1-3.62,0"/><path class="cls-1" d="M50.72,64.72a2.77,2.77,0,0,0,3.48-2.31,2.91,2.91,0,0,0-2.2-3.1l-.69-.19a1.85,1.85,0,0,0-2.26,1.27l-.53,1.77a1.85,1.85,0,0,0,1.29,2.31Z"/><path class="cls-1" d="M63,35.23c-1.46-.72-.88-4.49.44-5.1l-1-.76a1.11,1.11,0,0,1,.76-2h8.9A5.79,5.79,0,0,1,78.07,33v4.36C73.71,37.39,73.68,34,70,33c-.1.85-1.19,1.65-2.91,2.18A2.14,2.14,0,0,0,64.87,33Z"/><path class="cls-1" d="M73.19,55.67l-.55,3.71a46.34,46.34,0,0,0,.83,8.49l3.39-9.69L75.05,54l2.42-.6L77,50.47a12.32,12.32,0,0,0-2.82-1.32"/><path class="cls-1" d="M78.07,58.18v7.39c0,2.13-1.7,5.56-3.32,6.49"/><path class="cls-1" d="M66.27,49.14a13,13,0,0,0-2.82,1.33L63,53.35l2.41.6-1.81,4.23L67,67.84a45.78,45.78,0,0,0,.85-8.46"/><path class="cls-1" d="M71.14,53.17A4.09,4.09,0,0,1,73,52.25a1.22,1.22,0,0,1,1.47,1.18v1A1.22,1.22,0,0,1,73,55.65a4.09,4.09,0,0,1-1.84-.92"/><path class="cls-1" d="M67.46,52.25A1.21,1.21,0,0,0,66,53.43v1a1.21,1.21,0,0,0,1.46,1.18,4,4,0,0,0,1.84-.92"/><circle class="cls-1" cx="70.22" cy="53.95" r="1.21"/><line class="cls-1" x1="49.69" y1="6.81" x2="49.69" y2="24.91"/><path class="cls-1" d="M49.69,32.21c-6.86-3-4.25-11.51,0-7.3C53.93,20.7,56.55,29.17,49.69,32.21Z"/><line class="cls-1" x1="36.41" y1="6.81" x2="36.41" y2="18.98"/><path class="cls-1" d="M36.41,23.16c-3.93-1.74-2.43-6.59,0-4.18C38.83,16.57,40.33,21.42,36.41,23.16Z"/><line class="cls-1" x1="62.97" y1="6.81" x2="62.98" y2="18.98"/><path class="cls-1" d="M63,23.16c3.92-1.74,2.43-6.59,0-4.18C60.55,16.57,59.05,21.42,63,23.16Z"/><path class="cls-1" d="M20.45,71.91c-1.47,2.8-3.2,8-3.35,17"/><path class="cls-1" d="M18.31,90.17h4.34"/><path class="cls-1" d="M34.48,90.17h4.33"/><path class="cls-1" d="M66.27,49.14a12.68,12.68,0,0,0-8.73,12c0,1.21.15,2.42-1.21,2.69-1,.24-1.38-.39-1.88-1.19l-.36.2"/><path class="cls-1" d="M50.72,64.72l-1,.56c3.93,6.64,10.78,3.78,12.67,1V77.5c.94,1.89,1.81,0,1.81,0a51.51,51.51,0,0,0,3.63-18.12"/><line class="cls-1" x1="38.22" y1="32.82" x2="28.56" y2="32.82"/><path class="cls-1" d="M24.34,39.46a10.32,10.32,0,0,1-.71-3.63"/><path class="cls-1" d="M32.19,34.63a4.48,4.48,0,0,1,1.9.42"/><path class="cls-1" d="M25.55,27.38a5.45,5.45,0,0,0-4.39,2.24"/><path class="cls-1" d="M22.2,30.09a1.82,1.82,0,0,1,.52.71"/><path class="cls-1" d="M74.13,70.85H66.31"/><path class="cls-1" d="M67.81,59.38l-.56-3.71"/><path class="cls-1" d="M66.75,52.32l-.48-3.18"/><path class="cls-1" d="M74.17,49.15l-.47,3.17"/><path class="cls-1" d="M69.3,53.17a4.09,4.09,0,0,0-1.84-.92"/><path class="cls-1" d="M78.07,90.06V74.61"/><path class="cls-1" d="M72.16,78.17l.41,13.11"/><path class="cls-1" d="M67.87,91.2l.41-13"/><path class="cls-1" d="M62.37,70.85V90.06"/></svg>