<svg id="Layer_1" data-name="Layer 1" xmlns="http://www.w3.org/2000/svg" viewBox="0 0 100 100"><defs><style>.cls-1{fill:none;stroke:#4550e5;stroke-linecap:round;stroke-linejoin:round;}</style></defs><title>amusement-park</title><polyline class="cls-1" points="21.36 70.9 21.36 78.73 24.11 78.73"/><path class="cls-1" d="M22.34,64.32H27a1.23,1.23,0,0,1,1.23,1.23v13.2H26.86"/><line class="cls-1" x1="53.67" y1="78.73" x2="50.24" y2="78.73"/><path class="cls-1" d="M42,78.73H40.78V65.43a1.12,1.12,0,0,1,1.13-1.13H58.57a1.09,1.09,0,0,1,.75.29h0"/><line class="cls-1" x1="47.49" y1="78.73" x2="44.74" y2="78.73"/><line class="cls-1" x1="59.17" y1="78.73" x2="56.42" y2="78.73"/><polyline class="cls-1" points="26.86 49.51 26.86 64.3 22.74 64.3 22.74 50.88"/><polyline class="cls-1" points="22.74 46.42 23.42 46.42 26.86 46.42"/><polyline class="cls-1" points="58.49 50.88 58.49 64.3 41.99 64.3 41.99 51.2"/><path class="cls-1" d="M61.24,46.42l-4.61-2.05a17.42,17.42,0,0,1-9.83-11.7H34.43a17.44,17.44,0,0,1-9.84,11.7L20,46.42"/><path class="cls-1" d="M46.11,51.2V61a.55.55,0,0,0,.55.55h7.15a.55.55,0,0,0,.55-.55V49.51"/><path class="cls-1" d="M46.11,51.2v7.6h2.07a2.06,2.06,0,1,1,4.12,0h2.06V50.2"/><path class="cls-1" d="M24.11,78.73H21.36V70.9a1.1,1.1,0,0,1,1.1-1.1H23a1.1,1.1,0,0,1,1.1,1.1Z"/><circle class="cls-1" cx="22.74" cy="68.42" r="1.38"/><path class="cls-1" d="M35.8,78.73H33.05V70.9a1.1,1.1,0,0,1,1.1-1.1h.55a1.1,1.1,0,0,1,1.1,1.1Z"/><circle class="cls-1" cx="34.43" cy="68.42" r="1.38"/><path class="cls-1" d="M59.18,78.73H56.43V70.9a1.1,1.1,0,0,1,1.1-1.1h.55a1.1,1.1,0,0,1,1.1,1.1Z"/><circle class="cls-1" cx="57.8" cy="68.42" r="1.38"/><path class="cls-1" d="M70.86,78.73H68.11V70.9a1.1,1.1,0,0,1,1.1-1.1h.55a1.1,1.1,0,0,1,1.1,1.1Z"/><circle class="cls-1" cx="69.49" cy="68.42" r="1.38"/><rect class="cls-1" x="73.61" y="53.98" width="2.75" height="24.75"/><path class="cls-1" d="M47.49,78.73H44.74V70.9a1.1,1.1,0,0,1,1.1-1.1h.55a1.1,1.1,0,0,1,1.1,1.1Z"/><circle class="cls-1" cx="46.11" cy="68.42" r="1.38"/><path class="cls-1" d="M24.11,71.17l1.54,1.54a4.17,4.17,0,0,0,2.93,1.21h0a4.2,4.2,0,0,0,2.94-1.21l1.53-1.54"/><path class="cls-1" d="M35.8,71.17l1.54,1.54a4.16,4.16,0,0,0,2.93,1.21h0a4.16,4.16,0,0,0,2.93-1.21l1.54-1.54"/><path class="cls-1" d="M47.49,71.17,49,72.71A4.2,4.2,0,0,0,52,73.92h0a4.17,4.17,0,0,0,2.93-1.21l1.54-1.54"/><path class="cls-1" d="M59.18,71.17l1.53,1.54a4.17,4.17,0,0,0,2.93,1.21h0a4.2,4.2,0,0,0,2.94-1.21l1.53-1.54"/><path class="cls-1" d="M79.46,49.86h-8.6V47.8l-4.32,3.7a.55.55,0,0,0,0,.84l4.32,3.71V54h8.6a.55.55,0,0,0,.46-.85l-.81-1.21.81-1.21A.55.55,0,0,0,79.46,49.86Z"/><path class="cls-1" d="M77.33,73.23H73.61V54h4.82V72.13A1.1,1.1,0,0,1,77.33,73.23Z"/><rect class="cls-1" x="34.43" y="29.92" width="12.38" height="2.75"/><line class="cls-1" x1="34.43" y1="32.67" x2="34.43" y2="25.11"/><line class="cls-1" x1="46.8" y1="32.67" x2="46.8" y2="25.11"/><path class="cls-1" d="M34.43,21.82v3.29l3.63-1.56a.55.55,0,0,0,0-1l-2.87-1.23A.55.55,0,0,0,34.43,21.82Z"/><path class="cls-1" d="M46.8,21.82v3.29l3.63-1.56a.55.55,0,0,0,0-1l-2.86-1.23A.55.55,0,0,0,46.8,21.82Z"/><path class="cls-1" d="M48.86,46.42H32.36"/><path class="cls-1" d="M28.93,46.42H20v3.09a1.72,1.72,0,1,0,3.44,0,1.72,1.72,0,1,0,3.43,0,1.72,1.72,0,1,0,3.44,0,1.72,1.72,0,1,0,3.44,0,1.72,1.72,0,0,0,3.44,0,1.72,1.72,0,1,0,3.43,0,1.72,1.72,0,1,0,3.44,0,1.72,1.72,0,1,0,3.44,0,1.72,1.72,0,0,0,3.44,0,1.72,1.72,0,1,0,3.43,0,1.72,1.72,0,1,0,3.44,0,1.72,1.72,0,1,0,3.44,0V46.42H52.3"/><path class="cls-1" d="M32.36,41.61l.7-.46a13.52,13.52,0,0,1,7.55-2.29h0a13.58,13.58,0,0,1,7.56,2.29l.69.46v4.81L48.17,46a13.65,13.65,0,0,0-7.56-2.29h0A13.6,13.6,0,0,0,33.06,46l-.7.46Z"/><polygon class="cls-1" points="48.86 42.98 52.99 42.98 51.61 45.05 52.99 47.8 48.86 47.8 48.86 42.98"/><polygon class="cls-1" points="32.36 42.98 28.24 42.98 29.61 45.05 28.24 47.8 32.36 47.8 32.36 42.98"/><line class="cls-1" x1="76.36" y1="56.73" x2="78.43" y2="56.73"/><line class="cls-1" x1="76.36" y1="59.48" x2="78.43" y2="59.48"/><line class="cls-1" x1="76.36" y1="62.23" x2="78.43" y2="62.23"/><line class="cls-1" x1="76.36" y1="64.98" x2="78.43" y2="64.98"/><line class="cls-1" x1="76.36" y1="67.73" x2="78.43" y2="67.73"/><line class="cls-1" x1="76.36" y1="70.48" x2="78.43" y2="70.48"/></svg>