<svg id="Layer_1" data-name="Layer 1" xmlns="http://www.w3.org/2000/svg" viewBox="0 0 100 100"><defs><style>.cls-1{fill:none;stroke:#4550e5;stroke-linecap:round;stroke-linejoin:round;}</style></defs><title>arab-male-travel</title><g id="New_Symbol_36" data-name="New Symbol 36"><polyline class="cls-1" points="85.36 67.54 80.19 67.54 73.29 67.54 40.63 67.54"/></g><path class="cls-1" d="M40.63,67.54H73.29V58.45a1.85,1.85,0,0,0-1.84-1.84H41.66"/><path class="cls-1" d="M41.66,58.91H69.33A1.08,1.08,0,0,1,70.41,60v4.67H41.19"/><line class="cls-1" x1="34.19" y1="58.91" x2="34.19" y2="58.23"/><path class="cls-1" d="M41.66,58.91H69.33A1.08,1.08,0,0,1,70.41,60v4.67H41.19"/><path class="cls-1" d="M41.66,54.66v2H71.45a1.85,1.85,0,0,1,1.84,1.84v9.09h6.9V54.66a2.07,2.07,0,0,0-2.07-2.07H43.73A2.07,2.07,0,0,0,41.66,54.66Z"/><path class="cls-1" d="M56.27,49.71a1.38,1.38,0,0,0-1.38,1.38v1.5H76.74v-1.5a1.38,1.38,0,0,0-1.38-1.38Z"/><path class="cls-1" d="M55.35,24.41a.61.61,0,0,0-.61.69l.39,3.34H76.27l.38-3.34a.6.6,0,0,0-.6-.69Z"/><rect class="cls-1" x="58.91" y="36.49" width="13.8" height="2.88"/><path class="cls-1" d="M58.8,24.41H72.6c0-1.17-1-2.87-2.13-2.87H60.92C59.75,21.54,58.8,23.24,58.8,24.41Z"/><rect class="cls-1" x="58.91" y="42.24" width="13.8" height="7.48"/><path class="cls-1" d="M58.11,39.36a1.49,1.49,0,0,0-1.38,1.5,1.38,1.38,0,0,0,1.38,1.38H73.29a1.38,1.38,0,0,0,1.38-1.38,1.49,1.49,0,0,0-1.38-1.5Z"/><path class="cls-1" d="M76.27,28.44l-.8,7a1.15,1.15,0,0,1-1.14,1H57.07a1.16,1.16,0,0,1-1.15-1l-.79-7Z"/><line class="cls-1" x1="65.81" y1="21.54" x2="65.81" y2="16.36"/><line class="cls-1" x1="62.36" y1="21.54" x2="62.36" y2="19.81"/><line class="cls-1" x1="69.26" y1="21.54" x2="69.26" y2="19.81"/><line class="cls-1" x1="73.29" y1="28.44" x2="73.29" y2="36.49"/><line class="cls-1" x1="68.69" y1="28.44" x2="68.69" y2="36.49"/><line class="cls-1" x1="62.94" y1="28.44" x2="62.94" y2="36.49"/><line class="cls-1" x1="58.34" y1="28.44" x2="58.34" y2="36.49"/><line class="cls-1" x1="65.81" y1="58.91" x2="65.81" y2="64.66"/><line class="cls-1" x1="60.06" y1="58.91" x2="60.06" y2="64.66"/><line class="cls-1" x1="54.31" y1="58.91" x2="54.31" y2="64.66"/><line class="cls-1" x1="48.56" y1="58.91" x2="48.56" y2="64.66"/><line class="cls-1" x1="42.81" y1="58.91" x2="42.81" y2="64.66"/><path class="cls-1" d="M19,66.38a2,2,0,0,1-1.82,1.16,2,2,0,0,1-2-2v-2"/><polyline class="cls-1" points="34.19 63.51 34.19 58.91 34.19 58.23"/><path class="cls-1" d="M38.79,53.16v9.78a.57.57,0,0,1-.58.57h-4l.08,1.15.11,1.7v0l.07,1.16.14,2,.71,10.65,0,.57h-1a2.55,2.55,0,0,0-.46-.25,3.3,3.3,0,0,0-1.44-.32h-.57a3.35,3.35,0,0,0-1.9.57H23.44a3.37,3.37,0,0,0-1.9-.57H21a3.34,3.34,0,0,0-1.44.32,2.55,2.55,0,0,0-.46.25h-1L19,67.54,19,66.38v0l.2-2.85h-4a.56.56,0,0,1-.57-.57V53.16A12,12,0,0,1,19,43.85l.06-.05a12.07,12.07,0,0,1,3.79-2.08.76.76,0,0,1,.06.18,4.06,4.06,0,0,0,2.61,2.47v9.94a.58.58,0,0,0,.58.58h1.15a.57.57,0,0,0,.57-.58V44.37a4,4,0,0,0,2.61-2.47,1.89,1.89,0,0,1,.06-.18,12.23,12.23,0,0,1,3.8,2.08s0,0,.05.05A12,12,0,0,1,38.79,53.16Z"/><path class="cls-1" d="M19.73,80.76h-.67a2.55,2.55,0,0,1,.46-.25Z"/><path class="cls-1" d="M34.36,80.76h-.67l.21-.25A2.55,2.55,0,0,1,34.36,80.76Z"/><path class="cls-1" d="M25.72,41.13c-.27,0-.55.06-.82.11h-.14l.16,0h0Z"/><path class="cls-1" d="M27.86,44.37v9.94a.57.57,0,0,1-.57.58H26.14a.58.58,0,0,1-.58-.58V44.37a4,4,0,0,0,2.3,0Z"/><path class="cls-1" d="M28.67,41.25h-.14c-.28-.05-.55-.08-.83-.11l.79.08h0Z"/><line class="cls-1" x1="34.19" y1="63.51" x2="34.19" y2="58.91"/><line class="cls-1" x1="34.19" y1="58.91" x2="34.19" y2="58.23"/><line class="cls-1" x1="19.24" y1="63.51" x2="19.24" y2="50.29"/><line class="cls-1" x1="34.19" y1="58.23" x2="34.19" y2="50.29"/><path class="cls-1" d="M38.21,63.51v2a2,2,0,0,1-3.83.85"/><path class="cls-1" d="M32.46,83.64H29.9a1.16,1.16,0,0,1-1-1.73A3.33,3.33,0,0,1,30,80.76h.17S32.46,81.91,32.46,83.64Z"/><path class="cls-1" d="M35.45,83.06a1.14,1.14,0,0,1-1,.58h-2a5.14,5.14,0,0,1,1.23-2.88l.21-.25a2.55,2.55,0,0,1,.46.25,3.33,3.33,0,0,1,1.09,1.15A1.13,1.13,0,0,1,35.45,83.06Z"/><path class="cls-1" d="M21,83.64H19a1.16,1.16,0,0,1-1-.58,1.18,1.18,0,0,1,0-1.15,3.53,3.53,0,0,1,1.09-1.15,2.55,2.55,0,0,1,.46-.25l.21.25A5.07,5.07,0,0,1,21,83.64Z"/><path class="cls-1" d="M24.53,83.06a1.16,1.16,0,0,1-1,.58H21c0-1.73,2.3-2.88,2.3-2.88h.18a3.53,3.53,0,0,1,1.09,1.15A1.18,1.18,0,0,1,24.53,83.06Z"/><path class="cls-1" d="M23.44,80.76h-.18S21,81.91,21,83.64a5.07,5.07,0,0,0-1.23-2.88l-.21-.25A3.34,3.34,0,0,1,21,80.19h.58A3.37,3.37,0,0,1,23.44,80.76Z"/><path class="cls-1" d="M19.52,80.51l0,0"/><path class="cls-1" d="M33.9,80.51l-.21.25a5.14,5.14,0,0,0-1.23,2.88c0-1.73-2.3-2.88-2.3-2.88H30a3.35,3.35,0,0,1,1.9-.57h.57A3.3,3.3,0,0,1,33.9,80.51Z"/><path class="cls-1" d="M33.92,80.49l0,0"/><path class="cls-1" d="M38.79,70.41V79a1.16,1.16,0,0,1-1.15,1.15H35.3l-.71-10.65a1.18,1.18,0,0,1,.75-.28h2.3A1.16,1.16,0,0,1,38.79,70.41Z"/><line class="cls-1" x1="36.2" y1="67.54" x2="36.2" y2="69.26"/><path class="cls-1" d="M27.86,44.37v9.94a.57.57,0,0,1-.57.58H26.14a.58.58,0,0,1-.58-.58V44.37a4,4,0,0,0,2.3,0Z"/><path class="cls-1" d="M30.53,41.72a1.89,1.89,0,0,0-.06.18,4,4,0,0,1-4.91,2.47A4.06,4.06,0,0,1,23,41.9a.76.76,0,0,0-.06-.18,12.48,12.48,0,0,1,1.87-.47h.14c.27-.05.55-.08.82-.11s.66,0,1,0,.67,0,1,0,.55.06.83.11h.14A12.66,12.66,0,0,1,30.53,41.72Z"/><path class="cls-1" d="M34.76,31.89a1.41,1.41,0,0,1-1.29,1.4h0v0a5.44,5.44,0,0,1-2.73,1.33,1.18,1.18,0,0,1-.95-.18,6,6,0,0,0-6.14,0,1.16,1.16,0,0,1-.94.18A5.3,5.3,0,0,1,20,33.29a1.4,1.4,0,0,1-.15-2.78v-.92a6.4,6.4,0,0,1,.08-1,6.89,6.89,0,0,1,13.64,0,5.37,5.37,0,0,1,.08,1v.92A1.41,1.41,0,0,1,34.76,31.89Z"/><path class="cls-1" d="M34.76,31.89a1.41,1.41,0,0,1-1.29,1.4h0v0a5.44,5.44,0,0,1-2.73,1.33,1.18,1.18,0,0,1-.95-.18,6,6,0,0,0-6.14,0,1.16,1.16,0,0,1-.94.18A5.3,5.3,0,0,1,20,33.29a1.4,1.4,0,0,1-.15-2.78v-.92a6.4,6.4,0,0,1,.08-1,6.89,6.89,0,0,1,13.64,0,5.37,5.37,0,0,1,.08,1v.92A1.41,1.41,0,0,1,34.76,31.89Z"/><path class="cls-1" d="M33.47,33.29c0,.32-.08.64-.13.94a.89.89,0,0,0,0,.14c0,.25-.1.5-.16.73a2,2,0,0,1-.07.26,4.81,4.81,0,0,1-.16.54c-.08.25-.17.5-.26.73a0,0,0,0,0,0,0c-.1.22-.2.44-.3.63a5.82,5.82,0,0,1-.34.6A7,7,0,0,1,31.23,39a6.3,6.3,0,0,1-.8.76,3.28,3.28,0,0,1-.44.32,3.68,3.68,0,0,1-.45.28l-.45.23a5.58,5.58,0,0,1-1.34.42,5.41,5.41,0,0,1-1,.11,5.31,5.31,0,0,1-1-.11,5.52,5.52,0,0,1-1.35-.42l-.45-.23a3,3,0,0,1-.44-.28,3.28,3.28,0,0,1-.44-.32,7.11,7.11,0,0,1-.81-.76,8.59,8.59,0,0,1-.78-1.08,4.36,4.36,0,0,1-.33-.6,5.25,5.25,0,0,1-.3-.63c-.05-.13-.1-.26-.15-.41s-.1-.29-.15-.44a11.09,11.09,0,0,1-.38-1.58c-.06-.3-.1-.62-.14-.94a5.3,5.3,0,0,0,2.74,1.35,1.16,1.16,0,0,0,.94-.18,6,6,0,0,1,6.14,0,1.18,1.18,0,0,0,.95.18,5.44,5.44,0,0,0,2.73-1.33S33.46,33.3,33.47,33.29Z"/><path class="cls-1" d="M25,35.94a3.1,3.1,0,0,0,3.45,0"/><path class="cls-1" d="M36.46,43.36a1.14,1.14,0,0,1-1.85.67l-.23-.18s0,0-.05-.05a12.23,12.23,0,0,0-3.8-2.08,12.66,12.66,0,0,0-1.86-.47l-.16,0h0l-.79-.08c-.32,0-.65,0-1,0a5.41,5.41,0,0,0,1-.11,5.58,5.58,0,0,0,1.34-.42l.45-.23a3.68,3.68,0,0,0,.45-.28,3.28,3.28,0,0,0,.44-.32,6.3,6.3,0,0,0,.8-.76A7,7,0,0,0,32,37.89a5.82,5.82,0,0,0,.34-.6c.1-.19.2-.41.3-.63a0,0,0,0,1,0,0c.09-.23.18-.48.26-.73a4.81,4.81,0,0,0,.16-.54,2,2,0,0,0,.07-.26c.06-.23.12-.48.16-.73a.89.89,0,0,1,0-.14c0-.3.1-.62.13-.94a1.4,1.4,0,0,0,.14-2.78V29a1.1,1.1,0,0,0-.08-.41,6.88,6.88,0,0,0-6.82-5.91h5.18C35.61,23.62,39,31.05,36.46,43.36Z"/><path class="cls-1" d="M25.68,41a5.31,5.31,0,0,0,1,.11c-.33,0-.66,0-1,0l-.79.08h0l-.16,0a12.48,12.48,0,0,0-1.87.47A12.07,12.07,0,0,0,19.1,43.8l-.06.05-.23.18A1.14,1.14,0,0,1,17,43.36c-2.53-12.31.85-19.74,4.58-20.67h5.17a6.89,6.89,0,0,0-6.82,5.91,1.34,1.34,0,0,0-.08.41v1.5A1.4,1.4,0,0,0,20,33.29c0,.32.08.64.14.94a11.09,11.09,0,0,0,.38,1.58c.05.15.09.3.15.44s.1.28.15.41a5.25,5.25,0,0,0,.3.63,4.36,4.36,0,0,0,.33.6A8.59,8.59,0,0,0,22.19,39a7.11,7.11,0,0,0,.81.76,3.28,3.28,0,0,0,.44.32,3,3,0,0,0,.44.28l.45.23A5.52,5.52,0,0,0,25.68,41Z"/><path class="cls-1" d="M21.54,22.69A3.22,3.22,0,0,1,25,19.24h3.45a3.22,3.22,0,0,1,3.45,3.45"/><path class="cls-1" d="M24.92,41.21l0,0"/><path class="cls-1" d="M28.53,41.24l0,0"/><path class="cls-1" d="M19.89,28.6a2,2,0,0,1,2.22-1.31c.89.17,3.38.45,4.28.54a3.42,3.42,0,0,0,.64,0c.9-.09,3.4-.37,4.28-.54a2,2,0,0,1,2.22,1.31"/><line class="cls-1" x1="33.61" y1="22.69" x2="31.89" y2="22.69"/><line class="cls-1" x1="21.54" y1="22.69" x2="19.81" y2="22.69"/><path class="cls-1" d="M29.82,30.74a1,1,0,0,0-1.38,0"/><path class="cls-1" d="M25,30.74a1,1,0,0,0-1.39,0"/></svg>