<svg id="Layer_1" data-name="Layer 1" xmlns="http://www.w3.org/2000/svg" viewBox="0 0 100 100"><defs><style>.cls-1{fill:none;stroke:#4550e5;stroke-linecap:round;stroke-linejoin:round;}.cls-2{fill:#4550e5;}</style></defs><title>dj-booth</title><path class="cls-1" d="M42.81,47.08s1.72-2.54,6.33-2.54,6.32,2.54,6.32,2.54"/><path class="cls-1" d="M53.09,47.62a10.43,10.43,0,0,0-7.69-.09"/><path class="cls-1" d="M59.49,63V57.19A10.38,10.38,0,0,0,56.55,50"/><path class="cls-1" d="M41.73,50a10.33,10.33,0,0,0-2.94,7.23v1.43a7.72,7.72,0,0,0,1.31,4.32"/><path class="cls-1" d="M45.18,47.62a7.94,7.94,0,0,1,3.78,4l.18.4.17-.4a7.94,7.94,0,0,1,3.78-4,10.42,10.42,0,0,0-7.91,0Z"/><path class="cls-1" d="M41.66,35.34v-.85A7.48,7.48,0,0,1,49.14,27h0a7.48,7.48,0,0,1,7.47,7.48v.85"/><path class="cls-1" d="M43.69,40.51a5.71,5.71,0,0,0,10.91,0h0"/><path class="cls-2" d="M47.27,37.06a.72.72,0,1,0,.72.72.72.72,0,0,0-.72-.72Z"/><path class="cls-2" d="M51,37.06a.72.72,0,1,0,.72.72.72.72,0,0,0-.72-.72Z"/><path class="cls-1" d="M47.71,41.14a2.58,2.58,0,0,0,2.87,0"/><path class="cls-1" d="M43.39,37.45c.91-.36,2.58-1.25,2.58-3"/><path class="cls-1" d="M55.45,35.25a6.32,6.32,0,0,0-12.63.09"/><path class="cls-1" d="M43.39,37.45c.91-.36,2.58-1.25,2.58-3"/><path class="cls-1" d="M55.45,35.19a6.33,6.33,0,0,0-12.63.15"/><path class="cls-1" d="M46,34.47c-.29-.28-.33-.23-.57-.6"/><line class="cls-1" x1="55.46" y1="58.34" x2="55.46" y2="57.19"/><path class="cls-1" d="M56.61,41.09H54.89V35.34h1.72a1.14,1.14,0,0,1,1.15,1.15v3.45A1.15,1.15,0,0,1,56.61,41.09Z"/><path class="cls-1" d="M41.66,41.09h1.73V35.34H41.66a1.15,1.15,0,0,0-1.15,1.15v3.45A1.16,1.16,0,0,0,41.66,41.09Z"/><path class="cls-1" d="M49.14,52l-1.48-.84a8.22,8.22,0,0,0-5.45-1,.48.48,0,0,1-.44-.18.47.47,0,0,1-.07-.47l.81-2A.92.92,0,0,1,43.59,47,7.92,7.92,0,0,1,49,51.61Z"/><path class="cls-1" d="M49.14,52l1.47-.84a8.22,8.22,0,0,1,5.45-1,.48.48,0,0,0,.51-.65l-.81-2A.91.91,0,0,0,54.69,47a8,8,0,0,0-5.38,4.58Z"/><path class="cls-1" d="M43.4,60.64a3.74,3.74,0,0,1-.59-2V57.19"/><rect class="cls-1" x="30.16" y="25.56" width="4.6" height="40.83"/><polyline class="cls-1" points="34.76 66.39 30.16 61.79 34.76 57.19 30.16 52.59 34.76 47.99 30.16 43.39 34.76 38.79 30.16 34.19 34.76 29.59 30.74 25.56"/><line class="cls-1" x1="62.84" y1="23.84" x2="36.58" y2="23.84"/><line class="cls-1" x1="36.39" y1="19.24" x2="62.84" y2="19.24"/><polyline class="cls-1" points="36.68 20 40.51 23.84 45.11 19.24 49.71 23.84 54.31 19.24 58.91 23.84 62.72 20.03"/><path class="cls-1" d="M35.34,25.56H29.59a1.25,1.25,0,0,1-1.25-1.24V18.76a1.25,1.25,0,0,1,1.25-1.25h5.75a1.24,1.24,0,0,1,1.24,1.25v5.56A1.24,1.24,0,0,1,35.34,25.56Z"/><path class="cls-1" d="M84.21,55.46a1.14,1.14,0,0,1-1.15,1.15H75a1.15,1.15,0,0,1-1.15-1.15V42.81A1.16,1.16,0,0,1,75,41.66h8a1.15,1.15,0,0,1,1.15,1.15Z"/><rect class="cls-1" x="77.89" y="56.61" width="2.3" height="7.48"/><path class="cls-1" d="M81.34,64.09h-4.6a1.14,1.14,0,0,0-1.15,1.15v1.15h6.9V65.24A1.15,1.15,0,0,0,81.34,64.09Z"/><circle class="cls-1" cx="79.04" cy="46.84" r="2.88"/><circle class="cls-1" cx="79.04" cy="53.16" r="1.15"/><path class="cls-1" d="M26.14,55.46A1.15,1.15,0,0,1,25,56.61h-8a1.14,1.14,0,0,1-1.15-1.15V42.81a1.15,1.15,0,0,1,1.15-1.15h8a1.16,1.16,0,0,1,1.15,1.15Z"/><rect class="cls-1" x="19.81" y="56.61" width="2.3" height="7.48"/><path class="cls-1" d="M23.26,64.09h-4.6a1.15,1.15,0,0,0-1.15,1.15v1.15h6.9V65.24A1.14,1.14,0,0,0,23.26,64.09Z"/><circle class="cls-1" cx="20.96" cy="46.84" r="2.88"/><circle class="cls-1" cx="20.96" cy="53.16" r="1.15"/><circle class="cls-1" cx="32.46" cy="21.54" r="1.73"/><path class="cls-1" d="M71.08,24.32a1.24,1.24,0,0,1-1.24,1.24H64.09a1.25,1.25,0,0,1-1.25-1.24V18.76a1.25,1.25,0,0,1,1.25-1.25h5.75a1.24,1.24,0,0,1,1.24,1.25Z"/><circle class="cls-1" cx="66.96" cy="21.54" r="1.73"/><rect class="cls-1" x="64.66" y="25.56" width="4.6" height="40.83"/><polyline class="cls-1" points="69.26 66.39 64.66 61.79 69.26 57.19 64.66 52.59 69.26 47.99 64.66 43.39 69.26 38.79 64.66 34.19 69.26 29.59 65.24 25.56"/><path class="cls-1" d="M60.06,82.49H38.21V64a1,1,0,0,1,1-1H59a1,1,0,0,1,1,1Z"/><path class="cls-1" d="M38.21,82.49h-6.9a1.16,1.16,0,0,1-1.15-1.15V68.79a1.89,1.89,0,0,1,1.53-1.71l6.52-1.84Z"/><path class="cls-1" d="M68.11,81.34A1.15,1.15,0,0,1,67,82.49h-6.9V65.24l6.53,1.84a1.89,1.89,0,0,1,1.52,1.71Z"/><path class="cls-1" d="M58.34,60.64H41.66a1.15,1.15,0,0,0-1.15,1.15v1.15H58.34Z"/><path class="cls-1" d="M58.34,60.64H48.56V59.49a1.15,1.15,0,0,1,1.15-1.15h7.48a1.15,1.15,0,0,1,1.15,1.15Z"/><circle class="cls-1" cx="34.19" cy="77.89" r="1.72"/><circle class="cls-1" cx="34.19" cy="70.99" r="1.73"/><circle class="cls-1" cx="64.09" cy="77.89" r="1.72"/><circle class="cls-1" cx="64.09" cy="70.99" r="1.73"/><line class="cls-1" x1="40.51" y1="80.19" x2="44.54" y2="80.19"/><line class="cls-1" x1="40.51" y1="77.89" x2="44.54" y2="77.89"/><line class="cls-1" x1="40.51" y1="75.59" x2="44.54" y2="75.59"/><line class="cls-1" x1="40.51" y1="73.29" x2="44.54" y2="73.29"/><line class="cls-1" x1="46.84" y1="80.19" x2="51.44" y2="80.19"/><line class="cls-1" x1="46.84" y1="77.89" x2="51.44" y2="77.89"/><line class="cls-1" x1="46.84" y1="75.59" x2="51.44" y2="75.59"/><line class="cls-1" x1="46.84" y1="73.29" x2="51.44" y2="73.29"/><line class="cls-1" x1="46.84" y1="70.99" x2="51.44" y2="70.99"/><line class="cls-1" x1="46.84" y1="68.69" x2="51.44" y2="68.69"/><line class="cls-1" x1="53.74" y1="80.19" x2="57.76" y2="80.19"/><line class="cls-1" x1="53.74" y1="77.89" x2="57.76" y2="77.89"/><path class="cls-1" d="M46,34.47c2.26,2.19,6,2.1,8.6,1.43"/></svg>