<svg id="Layer_1" data-name="Layer 1" xmlns="http://www.w3.org/2000/svg" viewBox="0 0 100 100"><defs><style>.cls-1{fill:none;stroke:#4550e5;stroke-linecap:round;stroke-linejoin:round;}.cls-2{fill:#4550e5;}</style></defs><title>doctor-hospital</title><polyline class="cls-1" points="71.77 72.84 81.81 72.84 84.74 72.84"/><path class="cls-1" d="M31.63,52a11.91,11.91,0,0,1,.8,1.37h0"/><path class="cls-1" d="M35.6,53.46H36a1.16,1.16,0,0,0,1.15-1.15V48.38A1.15,1.15,0,0,0,36,47.23H32.78a.36.36,0,0,0-.17,0,.23.23,0,0,0-.12,0h0a.53.53,0,0,0-.24.11.26.26,0,0,0-.13.08l0,0a.12.12,0,0,0-.06.06.41.41,0,0,0-.09.1.35.35,0,0,0-.08.13"/><path class="cls-1" d="M33.75,63.84a1.27,1.27,0,0,0,0-.2V59a10.64,10.64,0,0,0-.08-1.38"/><path class="cls-1" d="M36.64,63.67s0,0,0,0a1,1,0,0,0,.19-.16,1.06,1.06,0,0,0,.16-.21,1.11,1.11,0,0,0,.09-.19s0-.09,0-.14a1,1,0,0,0,0-.25V58.76a.73.73,0,0,0,0-.3.08.08,0,0,0,0,0,.4.4,0,0,0-.07-.18,1.33,1.33,0,0,0-.06-.12h0a.9.9,0,0,0-.16-.18.81.81,0,0,0-.24-.17"/><path class="cls-1" d="M29.3,72.83l-.05-.4a11.26,11.26,0,0,0,4-5.34,10.49,10.49,0,0,0,.55-3.25"/><path class="cls-1" d="M33.68,57.61a11.82,11.82,0,0,0-1.25-4.21"/><path class="cls-1" d="M31.63,52a12.16,12.16,0,0,0-2.76-2.92"/><path class="cls-1" d="M28.87,45.66V43.53A1.15,1.15,0,0,1,30,42.38h8.54v.24a1.15,1.15,0,0,0,1.15,1.15h.23V72.83H33.06"/><path class="cls-1" d="M35.6,53.46H36a1.16,1.16,0,0,0,1.15-1.15V48.38A1.15,1.15,0,0,0,36,47.23H32.78a.36.36,0,0,0-.17,0,.23.23,0,0,0-.12,0h0a.66.66,0,0,0-.24.11.35.35,0,0,0-.13.08l0,0a.12.12,0,0,0-.06.06.41.41,0,0,0-.09.1.35.35,0,0,0-.08.13"/><path class="cls-1" d="M36.64,63.67s0,0,0,0a1,1,0,0,0,.19-.16,1.06,1.06,0,0,0,.16-.21,1.11,1.11,0,0,0,.09-.19s0-.09,0-.14a1,1,0,0,0,0-.25V58.76a.73.73,0,0,0,0-.3.08.08,0,0,0,0,0,.4.4,0,0,0-.07-.18,1.33,1.33,0,0,0-.06-.12h0a.9.9,0,0,0-.16-.18.81.81,0,0,0-.24-.17"/><path class="cls-1" d="M91.15,55.54a2.08,2.08,0,0,1-2.08,2.07H71.77V53.46h17.3A2.08,2.08,0,0,1,91.15,55.54Z"/><polygon class="cls-1" points="80.77 72.83 84.22 72.83 86.99 57.61 83.53 57.61 80.77 72.83"/><polygon class="cls-1" points="80.77 72.83 84.22 72.83 86.99 57.61 83.53 57.61 80.77 72.83"/><path class="cls-1" d="M49.63,48.38v3.93a1.16,1.16,0,0,1-1.15,1.15H45.24a1.16,1.16,0,0,1-1.15-1.15V48.38a1.15,1.15,0,0,1,1.15-1.15h3.24A1.15,1.15,0,0,1,49.63,48.38Z"/><path class="cls-1" d="M58.62,48.38v3.93a1.15,1.15,0,0,1-1.15,1.15H54.24a1.15,1.15,0,0,1-1.15-1.15V48.38a1.14,1.14,0,0,1,1.15-1.15h3.23A1.14,1.14,0,0,1,58.62,48.38Z"/><path class="cls-1" d="M67.62,48.38v3.93a1.16,1.16,0,0,1-1.15,1.15H63.24a1.14,1.14,0,0,1-1.15-1.15V48.38a1.14,1.14,0,0,1,1.15-1.15h3.23A1.15,1.15,0,0,1,67.62,48.38Z"/><path class="cls-1" d="M71.77,25.09V40.31H39.94V25.09h7.62a2.32,2.32,0,0,0,2.29,2.08h12a2.3,2.3,0,0,0,2.28-2.08Z"/><path class="cls-1" d="M39.94,43.77V72.83h8.3V58.76a1.15,1.15,0,0,1,1.15-1.15H62.32a1.15,1.15,0,0,1,1.15,1.15V72.83h8.3V43.77Zm9.69,8.54a1.16,1.16,0,0,1-1.15,1.15H45.24a1.16,1.16,0,0,1-1.15-1.15V48.38a1.15,1.15,0,0,1,1.15-1.15h3.24a1.15,1.15,0,0,1,1.15,1.15Zm9,0a1.15,1.15,0,0,1-1.15,1.15H54.24a1.15,1.15,0,0,1-1.15-1.15V48.38a1.14,1.14,0,0,1,1.15-1.15h3.23a1.14,1.14,0,0,1,1.15,1.15Zm9,0a1.16,1.16,0,0,1-1.15,1.15H63.24a1.14,1.14,0,0,1-1.15-1.15V48.38a1.14,1.14,0,0,1,1.15-1.15h3.23a1.15,1.15,0,0,1,1.15,1.15Z"/><path class="cls-1" d="M49.63,48.38v3.93a1.16,1.16,0,0,1-1.15,1.15H45.24a1.16,1.16,0,0,1-1.15-1.15V48.38a1.15,1.15,0,0,1,1.15-1.15h3.24A1.15,1.15,0,0,1,49.63,48.38Z"/><path class="cls-1" d="M58.62,48.38v3.93a1.15,1.15,0,0,1-1.15,1.15H54.24a1.15,1.15,0,0,1-1.15-1.15V48.38a1.14,1.14,0,0,1,1.15-1.15h3.23A1.14,1.14,0,0,1,58.62,48.38Z"/><path class="cls-1" d="M67.62,48.38v3.93a1.16,1.16,0,0,1-1.15,1.15H63.24a1.14,1.14,0,0,1-1.15-1.15V48.38a1.14,1.14,0,0,1,1.15-1.15h3.23A1.15,1.15,0,0,1,67.62,48.38Z"/><path class="cls-1" d="M71.77,25.09V40.31H39.94V25.09h7.62a2.32,2.32,0,0,0,2.29,2.08h12a2.3,2.3,0,0,0,2.28-2.08Z"/><path class="cls-1" d="M73.15,41.46v1.16A1.14,1.14,0,0,1,72,43.77H39.71a1.15,1.15,0,0,1-1.15-1.15V41.46a1.16,1.16,0,0,1,1.15-1.15H72A1.15,1.15,0,0,1,73.15,41.46Z"/><path class="cls-1" d="M47.56,25.09h-9V22.77a1.16,1.16,0,0,1,1.15-1.15h7.84v3.25A1.55,1.55,0,0,0,47.56,25.09Z"/><path class="cls-1" d="M73.15,22.77v2.32h-9a.78.78,0,0,0,0-.22V21.62H72A1.15,1.15,0,0,1,73.15,22.77Z"/><path class="cls-1" d="M61.86,10.56h-12a2.3,2.3,0,0,0-2.3,2.3v12a1.55,1.55,0,0,0,0,.22,2.32,2.32,0,0,0,2.29,2.08h12a2.3,2.3,0,0,0,2.28-2.08.78.78,0,0,0,0-.22v-12A2.29,2.29,0,0,0,61.86,10.56Zm-.46,9.22a1.15,1.15,0,0,1-1.15,1.15H57.93v2.32a1.15,1.15,0,0,1-1.15,1.15H54.93a1.15,1.15,0,0,1-1.15-1.15V20.93H51.47a1.15,1.15,0,0,1-1.15-1.15V17.93a1.16,1.16,0,0,1,1.15-1.15h2.31V14.47a1.15,1.15,0,0,1,1.15-1.15h1.85a1.15,1.15,0,0,1,1.15,1.15v2.31h2.32a1.16,1.16,0,0,1,1.15,1.15Z"/><path class="cls-1" d="M61.4,17.93v1.85a1.15,1.15,0,0,1-1.15,1.15H57.93v2.32a1.15,1.15,0,0,1-1.15,1.15H54.93a1.15,1.15,0,0,1-1.15-1.15V20.93H51.47a1.15,1.15,0,0,1-1.15-1.15V17.93a1.16,1.16,0,0,1,1.15-1.15h2.31V14.47a1.15,1.15,0,0,1,1.15-1.15h1.85a1.15,1.15,0,0,1,1.15,1.15v2.31h2.32A1.16,1.16,0,0,1,61.4,17.93Z"/><path class="cls-1" d="M55.85,57.61V72.83H48.24V58.76a1.15,1.15,0,0,1,1.15-1.15Z"/><path class="cls-1" d="M63.47,58.76V72.83H55.85V57.61h6.47A1.15,1.15,0,0,1,63.47,58.76Z"/><path class="cls-1" d="M49.63,35.7a1.15,1.15,0,0,1-1.15,1.15H45.24a1.15,1.15,0,0,1-1.15-1.15V31.77a1.16,1.16,0,0,1,1.15-1.15h3.24a1.16,1.16,0,0,1,1.15,1.15Z"/><path class="cls-1" d="M58.62,35.7a1.14,1.14,0,0,1-1.15,1.15H54.24a1.14,1.14,0,0,1-1.15-1.15V31.77a1.15,1.15,0,0,1,1.15-1.15h3.23a1.15,1.15,0,0,1,1.15,1.15Z"/><path class="cls-1" d="M67.62,35.7a1.15,1.15,0,0,1-1.15,1.15H63.23a1.15,1.15,0,0,1-1.15-1.15V31.77a1.16,1.16,0,0,1,1.15-1.15h3.24a1.16,1.16,0,0,1,1.15,1.15Z"/><path class="cls-1" d="M67.62,48.38v3.93a1.16,1.16,0,0,1-1.15,1.15H63.24a1.14,1.14,0,0,1-1.15-1.15V48.38a1.14,1.14,0,0,1,1.15-1.15h3.23A1.15,1.15,0,0,1,67.62,48.38Z"/><path class="cls-1" d="M58.62,48.38v3.93a1.15,1.15,0,0,1-1.15,1.15H54.24a1.15,1.15,0,0,1-1.15-1.15V48.38a1.14,1.14,0,0,1,1.15-1.15h3.23A1.14,1.14,0,0,1,58.62,48.38Z"/><path class="cls-1" d="M49.63,48.38v3.93a1.16,1.16,0,0,1-1.15,1.15H45.24a1.16,1.16,0,0,1-1.15-1.15V48.38a1.15,1.15,0,0,1,1.15-1.15h3.24A1.15,1.15,0,0,1,49.63,48.38Z"/><path class="cls-1" d="M31.63,52a11.91,11.91,0,0,1,.8,1.37h0"/><path class="cls-1" d="M35.6,53.46H36a1.16,1.16,0,0,0,1.15-1.15V48.38A1.15,1.15,0,0,0,36,47.23H32.78a.36.36,0,0,0-.17,0,.23.23,0,0,0-.12,0h0a.53.53,0,0,0-.24.11.26.26,0,0,0-.13.08l0,0a.12.12,0,0,0-.06.06.41.41,0,0,0-.09.1.35.35,0,0,0-.08.13"/><path class="cls-1" d="M33.75,63.84a1.27,1.27,0,0,0,0-.2V59a10.64,10.64,0,0,0-.08-1.38"/><path class="cls-1" d="M36.64,63.67s0,0,0,0a1,1,0,0,0,.19-.16,1.06,1.06,0,0,0,.16-.21,1.11,1.11,0,0,0,.09-.19s0-.09,0-.14a1,1,0,0,0,0-.25V58.76a.73.73,0,0,0,0-.3.08.08,0,0,0,0,0,.4.4,0,0,0-.07-.18,1.33,1.33,0,0,0-.06-.12h0a.9.9,0,0,0-.16-.18.81.81,0,0,0-.24-.17"/><path class="cls-1" d="M28.13,33.4a6.3,6.3,0,0,1,.1,1.15v1.38c2,0,1.84,3.46-.34,3.46h0a6.87,6.87,0,0,1-6.56,4.84,6.8,6.8,0,0,1-4.12-1.37,7,7,0,0,1-2.45-3.47c-2.18,0-2.32-3.46-.34-3.46v-.6"/><path class="cls-2" d="M19.06,35.24a.87.87,0,1,0,.87.87.86.86,0,0,0-.87-.87Z"/><path class="cls-2" d="M23.56,35.24a.87.87,0,1,0,0,1.73.87.87,0,0,0,0-1.73Z"/><path class="cls-1" d="M19.58,40.15a3.11,3.11,0,0,0,3.46,0"/><path class="cls-1" d="M14.4,35.33c1.09-.41,3.1-1.49,3.1-3.56,2.78,2.71,7.45,2.52,10.63,1.63l.78-.24a7.61,7.61,0,0,0-15.22,0v2.4a5.61,5.61,0,0,0,.71-.24"/><path class="cls-1" d="M14.4,35.33c1.09-.41,3.1-1.49,3.1-3.56,2.78,2.71,7.45,2.52,10.63,1.63l.78-.24a7.61,7.61,0,0,0-15.22,0v2.4a5.61,5.61,0,0,0,.71-.24"/><path class="cls-1" d="M17.5,31.76c-.35-.34-.41-.28-.69-.72"/><path class="cls-1" d="M19.52,81.83l-.24,5.53c-1.22-1.66-3.93-1.77-5.59-.59V81.83Z"/><path class="cls-1" d="M28.91,81.83v4.94c-1.66-1.18-4.37-1.07-5.59.59l-.24-5.53Z"/><path class="cls-1" d="M19.5,88.89a1.16,1.16,0,0,1-1,.55H13.79a1.15,1.15,0,0,1-1-1.78,3.35,3.35,0,0,1,.87-.89c1.66-1.18,4.37-1.07,5.59.59a2.11,2.11,0,0,1,.26.4A1.17,1.17,0,0,1,19.5,88.89Z"/><path class="cls-1" d="M29.83,88.83a1.14,1.14,0,0,1-1,.61H24.09a1.17,1.17,0,0,1-1-.55,1.14,1.14,0,0,1,0-1.13,2.7,2.7,0,0,1,.25-.4c1.22-1.66,3.93-1.77,5.59-.59a3.35,3.35,0,0,1,.87.89A1.12,1.12,0,0,1,29.83,88.83Z"/><polyline class="cls-1" points="19.52 81.83 21.31 81.83 23.08 81.83"/><path class="cls-1" d="M29.3,72.83l.85,7.72A1.15,1.15,0,0,1,29,81.83H13.59a1.16,1.16,0,0,1-.85-.38,1.21,1.21,0,0,1-.29-.9l.85-7.71,0-.41a11.16,11.16,0,0,1-3.93-5.34,10.48,10.48,0,0,1-.57-3.45V59a12.41,12.41,0,0,1,5.33-10.2,7.16,7.16,0,0,1,.87-.56c.3-.18.61-.34.92-.49s.69-.31,1-.44.54-.19.81-.27l.66-.18a13.1,13.1,0,0,1,2.82-.32c.24,0,.47,0,.7,0s.29,0,.42,0a3,3,0,0,1,.43,0,10.19,10.19,0,0,1,1.25.21l.39.11.4.11a10.11,10.11,0,0,1,1.12.41,3.29,3.29,0,0,1,.61.26,9.6,9.6,0,0,1,1.8,1"/><path class="cls-1" d="M13.69,59v4.66a5.72,5.72,0,0,0,2.69,4.9,1.17,1.17,0,0,1,.41,1.37l-1,2.48a1.16,1.16,0,0,1-1.65.57,9.5,9.5,0,0,1-.81-.54"/><path class="cls-1" d="M33.76,59v4.65a1.27,1.27,0,0,1,0,.2,10.49,10.49,0,0,1-.55,3.25,11.26,11.26,0,0,1-4,5.34l-.38.28-.42.26a1.2,1.2,0,0,1-1,.09,1.17,1.17,0,0,1-.7-.66l-1-2.49a1.12,1.12,0,0,1,.41-1.35,6.79,6.79,0,0,0,1.54-1.47,5.29,5.29,0,0,0,1.1-2.73V53.46h.58a.57.57,0,0,0,.47-.26.53.53,0,0,0,.06-.53l-1.11-2.76-.44-1.12a3,3,0,0,1,.44.31A12.16,12.16,0,0,1,31.63,52a11.91,11.91,0,0,1,.8,1.37h0a12,12,0,0,1,1.25,4.21A10.64,10.64,0,0,1,33.76,59Z"/><path class="cls-1" d="M28.91,59v4.65a5.58,5.58,0,0,1,0,.72"/><polygon class="cls-1" points="24.65 52.69 23.2 56.32 21.31 61.07 19.41 56.32 17.95 52.69 21.31 49.99 24.65 52.69"/><polygon class="cls-1" points="23.2 56.32 21.31 61.07 19.41 56.32 21.31 49.99 23.2 56.32"/><path class="cls-1" d="M21.3,46.54a12.48,12.48,0,0,0-2.81.32L21.3,50l2.81-3.14A12.35,12.35,0,0,0,21.3,46.54Z"/><path class="cls-1" d="M18,52.68,21.3,50l-2.81-3.14a12.13,12.13,0,0,0-2.52.88Z"/><path class="cls-1" d="M26.63,47.74h0l-2,4.94L21.31,50l2.8-3.14.39.11.4.11a10.11,10.11,0,0,1,1.12.41Z"/><path class="cls-1" d="M15.77,53.46l-.62,3.08a.56.56,0,0,0,.25.59l5.9,3.94L16,47.75a11.77,11.77,0,0,0-1.79,1l-1.56,3.88a.55.55,0,0,0,.06.53.59.59,0,0,0,.48.26Z"/><path class="cls-1" d="M29.92,53.2a.57.57,0,0,1-.47.26H26.84l.61,3.08a.61.61,0,0,1-.24.6l-5.9,3.93,1.89-4.75,1.45-3.63,2-4.94a13.37,13.37,0,0,1,1.8,1l.44,1.12L30,52.67A.53.53,0,0,1,29.92,53.2Z"/><line class="cls-1" x1="21.3" y1="81.83" x2="21.3" y2="61.07"/></svg>