<svg id="Layer_1" data-name="Layer 1" xmlns="http://www.w3.org/2000/svg" viewBox="0 0 100 100"><defs><style>.cls-1{fill:none;stroke:#4550e5;stroke-linecap:round;stroke-linejoin:round;}.cls-2{fill:#4550e5;}</style></defs><title>golfer-male</title><path class="cls-1" d="M21.91,60.64v1.51a1.68,1.68,0,0,0,1.84,1.65"/><path class="cls-1" d="M42.91,55.1v0a2.36,2.36,0,0,0,1.18,2,2.76,2.76,0,0,0,.94.32h.16V54.77"/><path class="cls-1" d="M23.75,63.8A1.84,1.84,0,0,0,25.59,62V63.8"/><path class="cls-1" d="M47.29,54.49v3.4a.53.53,0,0,1-.44.51,1.14,1.14,0,0,1,.12.22,1.29,1.29,0,0,1,.1.35,1.42,1.42,0,0,1,0,.36,1.22,1.22,0,0,1,0,.34s0,0,0,0a1.8,1.8,0,0,1-.1.33,1.62,1.62,0,0,1-.37.55.41.41,0,0,1-.12.11.25.25,0,0,1-.1.08.71.71,0,0,1-.14.1A.57.57,0,0,1,46,61l-.1,0a1.2,1.2,0,0,1-.27.08h0a1.37,1.37,0,0,1-.36,0,6.23,6.23,0,0,1-1.22-.12l-.42-.11c-.21-.06-.42-.14-.63-.22a5.84,5.84,0,0,1-2-1.31,6.05,6.05,0,0,1-1.73-3.67h0V63.8"/><path class="cls-1" d="M62.26,72.15a2.33,2.33,0,1,1-2.32-2.33A2.32,2.32,0,0,1,62.26,72.15Z"/><path class="cls-1" d="M58.06,74.47h3.75a.27.27,0,0,1,.24.4l-1.13,1.35-.74,2.13a.27.27,0,0,1-.48,0L59,76.22l-1.13-1.35A.27.27,0,0,1,58.06,74.47Z"/><path class="cls-1" d="M25.59,52.25V62a1.84,1.84,0,0,1-1.84,1.84,1.68,1.68,0,0,1-1.84-1.65v-9.9Z"/><path class="cls-1" d="M39,78.5H34.8A1.05,1.05,0,0,1,33.85,77a3.44,3.44,0,0,1,.58-.74,2.76,2.76,0,0,1,.46-.37,3,3,0,0,1,.47-.25l.32-.12h0l.21,0,.27-.05a3.11,3.11,0,0,1,.43,0h.53l.44,0a1.7,1.7,0,0,1,.31.06l.16,0a2,2,0,0,1,.34.13,1.52,1.52,0,0,1,.33.18,1.07,1.07,0,0,1,.21.13,1.66,1.66,0,0,1,.24.18h0s0,0,.06,0a3.45,3.45,0,0,1,.66.81A1.05,1.05,0,0,1,39,78.5Z"/><path class="cls-1" d="M30,78.5H25.87A1,1,0,0,1,24.93,77a2.87,2.87,0,0,1,.66-.81,1.84,1.84,0,0,1,.45-.34l.1-.06a2.9,2.9,0,0,1,.68-.29.32.32,0,0,1,.14,0,2.92,2.92,0,0,1,.73-.09h.52a2.91,2.91,0,0,1,1.39.33,1.69,1.69,0,0,1,.29.17,1.26,1.26,0,0,1,.28.19,1.86,1.86,0,0,1,.22.19A2.93,2.93,0,0,1,31,77,1,1,0,0,1,30,78.5Z"/><path class="cls-1" d="M42.91,50.15v2.1H39.24v8.92H25.59V52.25H21.91v-2.1a10.52,10.52,0,0,1,6.83-9.84V44.1a.51.51,0,0,0,.72.48l2.95-1.26,2.94,1.26a.52.52,0,0,0,.5,0,.54.54,0,0,0,.24-.44V40.31A10.51,10.51,0,0,1,42.91,50.15Z"/><path class="cls-1" d="M36.09,40.31V44.1a.54.54,0,0,1-.24.44.52.52,0,0,1-.5,0l-2.94-1.26-2.95,1.26a.51.51,0,0,1-.72-.48V40.31l.49-.17a6.53,6.53,0,0,1,.79-.21l.58-.13.22,0a.76.76,0,0,1,.21,0,4,4,0,0,1,.5-.05h.11c.26,0,.51,0,.77,0s.53,0,.79,0h.06l.59.07a1.88,1.88,0,0,1,.33,0,4.7,4.7,0,0,1,.63.13,7.51,7.51,0,0,1,.78.21Z"/><line class="cls-1" x1="25.59" y1="52.25" x2="25.59" y2="48.57"/><line class="cls-1" x1="39.24" y1="52.25" x2="39.24" y2="48.57"/><path class="cls-1" d="M39.24,61.17v15s0,0-.06,0h0a1.5,1.5,0,0,0-.24-.18,1.07,1.07,0,0,0-.21-.13,1.52,1.52,0,0,0-.33-.18,2,2,0,0,0-.34-.13l-.16,0a1.7,1.7,0,0,0-.31-.06l-.44,0h-.53a3.11,3.11,0,0,0-.43,0l-.27.05-.21,0h0l-.32.12a3,3,0,0,0-.47.25,3.24,3.24,0,0,0-.46.37L34,65.9a1.64,1.64,0,0,0-3.27,0l-.38,10.33a1.86,1.86,0,0,0-.22-.19,1.26,1.26,0,0,0-.28-.19,1.22,1.22,0,0,0-.29-.17,2.91,2.91,0,0,0-1.39-.33h-.52a2.92,2.92,0,0,0-.73.09l-.14,0a2.9,2.9,0,0,0-.68.29.27.27,0,0,0-.1.06,1.84,1.84,0,0,0-.45.34v-15Z"/><polyline class="cls-1" points="46.24 74.69 46.24 63.8 46.24 60.89"/><path class="cls-1" d="M47.29,53.16v4.73a.53.53,0,0,1-.44.51,1,1,0,0,0-.08-.14.86.86,0,0,0-.13-.14.31.31,0,0,0-.07-.09,1.74,1.74,0,0,0-.58-.39,1.29,1.29,0,0,0-.35-.1,1.45,1.45,0,0,0-.37,0h-.08V53.16a1,1,0,0,1,2.1,0Z"/><path class="cls-1" d="M44.09,57.17,43,60.72a5.84,5.84,0,0,1-2-1.31,6.07,6.07,0,0,1-1.76-4.28V52.25h3.67v2.88A2.36,2.36,0,0,0,44.09,57.17Z"/><path class="cls-1" d="M47.11,59.33a1.22,1.22,0,0,1,0,.34s0,0,0,0a1.8,1.8,0,0,1-.1.33,1.62,1.62,0,0,1-.37.55.41.41,0,0,1-.12.11.25.25,0,0,1-.1.08.71.71,0,0,1-.14.1A.57.57,0,0,1,46,61l-.1,0a1.2,1.2,0,0,1-.27.08h0a1.37,1.37,0,0,1-.36,0,6.23,6.23,0,0,1-1.22-.12l-.42-.11c-.21-.06-.42-.14-.63-.22l1.09-3.55a2.76,2.76,0,0,0,.94.32h.24a1.45,1.45,0,0,1,.37,0,1.29,1.29,0,0,1,.35.1,1.74,1.74,0,0,1,.58.39.31.31,0,0,1,.07.09.86.86,0,0,1,.13.14,1,1,0,0,1,.08.14,1.14,1.14,0,0,1,.12.22,1.29,1.29,0,0,1,.1.35A1.42,1.42,0,0,1,47.11,59.33Z"/><path class="cls-1" d="M45.19,57.49h0Z"/><path class="cls-1" d="M46.82,78.41h0A2,2,0,0,0,48,79l1.86.26a1.16,1.16,0,0,0,1.32-1l.17-1.18a1.17,1.17,0,0,0-1.16-1.34h-2a2.08,2.08,0,0,1-1.47-.61l-.44-.44V77A2,2,0,0,0,46.82,78.41Z"/><path class="cls-1" d="M32.41,43.32l-2.95,1.26a.51.51,0,0,1-.72-.48V40.31l.49-.17Z"/><path class="cls-1" d="M36.09,40.31V44.1a.54.54,0,0,1-.24.44.52.52,0,0,1-.5,0l-2.94-1.26,3.18-3.18Z"/><line class="cls-1" x1="32.41" y1="46.47" x2="32.41" y2="43.32"/><path class="cls-1" d="M32.41,39.65a10.42,10.42,0,0,0-3.18.49l3.18,3.18,3.18-3.18A10.42,10.42,0,0,0,32.41,39.65Z"/><path class="cls-1" d="M27.69,28.32v1.43a.53.53,0,0,1-.53.53,7.2,7.2,0,0,1-.77-.19,1.33,1.33,0,0,1-.28-.1,1.07,1.07,0,0,1-.52-.92v-1.5a5.84,5.84,0,0,1,.08-1,2.58,2.58,0,0,0,.68.9A5.86,5.86,0,0,0,27.69,28.32Z"/><path class="cls-1" d="M39.76,31.25a1.31,1.31,0,0,1-1.18,1.29,6.3,6.3,0,0,1-12.34,0,1.31,1.31,0,0,1-1.18-1.29A1.29,1.29,0,0,1,26.11,30a1.33,1.33,0,0,0,.28.1,7.2,7.2,0,0,0,.77.19.53.53,0,0,0,.53-.53V28.32a11.38,11.38,0,0,0,4.7.84,11.29,11.29,0,0,0,4.75-.86v1.45a.53.53,0,0,0,.52.53,8,8,0,0,0,.78-.19,1.25,1.25,0,0,0,.27-.1A1.3,1.3,0,0,1,39.76,31.25Z"/><path class="cls-2" d="M30.05,29.15a.79.79,0,1,0,0,1.57.79.79,0,1,0,0-1.57Z"/><path class="cls-2" d="M34.77,29.15a.79.79,0,1,0,.79.78.78.78,0,0,0-.79-.78Z"/><path class="cls-1" d="M30.84,33.92a2.82,2.82,0,0,0,3.15,0"/><path class="cls-1" d="M38.16,23.89H26.67a6.83,6.83,0,0,1,11.49,0Z"/><path class="cls-1" d="M39.24,27.57v1.5a1.06,1.06,0,0,1-.53.92,1.25,1.25,0,0,1-.27.1,8,8,0,0,1-.78.19.53.53,0,0,1-.52-.53V28.3a5,5,0,0,0,1.33-.88,2.46,2.46,0,0,0,.68-.9A6,6,0,0,1,39.24,27.57Z"/><path class="cls-1" d="M39.15,26.52H25.67a0,0,0,0,1,0,0c0-.22.08-.43.13-.64l0-.05a3.83,3.83,0,0,1,.2-.63s0,0,0-.06a4.18,4.18,0,0,1,.27-.61c.11-.21.22-.41.34-.6H38.17c.11.19.23.39.33.6a4.22,4.22,0,0,1,.28.61s0,0,0,.06c.08.21.14.42.2.63l0,.05c0,.21.09.42.12.64A0,0,0,0,1,39.15,26.52Z"/><path class="cls-1" d="M25.67,26.52h0Z"/><path class="cls-1" d="M39.15,26.52a2.46,2.46,0,0,1-.68.9,5,5,0,0,1-1.33.88,11.29,11.29,0,0,1-4.75.86,11.38,11.38,0,0,1-4.7-.84,5.86,5.86,0,0,1-1.34-.87,2.58,2.58,0,0,1-.68-.9v0H39.15Z"/><g id="New_Symbol_74" data-name="New Symbol 74"><line class="cls-1" x1="43.62" y1="63.8" x2="41.86" y2="63.8"/></g><path class="cls-1" d="M19.29,61.73a43,43,0,0,0-4.2,2.07h4.52"/><path class="cls-1" d="M49.92,54.21c4-.4,8.3-.64,12.94-.65h.26c19.43,0,21.79,10.24,21.79,10.24h-36"/><line class="cls-1" x1="43.62" y1="63.8" x2="41.86" y2="63.8"/><line class="cls-1" x1="62.86" y1="53.56" x2="62.86" y2="38.07"/><path class="cls-1" d="M62.86,33.36v4.71L68,35.89A1,1,0,0,0,68,34L64.33,32.4A1.05,1.05,0,0,0,62.86,33.36Z"/></svg>