<svg id="Layer_1" data-name="Layer 1" xmlns="http://www.w3.org/2000/svg" viewBox="0 0 100 100"><defs><style>.cls-1{fill:none;stroke:#4550e5;stroke-linecap:round;stroke-linejoin:round;}</style></defs><title>gym</title><g id="New_Symbol_79" data-name="New Symbol 79"><line class="cls-1" x1="93.13" y1="74.84" x2="87.95" y2="74.84"/><polyline class="cls-1" points="83.81 74.84 77.6 74.84 73.46 74.84 69.32 74.84 63.11 74.84"/><polyline class="cls-1" points="6.88 74.84 12.05 74.84 16.19 74.84 20.33 74.84 25.16 74.84 29.3 74.84 35.16 74.84 39.99 74.84 48.62 74.84 50 74.84 54.83 74.84 58.97 74.84"/></g><path class="cls-1" d="M88,55.29V74.84H83.81V59H63.11V74.84H59V55.29a1.16,1.16,0,0,1,1.15-1.15H86.8A1.16,1.16,0,0,1,88,55.29Z"/><rect class="cls-1" x="63.11" y="58.97" width="20.7" height="15.87"/><path class="cls-1" d="M85.19,26.31V54.14H61.73V26.31a1.16,1.16,0,0,1,1.15-1.15H84A1.16,1.16,0,0,1,85.19,26.31Z"/><rect class="cls-1" x="16.19" y="38.27" width="45.54" height="2.76"/><rect class="cls-1" x="16.19" y="45.86" width="45.54" height="2.76"/><path class="cls-1" d="M25.16,72.08H20.33A1.38,1.38,0,0,0,19,73.46h0a1.38,1.38,0,0,0,1.38,1.38h4.83a1.38,1.38,0,0,0,1.38-1.38h0A1.38,1.38,0,0,0,25.16,72.08Z"/><path class="cls-1" d="M19,73.46V66.78a2.2,2.2,0,0,1,.64-1.55L21,63.8h3.45l1.43,1.43a2.2,2.2,0,0,1,.64,1.55v6.68"/><path class="cls-1" d="M24.47,63.8H21V62.19A1.14,1.14,0,0,1,22.17,61h1.15a1.14,1.14,0,0,1,1.15,1.15Z"/><path class="cls-1" d="M41.38,73.46A1.38,1.38,0,0,0,40,72.08H35.16a1.38,1.38,0,0,0-1.38,1.38h0a1.38,1.38,0,0,0,1.38,1.38H40a1.38,1.38,0,0,0,1.39-1.38Z"/><path class="cls-1" d="M33.78,73.46V66.78a2.2,2.2,0,0,1,.65-1.55l1.42-1.43h3.46l1.42,1.43a2.2,2.2,0,0,1,.65,1.55v6.68"/><path class="cls-1" d="M39.31,63.8H35.85V62.19A1.15,1.15,0,0,1,37,61h1.15a1.15,1.15,0,0,1,1.16,1.15Z"/><path class="cls-1" d="M56.21,73.46a1.38,1.38,0,0,0-1.38-1.38H50a1.38,1.38,0,0,0-1.38,1.38h0A1.38,1.38,0,0,0,50,74.84h4.83a1.38,1.38,0,0,0,1.38-1.38Z"/><path class="cls-1" d="M48.62,73.46V66.78a2.2,2.2,0,0,1,.64-1.55l1.43-1.43h3.45l1.43,1.43a2.2,2.2,0,0,1,.64,1.55v6.68"/><path class="cls-1" d="M54.14,63.8H50.69V62.19A1.14,1.14,0,0,1,51.84,61H53a1.14,1.14,0,0,1,1.15,1.15Z"/><path class="cls-1" d="M61.73,48.62v5.52H60.12A1.16,1.16,0,0,0,59,55.29V74.84H16.19V48.62Z"/><rect class="cls-1" x="63.11" y="58.97" width="20.7" height="15.87"/><path class="cls-1" d="M12.05,74.84h4.14V36.66A1.14,1.14,0,0,0,15,35.51H13.2a1.14,1.14,0,0,0-1.15,1.15Z"/><rect class="cls-1" x="16.19" y="41.03" width="45.54" height="4.83"/><rect class="cls-1" x="63.11" y="58.97" width="20.7" height="15.87"/><rect class="cls-1" x="69.32" y="65.18" width="4.14" height="9.66"/><rect class="cls-1" x="73.46" y="65.18" width="4.14" height="9.66"/><circle class="cls-1" cx="73.46" cy="37.58" r="8.28"/><path class="cls-1" d="M73,42l-1,1a.69.69,0,0,1-1,0L68.09,40a.69.69,0,0,1,0-1l1-1a.68.68,0,0,1,1,0L73,41A.68.68,0,0,1,73,42Z"/><path class="cls-1" d="M78.83,36.12l-1,1a.68.68,0,0,1-1,0L74,34.16a.68.68,0,0,1,0-1l1-1a.69.69,0,0,1,1,0l2.93,2.93A.69.69,0,0,1,78.83,36.12Z"/><rect class="cls-1" x="70.7" y="36.2" width="5.52" height="2.76" transform="translate(-5.06 62.95) rotate(-45)"/><line class="cls-1" x1="69.32" y1="65.18" x2="69.32" y2="58.97"/><line class="cls-1" x1="77.6" y1="65.18" x2="77.6" y2="58.97"/><line class="cls-1" x1="77.6" y1="70.01" x2="83.81" y2="70.01"/><line class="cls-1" x1="69.32" y1="70.01" x2="63.11" y2="70.01"/><line class="cls-1" x1="29.3" y1="48.62" x2="29.3" y2="74.84"/><line class="cls-1" x1="48.62" y1="48.62" x2="48.62" y2="74.84"/><line class="cls-1" x1="16.19" y1="54.83" x2="58.97" y2="54.83"/><line class="cls-1" x1="16.19" y1="68.63" x2="58.97" y2="68.63"/></svg>