<svg id="Layer_1" data-name="Layer 1" xmlns="http://www.w3.org/2000/svg" viewBox="0 0 100 100"><defs><style>.cls-1{fill:none;stroke:#4550e5;stroke-linecap:round;stroke-linejoin:round;}.cls-2{fill:#4550e5;}</style></defs><title>hacker</title><path class="cls-1" d="M58.13,41.38a4.58,4.58,0,0,0,6.31,0"/><path class="cls-1" d="M51.85,41.45a10.48,10.48,0,0,0,18.65.44"/><line class="cls-1" x1="58.65" y1="34.77" x2="56.04" y2="33.2"/><path class="cls-2" d="M57.09,36.3a.05.05,0,1,1,0,.1,0,0,0,1,1,0-.1m0-1a1,1,0,1,0,1,1.05,1,1,0,0,0-1-1.05Z"/><line class="cls-1" x1="63.92" y1="34.77" x2="66.54" y2="33.2"/><path class="cls-2" d="M65.49,36.3a.05.05,0,1,1,0,.1,0,0,0,0,1,0-.1m0-1a1,1,0,1,0,1.05,1.05,1,1,0,0,0-1.05-1.05Z"/><path class="cls-1" d="M64.36,74.68H60.42a3.15,3.15,0,0,0-3.15,3.15h0"/><path class="cls-1" d="M60.42,81h3.94"/><path class="cls-1" d="M69.63,50.77a14.54,14.54,0,0,1-1.86,3.94,19.75,19.75,0,0,1-3.56,4.07c-1.24,1.07-3,3-3,5.39,0-2.37-1.74-4.3-3-5.37a19.78,19.78,0,0,1-3.61-4.14,14.51,14.51,0,0,1-1.81-3.81s0-.06,0-.08"/><path class="cls-1" d="M64.89,47.22v3.83a5.21,5.21,0,0,1-7.35,0V47.22"/><path class="cls-1" d="M71.19,63.12v8.49a3.07,3.07,0,0,1-3.07,3.06"/><line class="cls-1" x1="61.21" y1="64.09" x2="61.21" y2="72.57"/><path class="cls-1" d="M53.87,53.38l-.13-.24a14.62,14.62,0,0,1-.93-2.29s0-.06,0-.08c-.77-2.58-1-5.93-1-11.63,0-3.84,2.1-8.57,9.45-8.57s9.45,5.25,9.45,8.57c0,5.7-.26,9-1,11.63-.1.35-.22.69-.34,1h0"/><path class="cls-1" d="M55.81,56.28l-.16-.21"/><path class="cls-1" d="M65.44,57.61l-.21.24a15.54,15.54,0,0,0,6.31-5.58l.06-.1a15.27,15.27,0,0,0,2.21-7.89V31.62A12.6,12.6,0,0,0,61,19,12.88,12.88,0,0,0,48.61,32V42.9a18.28,18.28,0,0,0,2.28,9.22A14.05,14.05,0,0,0,57,57.65L57,57.57"/><path class="cls-1" d="M68.2,54h0l-.33.52a1,1,0,0,1-.1.17"/><path class="cls-1" d="M52.21,77.82h2.47l-5.88-18a1.25,1.25,0,0,0-1.18-.86H46.06Z"/><path class="cls-1" d="M28.21,77.82h24l-6.15-18.9H23.75a1.24,1.24,0,0,0-1.18,1.61Z"/><path class="cls-1" d="M28.29,77.82h25.2V81H30.72a2.43,2.43,0,0,1-2.43-2.46Z"/><path class="cls-1" d="M53.49,77.82H65.56v.69A2.46,2.46,0,0,1,63.1,81H53.49Z"/><path class="cls-1" d="M28.21,77.82h24l-6.15-18.9H23.75a1.24,1.24,0,0,0-1.18,1.61Z"/><path class="cls-1" d="M40.27,67.15c.14-.52.78-.52,1.14,0,.76,1.11,1.15,1.66,1.92,2.77l1.92,2.76c.36.51.18,1.16-.33,1.16H39.51a1,1,0,0,1-.81-1.17c.32-1.1.47-1.66.79-2.76S40,68.25,40.27,67.15Z"/><path class="cls-1" d="M41.24,69.13c.13.63.2.94.33,1.57"/><path class="cls-2" d="M41.79,71.74c-.25,0-.4.24-.34.53a.63.63,0,0,0,.55.52c.25,0,.4-.23.34-.52a.64.64,0,0,0-.55-.53Z"/><path class="cls-1" d="M35,67.19c.44,2.17-.69,3.93-2.53,3.93s-3.68-1.77-4.11-4,.7-3.93,2.53-3.92S34.58,65,35,67.19Z"/><path class="cls-2" d="M30.29,65.63c-.25,0-.4.23-.34.52a.63.63,0,0,0,.55.53h0c.24,0,.39-.24.34-.53a.63.63,0,0,0-.55-.52Z"/><path class="cls-1" d="M30.92,68.49a1.49,1.49,0,0,0,1.23.92.89.89,0,0,0,.86-.92"/><path class="cls-1" d="M29.14,64.27l5.62,1.6"/><path class="cls-2" d="M32.16,65.08c-.36,0-.59.34-.5.77,0,.22.06.33.11.55a.93.93,0,0,0,.81.78H33c.36,0,.58-.35.5-.78,0-.21-.07-.32-.11-.54a.94.94,0,0,0-.81-.78Z"/><path class="cls-1" d="M69.63,50.77a16,16,0,0,0-4.74-1.93"/><path class="cls-1" d="M64.36,81c3.85,0,4.92.14,6.83-.52a9.25,9.25,0,0,0,6.3-7.71v-8A16.24,16.24,0,0,0,71.6,52.17"/><path class="cls-1" d="M71,72.57a3,3,0,0,1-2.89,2.1H64.36"/><path class="cls-1" d="M50.89,52.11a15.89,15.89,0,0,0-3.61,4.19"/><path class="cls-1" d="M57.54,48.84a16.09,16.09,0,0,0-4.75,1.93"/><path class="cls-1" d="M64.36,77.82V74.68"/><polyline class="cls-1" points="71.02 72.57 61.21 72.57 55.73 72.57"/></svg>