<svg id="Layer_1" data-name="Layer 1" xmlns="http://www.w3.org/2000/svg" viewBox="0 0 100 100"><defs><style>.cls-1{fill:none;stroke:#4550e5;stroke-linecap:round;stroke-linejoin:round;}</style></defs><title>lucky-cat-money</title><path class="cls-1" d="M29.12,61.38h-3V53.77a6.51,6.51,0,0,1,5.78-6.48"/><path class="cls-1" d="M26.37,65.16a2.67,2.67,0,0,1-.22-1V61.38h3"/><path class="cls-1" d="M64.74,53.68a6.52,6.52,0,0,0,5.47-6.44V39.63H64.77"/><path class="cls-1" d="M67.49,34.19H64.77a2.72,2.72,0,1,0,0,5.44h5.44V36.9A2.71,2.71,0,0,0,67.49,34.19Z"/><path class="cls-1" d="M30.15,60.4a22.59,22.59,0,0,1,.73-10.72,15.37,15.37,0,0,1,1.05-2.39c1.42-2.54,2.93-3.08,3.6-5.84l.84-4.1c1.05-6.56,6.42-7,11-7s9.93.41,11,7l.83,4.1c.84,3.46,3,3.43,4.67,8.23"/><path class="cls-1" d="M59,66.82,57.89,64a1.49,1.49,0,0,0-1.08-.9,1.47,1.47,0,0,0-1.35.41,14.17,14.17,0,0,1-7.79,3.7,1.49,1.49,0,0,0-1.25,2l1.15,2.87a1.48,1.48,0,0,0,1.6.93,21.88,21.88,0,0,0,8.76-3.64"/><path class="cls-1" d="M36.37,37.35c.87-5.41,4.68-6.64,8.55-6.9-1.27-1.42-4.57-4.68-7.27-3.58s-2.06,8.06-1.51,11.6Z"/><path class="cls-1" d="M58.36,37.35c-.87-5.41-4.68-6.64-8.56-6.9,1.27-1.42,4.57-4.68,7.28-3.58s2.05,8.06,1.5,11.6Z"/><polygon class="cls-1" points="47.36 39.3 46.06 38 48.67 38 47.36 39.3"/><line class="cls-1" x1="39.53" y1="38" x2="42.79" y2="38.65"/><line class="cls-1" x1="39.53" y1="41.91" x2="42.79" y2="41.26"/><path class="cls-1" d="M44.75,36a3.69,3.69,0,0,0-3.26-2"/><line class="cls-1" x1="55.19" y1="38" x2="51.93" y2="38.65"/><line class="cls-1" x1="55.19" y1="41.91" x2="51.93" y2="41.26"/><path class="cls-1" d="M50,36a3.72,3.72,0,0,1,3.27-2"/><path class="cls-1" d="M34.66,43.55c-.56.9-1.26,1.58-2,2.58,1.91.79,6.45,2.2,14.69,2.2s12.79-1.41,14.69-2.2c-.72-1-1.42-1.68-2-2.58a45.21,45.21,0,0,1-12.7,1.51A45.32,45.32,0,0,1,34.66,43.55Z"/><path class="cls-1" d="M47.36,48.33a3.81,3.81,0,1,1-3.8,3.81A3.8,3.8,0,0,1,47.36,48.33Z"/><line class="cls-1" x1="42.47" y1="52.14" x2="52.26" y2="52.14"/><path class="cls-1" d="M36.21,62.47h-3.8a1.36,1.36,0,1,0,0,2.72h3.8a1.36,1.36,0,0,0,0-2.72Z"/><path class="cls-1" d="M34,65.19H30.23a1.36,1.36,0,1,0,0,2.72H34a1.36,1.36,0,1,0,0-2.72Z"/><path class="cls-1" d="M36.21,67.91h-3.8a1.36,1.36,0,1,0,0,2.72h3.8a1.36,1.36,0,1,0,0-2.72Z"/><path class="cls-1" d="M36.21,70.63h-3.8a1.36,1.36,0,1,0,0,2.72h3.8a1.36,1.36,0,1,0,0-2.72Z"/><path class="cls-1" d="M42.74,67.91H38.93a1.36,1.36,0,1,0,0,2.72h3.81a1.36,1.36,0,1,0,0-2.72Z"/><path class="cls-1" d="M42.74,70.63H38.93a1.36,1.36,0,1,0,0,2.72h3.81a1.36,1.36,0,1,0,0-2.72Z"/><path class="cls-1" d="M62.32,66.82H58.51a1.36,1.36,0,0,0,0,2.72h3.81a1.36,1.36,0,0,0,0-2.72Z"/><path class="cls-1" d="M62.32,69.54H58.51a1.36,1.36,0,0,0,0,2.72h3.81a1.36,1.36,0,0,0,0-2.72Z"/><path class="cls-1" d="M68.85,66.82H65a1.36,1.36,0,0,0,0,2.72h3.81a1.36,1.36,0,0,0,0-2.72Z"/><path class="cls-1" d="M72.11,64.1H68.3a1.36,1.36,0,0,0,0,2.72h3.81a1.36,1.36,0,0,0,0-2.72Z"/><path class="cls-1" d="M69.2,61.38H65.4a1.36,1.36,0,0,0,0,2.72h3.8a1.36,1.36,0,0,0,0-2.72Z"/><path class="cls-1" d="M68.85,69.54H65a1.36,1.36,0,0,0,0,2.72h3.81a1.36,1.36,0,0,0,0-2.72Z"/><path class="cls-1" d="M83,51.4a2.62,2.62,0,0,1,2-1.95l3.93-.91a.32.32,0,0,0,.25-.32.34.34,0,0,0-.25-.32L85,47a2.64,2.64,0,0,1-2-2l-.91-3.92a.32.32,0,0,0-.63,0L80.55,45a2.61,2.61,0,0,1-2,2l-3.92.9a.33.33,0,0,0-.25.32.31.31,0,0,0,.25.32l3.92.91a2.59,2.59,0,0,1,2,1.95l.91,3.93a.31.31,0,0,0,.32.25.31.31,0,0,0,.31-.25Z"/><path class="cls-1" d="M16.73,62.93l3.07-1a.29.29,0,0,0,.2-.27.29.29,0,0,0-.2-.28l-2.52-.84a1.13,1.13,0,0,1-.73-.73l-.84-2.52a.29.29,0,0,0-.28-.2.29.29,0,0,0-.27.2l-.84,2.52a1.18,1.18,0,0,1-.73.73l-2.53.84a.29.29,0,0,0-.2.28.29.29,0,0,0,.2.27l2.53.84a1.2,1.2,0,0,1,.73.73L15.16,66a.29.29,0,0,0,.27.2.29.29,0,0,0,.28-.2Z"/><path class="cls-1" d="M64.05,62.57l.14-.43h0"/><path class="cls-1" d="M63.86,49.68a22.39,22.39,0,0,1,1,9"/><path class="cls-1" d="M64.77,39.63,63.16,48"/></svg>