<svg id="Layer_1" data-name="Layer 1" xmlns="http://www.w3.org/2000/svg" viewBox="0 0 100 100"><defs><style>.cls-1{fill:none;stroke:#4550e5;stroke-linecap:round;stroke-linejoin:round;}.cls-2{fill:#4550e5;}</style></defs><title>magician-male</title><path class="cls-1" d="M47.83,33.2a.92.92,0,0,0,.29.11c.71.14,1.46-.61,1.67-1.69a2.13,2.13,0,0,0-.48-2,1.07,1.07,0,0,0,.77-.09c.63-.37.68-1.44.13-2.38a2.64,2.64,0,0,0-1-1A1.1,1.1,0,0,0,50,25.7c.35-.64-.15-1.58-1.11-2.11a2.25,2.25,0,0,0-1.77-.22L46.87,23a1.18,1.18,0,0,0,.82-.85c.13-.72-.64-1.45-1.72-1.64a2.15,2.15,0,0,0-1.88.44l0,0a1.06,1.06,0,0,0,.39-.78c0-.73-.88-1.32-2-1.32s-2,.59-2,1.32c0-.73-.88-1.32-2-1.32s-2,.59-2,1.32a1,1,0,0,0,.4.78l0,0A2.16,2.16,0,0,0,35,20.55c-1.08.19-1.85.92-1.73,1.64a1.2,1.2,0,0,0,.83.85l-.29.33a2.25,2.25,0,0,0-1.77.22c-1,.53-1.46,1.47-1.11,2.11a1.1,1.1,0,0,0,.82.51,2.54,2.54,0,0,0-1,1c-.55.94-.5,2,.13,2.38a1,1,0,0,0,.76.09,2.13,2.13,0,0,0-.48,2c.21,1.08,1,1.83,1.68,1.69a1,1,0,0,0,.29-.11"/><path class="cls-1" d="M47.1,30.09l-.94-2.8a1.31,1.31,0,0,0-1.57-.86L42.41,27a7.8,7.8,0,0,1-3.84,0l-2.17-.54a1.32,1.32,0,0,0-1.57.86l-.93,2.8c-1.88,0-1.75,3.3.33,3.3h0a6.56,6.56,0,0,0,12.53,0h0C48.86,33.39,49,30.09,47.1,30.09Z"/><path class="cls-1" d="M38.85,34.21a3,3,0,0,0,3.3,0"/><path class="cls-2" d="M38.35,29.53a.83.83,0,1,0,.83.83.83.83,0,0,0-.83-.83Z"/><path class="cls-2" d="M42.64,29.53a.83.83,0,1,0,.83.83.83.83,0,0,0-.83-.83Z"/><path class="cls-1" d="M59.52,58,61,57.8l-.62,11.38a1.32,1.32,0,0,0,1.32,1.39h9.09a1.32,1.32,0,0,0,1.32-1.39L71.48,57.8c1,.13,1.88.29,2.66.46a1.13,1.13,0,0,0,1.09-.34.84.84,0,0,0,.25-.55c0-.83-1.61-1.56-4.13-2a18.87,18.87,0,0,0-5.11-.6,18.9,18.9,0,0,0-5.12.6"/><path class="cls-1" d="M71.48,57.8a23.64,23.64,0,0,0-5.25-.43A23.6,23.6,0,0,0,61,57.8L60.87,60H71.6Z"/><path class="cls-1" d="M65.66,46.85l-1-4.52a2,2,0,1,0-3.78,1.2l2.1,5"/><path class="cls-1" d="M66.81,46.85l1-4.52a2,2,0,1,1,3.78,1.2l-2.1,5"/><path class="cls-1" d="M66.24,46.81a4,4,0,1,1-4,4A4,4,0,0,1,66.24,46.81Z"/><path class="cls-2" d="M66.24,51.43a.66.66,0,1,0,.66.66.66.66,0,0,0-.66-.66Z"/><path class="cls-1" d="M25.58,71.92a1.11,1.11,0,0,1-1-1.52l6.48-15.68"/><path class="cls-1" d="M51.7,59.07,56.38,70.4a1.11,1.11,0,0,1-1,1.52c-5.87.38-5.88,3.82-9.74,5.28"/><line class="cls-1" x1="40.5" y1="59.35" x2="40.5" y2="80.47"/><line class="cls-1" x1="45.23" y1="78.59" x2="46.1" y2="64.63"/><line class="cls-1" x1="34.89" y1="64.63" x2="35.76" y2="78.58"/><path class="cls-1" d="M36,81.13a1.1,1.1,0,0,1-1-1.65,3.28,3.28,0,0,1,2.86-1.65,2.64,2.64,0,0,1,2.64,2.64v.66Z"/><path class="cls-1" d="M45,81.13a1.1,1.1,0,0,0,1-1.65,3.28,3.28,0,0,0-2.86-1.65,2.64,2.64,0,0,0-2.64,2.64v.66Z"/><path class="cls-1" d="M30.6,50.11v2a7.26,7.26,0,0,0,4,6.46v6.08H46.44V52.09a7.27,7.27,0,0,0,7.26,7.26h2v-4h-2a3.3,3.3,0,0,1-3.3-3.3v-2a9.91,9.91,0,0,0-5.29-8.76"/><path class="cls-1" d="M36.68,43.36l3.27,12h.55v2h0"/><line class="cls-1" x1="40.5" y1="42.85" x2="40.5" y2="64.63"/><path class="cls-1" d="M35.87,41.35A10,10,0,0,0,33,43.6l2.18,2.18v3.3l4,6.31H40"/><path class="cls-1" d="M45.78,49.08v-3.3L48,43.6a9.93,9.93,0,0,0-2.85-2.25"/><path class="cls-1" d="M34.55,58.55a7.24,7.24,0,0,0,3.3.8h2.64v-4H37.85a3.3,3.3,0,0,1-3.3-3.3v-.66"/><path class="cls-1" d="M42.47,59.35a2,2,0,1,0,0-4h-2v4Z"/><line class="cls-1" x1="46.44" y1="52.09" x2="46.44" y2="51.43"/><path class="cls-1" d="M57.66,59.35a2,2,0,1,0,0-4h-2v4Z"/><path class="cls-1" d="M39.48,40.68a5.8,5.8,0,0,0-2.28-1,1.12,1.12,0,0,0-.92.22,1.1,1.1,0,0,0-.4.86V42.3a1.1,1.1,0,0,0,1.31,1.08,5.66,5.66,0,0,0,2.29-1"/><path class="cls-1" d="M43.8,39.68a1.09,1.09,0,0,1,1.31,1.08V42.3a1.1,1.1,0,0,1-1.31,1.08,5.6,5.6,0,0,1-2.29-1"/><path class="cls-1" d="M40.5,40.21a1.32,1.32,0,1,1-1.32,1.32A1.32,1.32,0,0,1,40.5,40.21Z"/><path class="cls-1" d="M35.88,41.35a9.88,9.88,0,0,0-5.28,8.76"/><path class="cls-1" d="M41.5,40.69a5.7,5.7,0,0,1,2.3-1"/><path class="cls-1" d="M41.76,55.39l4-6.31"/><path class="cls-1" d="M41,55.39l3.26-12"/><path class="cls-1" d="M61.12,55.33a15,15,0,0,0-2.16.55"/><path class="cls-1" d="M35.68,77.33c-4.23-1.38-4.05-5-10.1-5.41"/></svg>