<svg id="Layer_1" data-name="Layer 1" xmlns="http://www.w3.org/2000/svg" viewBox="0 0 100 100"><defs><style>.cls-1,.cls-2{fill:none;stroke:#4550e5;stroke-linejoin:round;}.cls-1{stroke-linecap:round;}</style></defs><title>notre-dame</title><polyline class="cls-1" points="49.79 72.3 47.39 72.3 47.06 72.3"/><line class="cls-1" x1="44.17" y1="72.3" x2="44.16" y2="72.3"/><line class="cls-1" x1="64.28" y1="72.3" x2="57.84" y2="72.3"/><polyline class="cls-1" points="95.3 72.3 81.81 72.3 73.14 72.3 68.31 72.3"/><polyline class="cls-1" points="15.39 72.3 9.59 72.3 5.6 72.3"/><line class="cls-1" x1="33.69" y1="72.3" x2="27.25" y2="72.3"/><rect class="cls-1" x="61.06" y="52.22" width="7.25" height="4.83"/><path class="cls-1" d="M73.14,68.45v3.89H66.7v0h1.61V67.51l-.81-.8V64.29l.81-.8V44.71l2.52,4.61a5.71,5.71,0,0,1,.7,2.75V65.9l.93.93A2.25,2.25,0,0,1,73.14,68.45Z"/><line class="cls-1" x1="68.3" y1="63.48" x2="72.33" y2="63.48"/><rect class="cls-1" x="23.23" y="52.22" width="7.25" height="4.83"/><path class="cls-1" d="M23.23,69.45V68.32l.8-.81V64.29l-.8-.8V44.71l-2.52,4.61a5.71,5.71,0,0,0-.7,2.75V65.9l-.94.93a2.29,2.29,0,0,0-.67,1.62v1.11"/><polyline class="cls-1" points="23.23 72.3 24.84 72.3 24.84 72.33 24.84 72.34 23.96 72.34 23.23 72.34 21.27 72.34 19.1 72.34"/><path class="cls-2" d="M83.75,17.29a1.82,1.82,0,0,0-.7.14,3.21,3.21,0,0,0-6.34,0,1.82,1.82,0,0,0-.7-.14,1.94,1.94,0,0,0,0,3.87h7.74a1.94,1.94,0,0,0,0-3.87Z"/><path class="cls-2" d="M83.75,17.29a1.82,1.82,0,0,0-.7.14,3.21,3.21,0,0,0-6.34,0,1.82,1.82,0,0,0-.7-.14,1.94,1.94,0,0,0,0,3.87h7.74a1.94,1.94,0,0,0,0-3.87Z"/><rect class="cls-1" x="23.23" y="11.16" width="14.49" height="20.13"/><path class="cls-1" d="M68.31,37.73V52.22h-4V47.39h0a6.46,6.46,0,0,0-3.21-5.64,6.45,6.45,0,0,0-3.2,5.64h0v4.83H52.21V46.58a6.44,6.44,0,0,0-12.88,0v5.64H33.69V47.39h0a6.46,6.46,0,0,0-3.21-5.64,6.45,6.45,0,0,0-3.2,5.64h0v4.83h-4V37.73Z"/><path class="cls-1" d="M30.47,35v2.73H27.25V35a3.16,3.16,0,0,1,.92-2.23l.69-.68.69.68A3.16,3.16,0,0,1,30.47,35Z"/><path class="cls-1" d="M38.93,35v2.73H35.71V35a3.12,3.12,0,0,1,.92-2.23l.69-.68.69.68A3.21,3.21,0,0,1,38.93,35Z"/><path class="cls-1" d="M47.38,35v2.73H44.16V35a3.12,3.12,0,0,1,.92-2.23l.69-.68.69.68A3.16,3.16,0,0,1,47.38,35Z"/><path class="cls-1" d="M55.83,35v2.73H52.61V35a3.12,3.12,0,0,1,.92-2.23l.69-.68.69.68A3.16,3.16,0,0,1,55.83,35Z"/><path class="cls-1" d="M64.28,35v2.73H61.06V35A3.16,3.16,0,0,1,62,32.77l.69-.68.69.68A3.16,3.16,0,0,1,64.28,35Z"/><path class="cls-1" d="M41.74,69.39H38a1.14,1.14,0,0,0-1.15,1.15V72.3H33.69"/><polyline class="cls-1" points="27.25 72.3 24.84 72.3 23.23 72.3"/><path class="cls-1" d="M23.23,69.45V68.32l.8-.81V64.29l-.8-.8V57.05H68.31v6.44l-.81.8v2.42l.81.8V72.3h-4V67.51h0a6.46,6.46,0,0,0-3.21-5.63,6.45,6.45,0,0,0-3.2,5.63h0V72.3H49.79V66.2a6.38,6.38,0,0,0-4-5.93,6.37,6.37,0,0,0-4,5.93v.31"/><path class="cls-1" d="M27.25,69.45V67.51h0a6.45,6.45,0,0,1,3.2-5.63,6.46,6.46,0,0,1,3.21,5.63h0v1.94"/><path class="cls-1" d="M33.69,69.45V67.51h0a6.46,6.46,0,0,0-3.21-5.63,6.45,6.45,0,0,0-3.2,5.63h0v1.94"/><polyline class="cls-1" points="27.25 72.3 24.84 72.3 23.23 72.3 23.23 72.33 23.23 72.34 23.96 72.34 24.84 72.34 26.5 72.34 27.25 72.34 29.19 72.34 31.77 72.34 33.69 72.34 34.45 72.34 36.88 72.34 36.88 72.33 36.88 72.3 33.69 72.3"/><path class="cls-1" d="M64.28,47.39v4.83H61.06v4.83H30.47V52.22H27.25V47.39h0a6.45,6.45,0,0,1,3.2-5.64,6.46,6.46,0,0,1,3.21,5.64h0v4.83h5.64V46.58a6.44,6.44,0,0,1,12.88,0v5.64h5.63V47.39h0a6.45,6.45,0,0,1,3.2-5.64,6.46,6.46,0,0,1,3.21,5.64Z"/><path class="cls-1" d="M44.17,72.34h0v0l-.08-.52L44,71.35a2.3,2.3,0,0,0-2.28-2"/><path class="cls-1" d="M41.74,66.51V66.2a6.37,6.37,0,0,1,4-5.93,6.38,6.38,0,0,1,4,5.93v6.1h8.05V67.51h0a6.45,6.45,0,0,1,3.2-5.63,6.46,6.46,0,0,1,3.21,5.63h0V72.3h4v0H47.07"/><rect class="cls-1" x="53.82" y="11.16" width="14.49" height="20.13"/><rect class="cls-1" x="30.47" y="52.22" width="30.59" height="4.83"/><path class="cls-1" d="M30.47,35v2.73H27.25V35a3.16,3.16,0,0,1,.92-2.23l.69-.68.69.68A3.16,3.16,0,0,1,30.47,35Z"/><path class="cls-1" d="M38.93,35v2.73H35.71V35a3.12,3.12,0,0,1,.92-2.23l.69-.68.69.68A3.21,3.21,0,0,1,38.93,35Z"/><path class="cls-1" d="M47.38,35v2.73H44.16V35a3.12,3.12,0,0,1,.92-2.23l.69-.68.69.68A3.16,3.16,0,0,1,47.38,35Z"/><path class="cls-1" d="M55.83,35v2.73H52.61V35a3.12,3.12,0,0,1,.92-2.23l.69-.68.69.68A3.16,3.16,0,0,1,55.83,35Z"/><path class="cls-1" d="M64.28,35v2.73H61.06V35A3.16,3.16,0,0,1,62,32.77l.69-.68.69.68A3.16,3.16,0,0,1,64.28,35Z"/><path class="cls-1" d="M69.57,31.68a.38.38,0,0,1-.07.22,7.14,7.14,0,0,0-1.19,4v1.87h-4V35a3.16,3.16,0,0,0-.92-2.23l-.69-.68-.69.68A3.16,3.16,0,0,0,61.06,35v2.73H55.83V35a3.16,3.16,0,0,0-.92-2.23l-.69-.68-.69.68A3.12,3.12,0,0,0,52.61,35v2.73H47.38V35a3.16,3.16,0,0,0-.92-2.23l-.69-.68-.69.68A3.12,3.12,0,0,0,44.16,35v2.73H38.93V35A3.21,3.21,0,0,0,38,32.77l-.69-.68-.69.68A3.12,3.12,0,0,0,35.71,35v2.73H30.47V35a3.16,3.16,0,0,0-.92-2.23l-.69-.68-.69.68A3.16,3.16,0,0,0,27.25,35v2.73h-4V35.85a7.15,7.15,0,0,0-1.21-4,.39.39,0,0,1,.33-.61H69.17A.39.39,0,0,1,69.57,31.68Z"/><path class="cls-1" d="M44.17,72.34h0v0l-.08-.52L44,71.35a2.3,2.3,0,0,0-2.28-2"/><path class="cls-1" d="M41.74,66.51V66.2a6.37,6.37,0,0,1,4-5.93,6.38,6.38,0,0,1,4,5.93v6.14H47.07"/><polyline class="cls-1" points="33.69 72.3 33.69 72.33 33.69 72.34 31.77 72.34 29.19 72.34 27.25 72.34 27.25 72.33 27.25 72.3"/><path class="cls-1" d="M27.25,69.45V67.81a1.51,1.51,0,0,1,0-.3,6.45,6.45,0,0,1,3.2-5.63,6.46,6.46,0,0,1,3.21,5.63c0,.1,0,.2,0,.3v1.64"/><path class="cls-1" d="M33.69,47.69v4.53H27.25V47.69a1.46,1.46,0,0,1,0-.3,6.45,6.45,0,0,1,3.2-5.64,6.46,6.46,0,0,1,3.21,5.64A2.91,2.91,0,0,1,33.69,47.69Z"/><path class="cls-1" d="M64.28,47.69v4.53H57.84V47.69a1.46,1.46,0,0,1,0-.3,6.45,6.45,0,0,1,3.2-5.64,6.46,6.46,0,0,1,3.21,5.64A2.91,2.91,0,0,1,64.28,47.69Z"/><path class="cls-1" d="M64.28,67.81v4.53H57.84V67.81a1.51,1.51,0,0,1,0-.3,6.45,6.45,0,0,1,3.2-5.63,6.46,6.46,0,0,1,3.21,5.63C64.28,67.61,64.28,67.71,64.28,67.81Z"/><line class="cls-1" x1="37.71" y1="52.21" x2="37.71" y2="62.68"/><line class="cls-1" x1="53.81" y1="52.21" x2="53.81" y2="62.68"/><line class="cls-1" x1="37.71" y1="37.72" x2="37.71" y2="41.75"/><line class="cls-1" x1="53.81" y1="37.72" x2="53.81" y2="41.75"/><path class="cls-1" d="M52.21,46.58v5.64H39.33V46.58a6.44,6.44,0,0,1,12.88,0Z"/><circle class="cls-1" cx="45.76" cy="46.58" r="4.03"/><line class="cls-1" x1="37.71" y1="65.09" x2="37.71" y2="66.7"/><line class="cls-1" x1="53.81" y1="65.09" x2="53.81" y2="66.7"/><line class="cls-1" x1="26.44" y1="57.04" x2="26.44" y2="54.63"/><line class="cls-1" x1="34.49" y1="57.04" x2="34.49" y2="54.63"/><line class="cls-1" x1="45.76" y1="57.04" x2="45.76" y2="52.21"/><line class="cls-1" x1="41.74" y1="57.04" x2="41.74" y2="54.63"/><line class="cls-1" x1="49.79" y1="57.04" x2="49.79" y2="54.63"/><line class="cls-1" x1="57.03" y1="57.04" x2="57.03" y2="54.63"/><line class="cls-1" x1="65.08" y1="57.04" x2="65.08" y2="54.63"/><path class="cls-1" d="M30.47,35v2.73H27.25V35a3.16,3.16,0,0,1,.92-2.23l.69-.68.69.68A3.16,3.16,0,0,1,30.47,35Z"/><path class="cls-1" d="M38.93,35v2.73H35.71V35a3.12,3.12,0,0,1,.92-2.23l.69-.68.69.68A3.21,3.21,0,0,1,38.93,35Z"/><path class="cls-1" d="M47.38,35v2.73H44.16V35a3.12,3.12,0,0,1,.92-2.23l.69-.68.69.68A3.16,3.16,0,0,1,47.38,35Z"/><path class="cls-1" d="M55.83,35v2.73H52.61V35a3.12,3.12,0,0,1,.92-2.23l.69-.68.69.68A3.16,3.16,0,0,1,55.83,35Z"/><path class="cls-1" d="M64.28,35v2.73H61.06V35A3.16,3.16,0,0,1,62,32.77l.69-.68.69.68A3.16,3.16,0,0,1,64.28,35Z"/><line class="cls-1" x1="33.69" y1="31.28" x2="33.69" y2="32.89"/><line class="cls-1" x1="25.64" y1="31.28" x2="25.64" y2="32.89"/><line class="cls-1" x1="41.74" y1="31.28" x2="41.74" y2="32.89"/><line class="cls-1" x1="49.79" y1="31.28" x2="49.79" y2="32.89"/><line class="cls-1" x1="57.84" y1="31.28" x2="57.84" y2="32.89"/><line class="cls-1" x1="65.89" y1="31.28" x2="65.89" y2="32.89"/><line class="cls-1" x1="44.17" y1="72.34" x2="44.17" y2="72.3"/><path class="cls-1" d="M47.07,72.34h.32V67.86a1.14,1.14,0,0,0-1.15-1.15h-.92a1.12,1.12,0,0,0-1,.53"/><path class="cls-1" d="M28.86,21.49v9.8H25.64v-9.8a5.5,5.5,0,0,1,1.61-3.89A5.5,5.5,0,0,1,28.86,21.49Z"/><path class="cls-1" d="M35.3,21.49v9.8H32.08v-9.8a5.5,5.5,0,0,1,1.61-3.89A5.5,5.5,0,0,1,35.3,21.49Z"/><path class="cls-1" d="M59.45,21.49v9.8H56.23v-9.8a5.5,5.5,0,0,1,1.61-3.89A5.5,5.5,0,0,1,59.45,21.49Z"/><path class="cls-1" d="M65.89,21.49v9.8H62.67v-9.8a5.5,5.5,0,0,1,1.61-3.89A5.5,5.5,0,0,1,65.89,21.49Z"/><line class="cls-1" x1="22.42" y1="14.38" x2="38.52" y2="14.38"/><line class="cls-1" x1="22.42" y1="11.16" x2="38.52" y2="11.16"/><line class="cls-1" x1="53.01" y1="14.38" x2="69.11" y2="14.38"/><line class="cls-1" x1="53.01" y1="11.16" x2="69.11" y2="11.16"/><line class="cls-1" x1="69.11" y1="37.73" x2="68.31" y2="37.73"/><line class="cls-1" x1="23.23" y1="37.73" x2="22.42" y2="37.73"/><polyline class="cls-1" points="68.31 52.22 71.53 52.22 72.33 52.22"/><line class="cls-1" x1="61.06" y1="52.22" x2="57.84" y2="52.22"/><polyline class="cls-1" points="52.21 52.22 45.77 52.22 39.33 52.22"/><line class="cls-1" x1="33.69" y1="52.22" x2="30.47" y2="52.22"/><polyline class="cls-1" points="23.23 52.22 20.01 52.22 19.2 52.22"/><line class="cls-1" x1="23.22" y1="63.48" x2="19.2" y2="63.48"/><rect class="cls-1" x="23.22" y="11.16" width="14.49" height="3.22"/><rect class="cls-1" x="53.81" y="11.16" width="14.49" height="3.22"/><line class="cls-1" x1="45.76" y1="42.55" x2="45.76" y2="50.6"/><line class="cls-1" x1="41.74" y1="46.58" x2="49.79" y2="46.58"/><rect class="cls-1" x="27.25" y="47.39" width="6.44" height="4.83"/><rect class="cls-1" x="57.84" y="47.39" width="6.44" height="4.83"/><polyline class="cls-1" points="33.69 72.3 33.69 72.33 33.69 72.34 31.77 72.34 29.19 72.34 27.25 72.34 27.25 72.33 27.25 72.3"/><polyline class="cls-1" points="27.25 69.45 27.25 67.81 27.25 67.51 27.27 67.51 33.68 67.51 33.69 67.51 33.69 67.81 33.69 69.45"/><rect class="cls-1" x="57.84" y="67.51" width="6.44" height="4.83"/><path class="cls-1" d="M83.83,63.2c0,2.67-1,5-2,5s-2-2.31-2-5,2-9.69,2-9.69S83.83,60.52,83.83,63.2Z"/><line class="cls-1" x1="81.81" y1="68.18" x2="81.81" y2="72.34"/><path class="cls-1" d="M12.53,57.07a3.12,3.12,0,0,1-2.94,2.06,3.15,3.15,0,0,1-3-2.06"/><path class="cls-1" d="M7.61,54.81H5.28a.59.59,0,0,1-.37-.13.55.55,0,0,0,0,.18l.23,1.71a.57.57,0,0,0,.57.5H7.18a.57.57,0,0,0,.57-.5L8,54.86a.55.55,0,0,0,0-.18A.57.57,0,0,1,7.61,54.81Z"/><path class="cls-1" d="M6.44,52.36A1.74,1.74,0,0,0,4.7,54.1c0,.51.25.71.58.71H7.61c.32,0,.57-.2.57-.71A1.74,1.74,0,0,0,6.44,52.36Z"/><path class="cls-1" d="M13.9,54.81H11.57a.57.57,0,0,1-.36-.13.37.37,0,0,0,0,.18l.23,1.71a.57.57,0,0,0,.57.5h1.49a.58.58,0,0,0,.57-.5l.23-1.71a1.1,1.1,0,0,0,0-.18A.57.57,0,0,1,13.9,54.81Z"/><path class="cls-1" d="M12.73,52.36A1.74,1.74,0,0,0,11,54.1c0,.51.25.71.58.71H13.9c.32,0,.58-.2.58-.71A1.75,1.75,0,0,0,12.73,52.36Z"/><line class="cls-1" x1="9.59" y1="59.12" x2="9.59" y2="72.33"/><rect class="cls-1" x="19.08" y="79.11" width="6.35" height="3.5"/><rect class="cls-1" x="27.75" y="79.11" width="4.02" height="7.62"/><rect class="cls-1" x="34.05" y="79.11" width="4.02" height="3.5"/><path class="cls-1" d="M44.61,79.11V76.65a15,15,0,0,0-.13-2h-4a1.14,1.14,0,0,1-1.15-1.15v-.57a1.16,1.16,0,0,1,.16-.59s0,0,0,0a1.13,1.13,0,0,1,1-.52h3.57L44,71.35a2.3,2.3,0,0,0-2.28-2H38a1.14,1.14,0,0,0-1.15,1.15v4H17.65a1.16,1.16,0,0,0-1.15,1.15v9.46a1.14,1.14,0,0,0,1,1.13l2.75.43h.51a2.11,2.11,0,1,1,4.21,0h2.8V79.11h4v7.63h4a2.11,2.11,0,1,1,4.21,0h3.44a1.16,1.16,0,0,0,1.15-1.15v-3h-4v-3.5Zm-19.18,3.5H19.08v-3.5h6.35Zm12.65,0h-4v-3.5h4Z"/><path class="cls-1" d="M44.48,74.65h-4a1.14,1.14,0,0,1-1.15-1.15v-.57a1.16,1.16,0,0,1,.16-.59s0,0,0,0a1.13,1.13,0,0,1,1-.52h3.57l.08.52v0h0l.28,1.93,0,.2C44.47,74.53,44.48,74.58,44.48,74.65Z"/><rect class="cls-1" x="40.58" y="79.11" width="4.03" height="3.5"/><path class="cls-1" d="M25,86.74a2.11,2.11,0,1,1-2.1-2.11A2.1,2.1,0,0,1,25,86.74Z"/><path class="cls-1" d="M40,86.74a2.11,2.11,0,1,1-2.11-2.11A2.1,2.1,0,0,1,40,86.74Z"/><rect class="cls-1" x="27.75" y="79.11" width="4.02" height="7.62"/><rect class="cls-1" x="19.08" y="79.11" width="6.35" height="3.5"/><rect class="cls-1" x="34.05" y="79.11" width="4.02" height="3.5"/><rect class="cls-1" x="40.58" y="79.11" width="4.03" height="3.5"/><polygon class="cls-1" points="44.16 72.3 44.08 71.78 44.09 71.78 44.16 72.3"/><polygon class="cls-1" points="44.17 72.34 44.16 72.34 44.16 72.3 44.17 72.34"/><path class="cls-1" d="M44.49,74.64a0,0,0,0,0,0,0c0-.07,0-.12,0-.18Z"/><path class="cls-1" d="M36.88,72.33v2.24H18.07V73.48a1.15,1.15,0,0,1,1-1.14H36.88Z"/><rect class="cls-1" x="21.27" y="72.33" width="2.69" height="2.24"/><rect class="cls-1" x="26.49" y="72.33" width="2.69" height="2.24"/><rect class="cls-1" x="31.77" y="72.33" width="2.68" height="2.24"/><rect class="cls-1" x="27.75" y="79.11" width="4.02" height="3.5"/><line class="cls-1" x1="19.3" y1="76.86" x2="42.23" y2="76.86"/></svg>