<svg id="Layer_1" data-name="Layer 1" xmlns="http://www.w3.org/2000/svg" viewBox="0 0 100 100"><defs><style>.cls-1{fill:none;stroke:#4550e5;stroke-linecap:round;stroke-linejoin:round;}</style></defs><title>photographer-male</title><path class="cls-1" d="M50.87,40.25a2.19,2.19,0,0,0,.63.1h.12a10,10,0,0,0,19.76,0h.12a2.19,2.19,0,0,0,.63-.1"/><path class="cls-1" d="M64.5,43.14a4.32,4.32,0,0,1-6,0"/><path class="cls-1" d="M59,37.35a1.62,1.62,0,0,0-3,0"/><path class="cls-1" d="M67,37.35a1.62,1.62,0,0,0-3,0"/><path class="cls-1" d="M74.87,32.25A8.66,8.66,0,0,0,73.09,31c1.86.08,3.33-.43,3.45-1.27.14-1-1.6-2.05-3.9-2.38a9.54,9.54,0,0,0-3,.09s1.15-.19,1.76-.27c2.3-.29,4.06-1.33,3.94-2.31S73.27,23.31,71,23.6a7.84,7.84,0,0,0-2.8.86c.18-.14.36-.28.53-.44,1.72-1.55,2.58-3.4,1.92-4.14S68,19.8,66.28,21.35a7.24,7.24,0,0,0-2,2.67l-.8-.19a9,9,0,0,0,1-1.53c1.07-2.06,1.22-4.1.34-4.56s-2.31.72-3.37,2.6c-1.06-1.88-2.53-3-3.37-2.6s-.73,2.5.34,4.56a9,9,0,0,0,1,1.53l-.8.19a7.24,7.24,0,0,0-2-2.67c-1.72-1.55-3.66-2.21-4.33-1.47s.2,2.59,1.92,4.14c.17.16.35.3.53.44A7.84,7.84,0,0,0,52,23.6c-2.31-.29-4.27.27-4.4,1.26s1.64,2,3.94,2.31c.7.09,1.76.27,1.76.27a14,14,0,0,0-3-.09c-2.3.33-4,1.39-3.9,2.38.12.84,1.59,1.35,3.45,1.27a8.66,8.66,0,0,0-1.78,1.25c-1.72,1.56-2.57,3.42-1.9,4.16.53.58,1.85.27,3.24-.65a8.66,8.66,0,0,0-.51.91c-1,2.09-1.1,4.13-.2,4.56.55.27,1.35-.14,2.11-1a2,2,0,0,1,.63-3.9c1,0,1.48.68,1.48,1.7a10.24,10.24,0,0,0,.22-4.25c1,.35,2.78-1.15,2.78-1.15v-2.4a27.8,27.8,0,0,0,5.52,1.09A27.8,27.8,0,0,0,67,30.25v2.4s1.73,1.5,2.78,1.15A10.24,10.24,0,0,0,70,38.05c0-1,.48-1.7,1.48-1.7a2,2,0,0,1,.63,3.9c.76.84,1.56,1.25,2.11,1,.9-.43.81-2.47-.2-4.56a8.66,8.66,0,0,0-.51-.91c1.39.92,2.71,1.23,3.24.65C77.44,35.67,76.59,33.81,74.87,32.25Z"/><path class="cls-1" d="M77,72.86v-7.5A15.51,15.51,0,0,0,67.43,51"/><line class="cls-1" x1="46" y1="65.36" x2="46" y2="65.35"/><path class="cls-1" d="M46.2,62.86A15.52,15.52,0,0,1,55.64,51"/><line class="cls-1" x1="46" y1="65.36" x2="46" y2="65.35"/><path class="cls-1" d="M46.2,62.86A15.52,15.52,0,0,1,55.64,51"/><path class="cls-1" d="M67.36,51a16.18,16.18,0,0,1,2,1l.43.26.22.15a15.5,15.5,0,0,1,2.4,2,1.7,1.7,0,0,0,.19.19L73,55l.43.5.27.33c.17.23.35.46.51.69s.47.72.69,1.09l.12.2,0,.09a15.45,15.45,0,0,1,1.45,3.65c.07.28.14.57.19.86a0,0,0,0,1,0,0q.09.47.15.93v0c0,.24.06.49.07.73a.15.15,0,0,1,0,.07l0,.39c0,.27,0,.54,0,.81v7.5"/><path class="cls-1" d="M69,59.86H54a1,1,0,0,0-1,1v8.5a1,1,0,0,0,1,1H69a1,1,0,0,0,1-1v-8.5A1,1,0,0,0,69,59.86Z"/><polyline class="cls-1" points="57 68.36 53 68.36 53 61.86 56.5 61.86"/><polyline class="cls-1" points="66.5 61.86 70 61.86 70 68.36 66.5 68.36"/><path class="cls-1" d="M65.13,58.52a1.21,1.21,0,0,0-1.07-.66H58.94a1.21,1.21,0,0,0-1.07.66A5.35,5.35,0,0,0,57,61.36v9h9v-9A5.35,5.35,0,0,0,65.13,58.52Z"/><circle class="cls-1" cx="61.5" cy="64.36" r="4.5"/><circle class="cls-1" cx="61.5" cy="64.36" r="2.5"/><path class="cls-1" d="M68.5,55.06v4.8H66v-4.8a5.16,5.16,0,0,0-1-3.34V48.53A7.93,7.93,0,0,1,68.5,55.06Z"/><path class="cls-1" d="M54.5,55.06v4.8H57v-4.8a5.16,5.16,0,0,1,1-3.34V48.53A7.93,7.93,0,0,0,54.5,55.06Z"/><path class="cls-1" d="M57.22,53.26a6.49,6.49,0,0,0,4.28,1.6"/><path class="cls-1" d="M61.5,54.86a6.44,6.44,0,0,0,4.27-1.6"/><polyline class="cls-1" points="41.5 51.85 41.5 56.35 32.5 56.35 32.5 51.85"/><path class="cls-1" d="M43,51.85H31a1,1,0,0,1-1-1v-7a1,1,0,0,1,1-1H43a1,1,0,0,1,1,1v7A1,1,0,0,1,43,51.85Z"/><path class="cls-1" d="M42,64.35H32a1,1,0,0,1-1-1v-6a1,1,0,0,1,1-1H42a1,1,0,0,1,1,1v6A1,1,0,0,1,42,64.35Z"/><path class="cls-1" d="M41.5,49.85h-9a.5.5,0,0,1-.5-.5v-4a.5.5,0,0,1,.5-.5h9a.5.5,0,0,1,.5.5v4A.5.5,0,0,1,41.5,49.85Z"/><path class="cls-1" d="M39,60.35H35a1,1,0,0,0-1,1v3h6v-3A1,1,0,0,0,39,60.35Z"/><polyline class="cls-1" points="31 79.35 23 79.35 23 71.35 31 71.35"/><polyline class="cls-1" points="43 71.35 49 71.35 49 79.35 43 79.35"/><path class="cls-1" d="M46,65.35H45a1,1,0,0,0-1,1v1h3v-1A1,1,0,0,0,46,65.35Z"/><path class="cls-1" d="M28,65.35H26a1,1,0,0,0-1,1v1h4v-1A1,1,0,0,0,28,65.35Z"/><path class="cls-1" d="M48,82.35H24a1,1,0,0,1-1-1v-13a1,1,0,0,1,1-1H48a1,1,0,0,1,1,1v13A1,1,0,0,1,48,82.35Z"/><path class="cls-1" d="M44.5,76.35a1.5,1.5,0,0,0,0-3H43v3Z"/><path class="cls-1" d="M40.38,64.35H33.62a1,1,0,0,0-.9.55l-1,2A7,7,0,0,0,31,70V82.35H43V70a7,7,0,0,0-.74-3.13l-1-2A1,1,0,0,0,40.38,64.35Z"/><circle class="cls-1" cx="37" cy="75.35" r="6"/><circle class="cls-1" cx="37" cy="75.35" r="4"/><line class="cls-1" x1="34" y1="67.35" x2="40" y2="67.35"/><line class="cls-1" x1="27" y1="71.35" x2="27" y2="79.35"/><line class="cls-1" x1="26" y1="69.35" x2="29" y2="69.35"/></svg>