<svg id="Layer_1" data-name="Layer 1" xmlns="http://www.w3.org/2000/svg" viewBox="0 0 100 100"><defs><style>.cls-1,.cls-2{fill:none;stroke:#4550e5;stroke-linejoin:round;}.cls-1{stroke-linecap:round;}</style></defs><title>radio-host</title><path class="cls-1" d="M46.84,40.5a10,10,0,0,0,19.85,0h.12"/><path class="cls-1" d="M59.78,43.32a4.36,4.36,0,0,1-6,0"/><path class="cls-1" d="M54.25,37.5a1.73,1.73,0,0,0-1.51-1,1.76,1.76,0,0,0-1.51,1"/><path class="cls-1" d="M62.29,37.5a1.73,1.73,0,0,0-1.51-1,1.76,1.76,0,0,0-1.51,1"/><path class="cls-1" d="M68.26,32.09C68.26,26,67,23.62,61,23.62c0,0-.6-1.81-5.44-1.81-7.26,0-10.28,5.3-10.28,10.28"/><path class="cls-1" d="M49.16,32.8c2.05.19,7.4.35,11.24-2.52a14.8,14.8,0,0,0,3.36,4.23"/><path class="cls-1" d="M53.41,40H50.14a2.47,2.47,0,0,1-2.42-2.48v-2a1,1,0,0,1,1-1h6.11A1.21,1.21,0,0,1,56,35.85l-.21,1.95A2.48,2.48,0,0,1,53.41,40Z"/><path class="cls-1" d="M60.11,40h3.28a2.47,2.47,0,0,0,2.42-2.48v-2a1,1,0,0,0-1-1H58.69a1.21,1.21,0,0,0-1.2,1.34l.22,1.95A2.47,2.47,0,0,0,60.11,40Z"/><line class="cls-1" x1="55.96" y1="36.49" x2="57.56" y2="36.49"/><path class="cls-1" d="M48.92,19.38c-3.34,2.43-5.73,6.7-5.73,13.09h2c0-5.94,1.91-9.52,4.9-11.51"/><path class="cls-1" d="M63.42,21c3,2,4.9,5.57,4.9,11.51h2c0-6.39-2.39-10.66-5.73-13.09"/><path class="cls-1" d="M45.71,43h-3V32.47h3a1,1,0,0,1,1,1V42A1,1,0,0,1,45.71,43Z"/><path class="cls-2" d="M42.69,43c-2.22,0-4-2.36-4-5.27s1.8-5.28,4-5.28Z"/><path class="cls-1" d="M67.82,43h3V32.47h-3a1,1,0,0,0-1,1V42A1,1,0,0,0,67.82,43Z"/><path class="cls-2" d="M70.83,43c2.22,0,4-2.36,4-5.27s-1.8-5.28-4-5.28Z"/><path class="cls-1" d="M63.75,17.71a13.49,13.49,0,0,0-14,0,1.82,1.82,0,0,0,1.91,3.09,9.78,9.78,0,0,1,10.15,0,1.82,1.82,0,0,0,1.91-3.09Z"/><path class="cls-1" d="M41.22,73.17v-7.7a15.72,15.72,0,0,1,5.45-11.91"/><path class="cls-1" d="M66.93,53.56a15.75,15.75,0,0,1,4.52,6.56"/><path class="cls-1" d="M48.45,44.79c-2.69.58-4.42,2.2-3.71,5.77.62,3.1,2.09,3.13,12.06,8.54,12.64-6.87,10.93-5.16,11.83-12"/><path class="cls-1" d="M60.32,52.78c6.35-2.4,7.28-3.2,8.31-5.63A4.72,4.72,0,0,0,65,44.76"/><path class="cls-1" d="M48.45,44.79A4.64,4.64,0,0,0,45,47.15c1.05,2.47,2,3.26,8.62,5.75"/><path class="cls-1" d="M52,54.39a28.62,28.62,0,0,1,1.81,10.28"/><path class="cls-1" d="M60.32,48.42V51.2a4.88,4.88,0,0,1-.57,2.28l-3,5.62-2.95-5.62a4.88,4.88,0,0,1-.57-2.28V48.42"/><path class="cls-1" d="M61.64,54.39a28.62,28.62,0,0,0-1.81,10.28"/><path class="cls-1" d="M53.79,79v-.27h3.78"/><path class="cls-1" d="M59.82,81.21v0"/><line class="cls-1" x1="47.25" y1="72.53" x2="47.25" y2="63.87"/><path class="cls-1" d="M53.79,79a1,1,0,0,0-1-1,5.38,5.38,0,0,1-5.51-5.49V67.7"/><line class="cls-1" x1="50.03" y1="83.6" x2="50.02" y2="83.6"/><path class="cls-1" d="M46.86,82.37a11.08,11.08,0,0,1-5.63-9.88V67.87"/><path class="cls-2" d="M62.22,81.22H59.81l5.77-17.76a1.21,1.21,0,0,1,1.15-.84h1.54"/><path class="cls-2" d="M85.81,81.22H62.22l6-18.6H90.19a1.22,1.22,0,0,1,1.16,1.58Z"/><path class="cls-2" d="M85.81,81.22H61.32v3H83.39C84.71,84.24,85.81,83.37,85.81,81.22Z"/><path class="cls-2" d="M61.32,81.22H49.26c0,2.1,1,3,2.39,3h9.67Z"/><path class="cls-2" d="M79,71a1.34,1.34,0,0,1,.65-1.13,1.41,1.41,0,0,0-1.09-.59c-.46,0-.9.27-1.14.27s-.6-.26-1-.26a1.48,1.48,0,0,0-1.23.75,3.1,3.1,0,0,0,.38,3c.25.36.55.77.94.75s.51-.24,1-.24.58.24,1,.24.66-.37.91-.73a3.25,3.25,0,0,0,.41-.85A1.3,1.3,0,0,1,79,71Z"/><line class="cls-1" x1="77.95" y1="67.7" x2="78.49" y2="67.15"/><path class="cls-2" d="M85.81,81.22H62.22l6-18.6H90.19a1.22,1.22,0,0,1,1.16,1.58Z"/><polyline class="cls-1" points="27.35 60.59 28.12 59.83 28.12 56.34"/><path class="cls-1" d="M24.87,61.87l.78-1a1.21,1.21,0,0,1,1.94,1.45l-1,1.37"/><line class="cls-1" x1="22.69" y1="61.83" x2="9.2" y2="56.2"/><line class="cls-1" x1="20.82" y1="65.53" x2="8.6" y2="60.44"/><path class="cls-1" d="M28.23,56.22,26.05,45.56l3.24-1.46a1,1,0,0,1,1.4,1.15l-1.18,5.16,3.11,4.28a1,1,0,0,1-.83,1.59Z"/><path class="cls-1" d="M26.05,45.56l-4-.35a1,1,0,0,0-.88,1.62l3.58,4.55-1.59,5.19a1,1,0,0,0,1.36,1.21l3.69-1.56"/><line class="cls-1" x1="24.77" y1="51.38" x2="29.51" y2="50.41"/><path class="cls-1" d="M23.71,61.65a3,3,0,1,1-3,3A3,3,0,0,1,23.71,61.65Z"/><path class="cls-1" d="M24.92,64.67a1.21,1.21,0,1,1-1.21-1.21A1.21,1.21,0,0,1,24.92,64.67Z"/><path class="cls-1" d="M40.35,51.9,23,55.46a1,1,0,0,1-1.19-.78l-1.05-5.14a1,1,0,0,1,.78-1.19l17.38-3.56Z"/><path class="cls-1" d="M40.35,51.9,23,55.46a1,1,0,0,1-1.19-.78l-1.05-5.14a1,1,0,0,1,.78-1.19l17.38-3.56Z"/><path class="cls-1" d="M40.35,51.9l1.38-.29a1,1,0,0,0,.78-1.19l-1-5.14a1,1,0,0,0-1.19-.78l-1.38.29Z"/><line class="cls-1" x1="37.49" y1="50.01" x2="37.98" y2="52.38"/><line class="cls-1" x1="36.52" y1="45.27" x2="37" y2="47.64"/><line class="cls-1" x1="35.62" y1="50.53" x2="36.08" y2="52.77"/><line class="cls-1" x1="34.65" y1="45.79" x2="35.14" y2="48.16"/><path class="cls-1" d="M20.77,49.74l-.29.06a2.72,2.72,0,0,0,1.09,5.33l.3-.06Z"/><path class="cls-1" d="M34.44,80.71H12.84a1.25,1.25,0,0,1-1.26-1.26h0a1.25,1.25,0,0,1,1.26-1.25h21.6a1.25,1.25,0,0,1,1.26,1.25h0A1.25,1.25,0,0,1,34.44,80.71Z"/><path class="cls-1" d="M35.45,78.2H13.84a1.26,1.26,0,0,1-1.26-1.26h0a1.26,1.26,0,0,1,1.26-1.25H35.45a1.26,1.26,0,0,1,1.26,1.25h0A1.26,1.26,0,0,1,35.45,78.2Z"/><path class="cls-1" d="M34.44,75.69H12.84a1.25,1.25,0,0,1-1.26-1.26h0a1.26,1.26,0,0,1,1.26-1.26h21.6a1.26,1.26,0,0,1,1.26,1.26h0A1.25,1.25,0,0,1,34.44,75.69Z"/><path class="cls-1" d="M35.45,73.17H13.84a1.26,1.26,0,0,1-1.26-1.25h0a1.26,1.26,0,0,1,1.26-1.26H35.45a1.26,1.26,0,0,1,1.26,1.26h0A1.26,1.26,0,0,1,35.45,73.17Z"/></svg>