<svg id="Layer_1" data-name="Layer 1" xmlns="http://www.w3.org/2000/svg" viewBox="0 0 100 100"><defs><style>.cls-1{fill:none;stroke:#4550e5;stroke-linecap:round;stroke-linejoin:round;}</style></defs><title>shopping-shoes-woman</title><path class="cls-1" d="M34.54,32.61a1.41,1.41,0,0,1-.15,2.8,6.93,6.93,0,0,1-13.57,0,1.41,1.41,0,0,1-.15-2.8"/><path class="cls-1" d="M29.34,36.93a3.09,3.09,0,0,1-3.47,0"/><path class="cls-1" d="M30.73,32.84a1,1,0,0,0-1.39,0"/><path class="cls-1" d="M25.87,32.84a1,1,0,0,0-1.38,0"/><path class="cls-1" d="M35.69,34a1.42,1.42,0,0,1-1.3,1.41,6.93,6.93,0,0,1-3.91,4.89A5.31,5.31,0,0,1,31,43.8a10.46,10.46,0,0,1,5.17,3.9,7.12,7.12,0,0,0,.71-3.33V31.68a9.13,9.13,0,0,0-3.52-7.27,7.54,7.54,0,0,0-8-.82,4,4,0,0,0-2.79-1.15,4.17,4.17,0,0,0-4.16,4.14V44.37c0,4,2,5.41,5.26,7.22A1.17,1.17,0,0,0,25.27,51c2.42-6-2.87-5.2-.54-10.72a6.93,6.93,0,0,1-3.91-4.89,1.41,1.41,0,0,1-.15-2.8A5.1,5.1,0,0,0,23,28.35a2.33,2.33,0,0,1,2.31-2.45A1.73,1.73,0,0,1,27,27.05a1.06,1.06,0,0,0,.67.68c2.11.67,4.8,4.6,6.94,4.89A1.42,1.42,0,0,1,35.69,34Z"/><line class="cls-1" x1="14.09" y1="58.09" x2="11.21" y2="65.89"/><path class="cls-1" d="M51.73,55.55v1.09A2.31,2.31,0,0,0,54,59h10.4V57.8a2.31,2.31,0,0,0-2.31-2.32H60.4l-1.82-2.26a.57.57,0,0,0-.93,0l-.72,1.08a6.35,6.35,0,0,1-3.76.1A1.14,1.14,0,0,0,51.73,55.55Z"/><path class="cls-1" d="M93.91,29.49H42.2a1.45,1.45,0,1,1,0-2.89H93.91"/><path class="cls-1" d="M93.91,45.66H42.2a1.44,1.44,0,1,1,0-2.88H93.91"/><line class="cls-1" x1="43.09" y1="61.84" x2="43.03" y2="61.84"/><line class="cls-1" x1="93.91" y1="61.84" x2="47.96" y2="61.84"/><polyline class="cls-1" points="93.91 58.95 64.44 58.95 54.62 58.95 54.05 58.95 49.74 58.95"/><line class="cls-1" x1="46.53" y1="58.95" x2="46.5" y2="58.95"/><path class="cls-1" d="M74.84,25.44a1.16,1.16,0,0,1-1.15,1.16H66.75a1.16,1.16,0,0,1-1.15-1.16V22a.58.58,0,0,1,.57-.58h8.09a.58.58,0,0,1,.58.58Z"/><path class="cls-1" d="M74.84,22a2.31,2.31,0,0,1-2.31,2.31H67.91A2.31,2.31,0,0,1,65.6,22h0a.58.58,0,0,1,.57-.58h8.09a.58.58,0,0,1,.58.58Z"/><path class="cls-1" d="M53.46,39.31H55.2c2.31,1.16,2.89,1.73,2.89,3.47H54.52c-3.37,0-3.37-2.89-6.25-2.89A2.89,2.89,0,0,1,45.38,37l.38-1.52a.58.58,0,0,1,.87-.35C47.83,35.91,50.49,37.61,53.46,39.31Z"/><line class="cls-1" x1="47.11" y1="39.65" x2="47.11" y2="42.78"/><path class="cls-1" d="M70.22,39.31H72c2.31,1.16,2.89,1.73,2.89,3.47H71.27c-3.36,0-3.36-2.89-6.25-2.89A2.89,2.89,0,0,1,62.13,37l.38-1.52a.58.58,0,0,1,.87-.35C64.58,35.91,67.24,37.61,70.22,39.31Z"/><line class="cls-1" x1="63.87" y1="39.65" x2="63.87" y2="42.78"/><path class="cls-1" d="M87,39.31H88.7C91,40.47,91.59,41,91.59,42.78H88c-3.36,0-3.36-2.89-6.25-2.89A2.89,2.89,0,0,1,78.88,37l.38-1.52a.59.59,0,0,1,.88-.35C81.34,35.91,84,37.61,87,39.31Z"/><line class="cls-1" x1="80.62" y1="39.65" x2="80.62" y2="42.78"/><path class="cls-1" d="M60.06,23.61a2.37,2.37,0,0,1-.35,2.06,2.32,2.32,0,0,1-1.86.93h-7A2.3,2.3,0,0,1,49,25.67a2.34,2.34,0,0,1-.35-2.06L50,19.09h8.66Z"/><path class="cls-1" d="M50,19.09v-.86a4.33,4.33,0,1,1,8.66,0v.86"/><path class="cls-1" d="M55.78,22.27a1.45,1.45,0,0,1-2.89,0V19.09h2.89Z"/><path class="cls-1" d="M64.44,59V57.8a2.31,2.31,0,0,0-2.31-2.32H60.4V59Z"/><path class="cls-1" d="M52.31,56.07h-.58v.57A2.31,2.31,0,0,0,54,59h.58v-.57A2.31,2.31,0,0,0,52.31,56.07Z"/><path class="cls-1" d="M87,59H72.53V56.07H85.82A1.15,1.15,0,0,1,87,57.22Z"/><path class="cls-1" d="M85.82,56.07H72.53a1.16,1.16,0,0,1-1.16-1.16v-.58a1.17,1.17,0,0,1,1.16-1.16H84.66a1.17,1.17,0,0,1,1.16,1.16Z"/><path class="cls-1" d="M19,47.67a10.38,10.38,0,0,0-2,6.08v1.73a2.61,2.61,0,0,1-2.6,2.61h-.38a2.58,2.58,0,0,1-2.4-1.61L10,52.4a2,2,0,0,0-1.86-1.25,2.09,2.09,0,0,0-.78.16A2,2,0,0,0,6.25,54L8,58a6.63,6.63,0,0,0,6.13,4.09h.41a6.66,6.66,0,0,0,6.62-6.06v4.62H33.83V56.07a6.64,6.64,0,0,0,6.61,6.06h.41A6.65,6.65,0,0,0,47,58L48.69,54a2,2,0,0,0-1.09-2.65,2.09,2.09,0,0,0-.78-.16A2,2,0,0,0,45,52.4l-1.7,4.08a2.59,2.59,0,0,1-2.4,1.61h-.38a2.61,2.61,0,0,1-2.6-2.61V53.75a10.39,10.39,0,0,0-4.62-8.64"/><path class="cls-1" d="M33.25,45.11a8.33,8.33,0,0,0-2.36-1.2"/><path class="cls-1" d="M33.83,60.69H21.12l.05,22.7"/><path class="cls-1" d="M33.84,83.51V77.17"/><path class="cls-1" d="M22.28,86.11H32.67"/><line class="cls-1" x1="27.47" y1="69.35" x2="27.47" y2="86.11"/><path class="cls-1" d="M27.47,86.11A3.47,3.47,0,0,0,24,82.64h-.57a3.45,3.45,0,0,0-3,1.79,1.15,1.15,0,0,0,1,1.68Z"/><path class="cls-1" d="M33.52,86.11a1.15,1.15,0,0,0,1-1.68,3.46,3.46,0,0,0-3-1.79h-.58a3.47,3.47,0,0,0-3.47,3.47Z"/><path class="cls-1" d="M21.16,50.16c-1.1,2.12-1.6,3-.63,4.33a5.66,5.66,0,0,1,.59,1.58v4.62H33.83V56.07a5.34,5.34,0,0,1,.58-1.58c1.11-1.55.29-2.46-1.16-5.36v-4"/><path class="cls-1" d="M30.88,43.93c-.32,1.65-1.45,4.78-3.41,5.78a4.63,4.63,0,0,1-1.55-1.39"/><line class="cls-1" x1="14.09" y1="58.09" x2="16.98" y2="65.89"/><path class="cls-1" d="M18.81,69.93a1.16,1.16,0,0,1-1.16,1.15H10.72a1.16,1.16,0,0,1-1.16-1.15V66.46a.59.59,0,0,1,.58-.57h8.09a.58.58,0,0,1,.58.57Z"/><path class="cls-1" d="M18.81,66.46a2.32,2.32,0,0,1-2.31,2.32H11.87a2.32,2.32,0,0,1-2.31-2.32h0a.59.59,0,0,1,.58-.57h8.09a.58.58,0,0,1,.58.57Z"/><path class="cls-1" d="M43.11,77A1.15,1.15,0,0,1,42,78.22H39.75A1.16,1.16,0,0,1,38.59,77"/><path class="cls-1" d="M39.45,64.66a1.14,1.14,0,0,1,.78-.31h1.25a1.16,1.16,0,0,1,.78.31"/><line class="cls-1" x1="40.85" y1="64.35" x2="40.85" y2="56.85"/><path class="cls-1" d="M36.7,78l-2.17-.41a1.16,1.16,0,0,1-.92-1.4l2.62-11.26a1.15,1.15,0,0,1,1.34-.87l1.23.22a1.16,1.16,0,0,1,.93,1.3L38.06,77A1.16,1.16,0,0,1,36.7,78Z"/><line class="cls-1" x1="38.19" y1="64.17" x2="39.58" y2="56.78"/><path class="cls-1" d="M43.65,77A1.16,1.16,0,0,0,45,78l2.17-.41a1.16,1.16,0,0,0,.91-1.4L45.47,64.93a1.13,1.13,0,0,0-1.33-.87l-1.23.22a1.16,1.16,0,0,0-.93,1.3"/><line class="cls-1" x1="43.52" y1="64.17" x2="42.13" y2="56.78"/><path class="cls-1" d="M38.59,77l.22-5.3"/><path class="cls-1" d="M42,65.58,43.65,77"/><path class="cls-1" d="M42.9,71.9,43.11,77"/><path class="cls-1" d="M33.83,75.28V60.69"/></svg>