<svg id="Layer_1" data-name="Layer 1" xmlns="http://www.w3.org/2000/svg" viewBox="0 0 100 100"><defs><style>.cls-1{fill:none;stroke:#4550e5;stroke-linecap:round;stroke-linejoin:round;}.cls-2{fill:#4550e5;}</style></defs><title>success-goal-businessman</title><polyline class="cls-1" points="86.72 71.54 79.16 71.54 60.26 71.54"/><line class="cls-1" x1="22.1" y1="71.54" x2="22.08" y2="71.54"/><line class="cls-1" x1="35.96" y1="68.79" x2="35.96" y2="66.27"/><line class="cls-1" x1="22.1" y1="68.79" x2="22.1" y2="66.27"/><path class="cls-1" d="M36,73.51V84.4h0l-.2-.1-.21-.07-.34-.11a2,2,0,0,0-.35-.09L34.52,84l-.36,0q-.3,0-.6,0H30.8L30.34,73.2a1.28,1.28,0,0,0-.07-.36"/><path class="cls-1" d="M28.77,72l.26,0,.25,0"/><path class="cls-1" d="M22.1,75.09h3.78a1.26,1.26,0,0,1,1.26,1.26v7.56a.9.9,0,0,1-.08.4"/><path class="cls-1" d="M27.06,84.33a1.27,1.27,0,0,1-1.18.84H24V83.91"/><line class="cls-1" x1="22.1" y1="73.51" x2="22.1" y2="72.24"/><path class="cls-1" d="M27.06,84.33l.16.06.49-11.19a.71.71,0,0,1,.08-.36"/><path class="cls-1" d="M37.72,87.06c0-2.26-2.2-3.15-4.15-3.15H30.79V86a1,1,0,0,0,1.05,1Z"/><path class="cls-1" d="M24,83.91v1.26h1.89a1.27,1.27,0,0,0,1.18-.84"/><path class="cls-1" d="M27.06,84.31l.16.08A2.84,2.84,0,0,1,29,87.06H23.15a1,1,0,0,1-1-1v-.84"/><path class="cls-1" d="M35.34,37.08V39.6a6.29,6.29,0,0,1-12.29,1.89c-2,0-2.12-3.15-.31-3.15v-.55c1-.38,2.83-1.36,2.83-3.25C28.11,37,32.35,36.83,35.24,36A5.13,5.13,0,0,1,35.34,37.08Z"/><path class="cls-2" d="M27.93,37.71a.79.79,0,1,0,0,1.57.79.79,0,1,0,0-1.57Z"/><path class="cls-2" d="M32.66,37.71a.79.79,0,1,0,.78.79.79.79,0,0,0-.78-.79Z"/><path class="cls-1" d="M28.72,42.06a2.37,2.37,0,0,0,2.78.26,3.09,3.09,0,0,0,.37-.26"/><path class="cls-1" d="M36,35.8l-.73.23c-2.89.8-7.13,1-9.67-1.49,0,1.89-1.84,2.87-2.83,3.25a4.53,4.53,0,0,1-.63.22V35.82A6.93,6.93,0,0,1,36,35.8Z"/><path class="cls-1" d="M25.57,34.54c-.32-.31-.37-.26-.63-.66"/><path class="cls-1" d="M22.1,75.09H14.54a1.25,1.25,0,0,0-1.26,1.26v7.56a1.25,1.25,0,0,0,1.26,1.26H24V83.91"/><line class="cls-1" x1="27.06" y1="84.33" x2="27.06" y2="84.31"/><line class="cls-1" x1="16.42" y1="75.09" x2="16.42" y2="85.12"/><line class="cls-1" x1="23.99" y1="83.91" x2="23.99" y2="75.14"/><path class="cls-1" d="M22.1,68.79v2.52a.93.93,0,0,1,0,.23,1.78,1.78,0,0,1-.17.58,1.9,1.9,0,0,1-1.7,1.08,1.85,1.85,0,0,1-1.7-1.08,1.4,1.4,0,0,1-.17-.58.93.93,0,0,1,0-.23V68.79Z"/><path class="cls-1" d="M17.69,75V73.48a1.52,1.52,0,0,1,.82-1.36"/><line class="cls-1" x1="22.73" y1="75.02" x2="22.73" y2="73.51"/><path class="cls-1" d="M22.1,72.24l-.19-.12"/><path class="cls-1" d="M22.1,75.09H14.54a1.25,1.25,0,0,0-1.26,1.26v7.56a1.25,1.25,0,0,0,1.26,1.26H24V83.91"/><line class="cls-1" x1="27.06" y1="84.33" x2="27.06" y2="84.31"/><path class="cls-1" d="M38.48,68.79v2.52a.93.93,0,0,1,0,.23A1.85,1.85,0,0,1,36,73.08V68.79Z"/><path class="cls-1" d="M28.77,72c.09-.11.18-.22.26-.34a2.7,2.7,0,0,0,.25.34"/><path class="cls-1" d="M27.79,72.83h0a4.27,4.27,0,0,1-2.3.67H22.73v0a1.54,1.54,0,0,0-.63-1.24V68.79H18.74a1.06,1.06,0,0,1-1-1.05v-9a10.57,10.57,0,0,1,3.13-7.55L24,54.3v3.15l5,6.93,5-6.93V54.3l2.5-2.5a10.62,10.62,0,0,1,2.54,6.91v9a1.06,1.06,0,0,1-1,1.05H36v4.72H32.55a4.2,4.2,0,0,1-2.28-.67h0"/><line class="cls-1" x1="22.1" y1="73.51" x2="22.1" y2="72.24"/><path class="cls-1" d="M28.77,72a3.84,3.84,0,0,1-1,.87"/><path class="cls-1" d="M30.27,72.83a4.1,4.1,0,0,1-1-.87"/><path class="cls-1" d="M36.57,51.8a11.06,11.06,0,0,0-3.17-2.56,7.94,7.94,0,0,0-.72-.34,1.94,1.94,0,0,0-.3-.13,2.65,2.65,0,0,0-.3-.11l-.65-.22-.23-.07-.44-.1c-.21-.05-.42-.1-.64-.13l-.33,0c-.25,0-.5-.06-.75-.07h0l-.63,0c-.27,0-.52,0-.77,0l-.76.08a10,10,0,0,0-2.37.62,10.56,10.56,0,0,0-1.51.74c-.2.11-.39.23-.58.35s-.28.2-.42.31a1.66,1.66,0,0,0-.3.24,3.5,3.5,0,0,0-.3.24c-.2.17-.39.35-.56.52v0"/><line class="cls-1" x1="35.95" y1="68.79" x2="35.95" y2="58.08"/><line class="cls-1" x1="22.09" y1="68.79" x2="22.09" y2="58.08"/><path class="cls-1" d="M29,64.38,33.4,49.24a10.68,10.68,0,0,0-8.9-.5Z"/><path class="cls-1" d="M36.57,51.8l-2.5,2.5v3.15l-5,6.93,1.87-6.47,1.5-5.19,1-3.48A11.06,11.06,0,0,1,36.57,51.8Z"/><polygon class="cls-1" points="29.02 48.02 27.15 57.91 29.02 64.38 30.9 57.91 29.02 48.02"/><line class="cls-1" x1="29.02" y1="71.31" x2="29.02" y2="64.38"/><polyline class="cls-1" points="32.4 52.72 29.03 48.02 25.65 52.72"/><path class="cls-1" d="M24,57.45V54.3l-3.17-3.14h0l0,0c.17-.17.36-.35.56-.52a3.5,3.5,0,0,1,.3-.24,1.66,1.66,0,0,1,.3-.24c.14-.11.27-.21.42-.31s.38-.24.58-.35a10.56,10.56,0,0,1,1.51-.74h0l1.16,4,1.49,5.17h0L29,64.38Z"/><path class="cls-1" d="M53.21,57.41h0l7,14.12h18.9L70,47.86h0L65.92,37.23a2.5,2.5,0,0,0-2.35-1.6h-.31a2.54,2.54,0,0,0-2.36,1.61L56.83,47.91l-2.35,6.18"/><line class="cls-1" x1="63.41" y1="35.62" x2="63.41" y2="25.54"/><path class="cls-1" d="M63.41,14a1,1,0,0,1,1-1.05H79.64a.62.62,0,0,1,.57.38.61.61,0,0,1-.1.67L76,18.54a1,1,0,0,0,0,1.4l4.09,4.55a.63.63,0,0,1,.1.68.61.61,0,0,1-.57.37H63.41Z"/><path class="cls-1" d="M41.73,67l4.8-9.61,2.37,2.83a1.26,1.26,0,0,0,1.93,0l2.38-2.82,7,14.12H41.09"/><path class="cls-1" d="M53.21,57.41h0l-2.38,2.82a1.26,1.26,0,0,1-1.93,0l-2.37-2.83L48.75,53A1.25,1.25,0,0,1,51,53Z"/><path class="cls-1" d="M53.21,57.41h0l-2.38,2.82a1.26,1.26,0,0,1-1.93,0l-2.37-2.83L48.75,53A1.25,1.25,0,0,1,51,53Z"/><path class="cls-1" d="M58.81,51.24a1.22,1.22,0,0,0,.92.6,1.27,1.27,0,0,0,1.05-.35l1.74-1.75a1.26,1.26,0,0,1,1.78,0l1.75,1.74a1.23,1.23,0,0,0,1,.36,1.27,1.27,0,0,0,.93-.6l2-3.39L65.93,37.23a2.53,2.53,0,0,0-2.35-1.61h-.32a2.54,2.54,0,0,0-2.36,1.62L56.83,47.91Z"/></svg>