<svg id="Layer_1" data-name="Layer 1" xmlns="http://www.w3.org/2000/svg" viewBox="0 0 100 100"><defs><style>.cls-1{fill:none;stroke:#4550e5;stroke-linecap:round;stroke-linejoin:round;}</style></defs><title>surgeon</title><polyline class="cls-1" points="43.54 73.21 39.12 73.21 27.75 73.21 25.23 73.21 15.75 73.21 10.72 73.21"/><path class="cls-1" d="M79.56,78.7,79,80.43a1.84,1.84,0,0,0,0,.25,6.71,6.71,0,0,1-1.26.11,7.61,7.61,0,0,1-7.62-7.58H43.54V65.08a16.41,16.41,0,0,1,12.64-16v2.33a4.29,4.29,0,0,0,7.58,0V49.1a16.43,16.43,0,0,1,12.63,16v8.13a1.3,1.3,0,0,0,1.3,1.26,1.21,1.21,0,0,0,.67-.19l.77-.47a2.47,2.47,0,0,0-.1.29l-.41,1.46A3,3,0,0,0,79.56,78.7Z"/><path class="cls-1" d="M48.71,34.68a1.87,1.87,0,0,0-1.38,1.8v.64A1.9,1.9,0,0,0,49.23,39l.18,0a10.66,10.66,0,0,0,3.47,6.17"/><path class="cls-1" d="M53,45.3a4.18,4.18,0,0,0,.58.46,6.12,6.12,0,0,0,.79.54c.23.15.48.28.73.41"/><path class="cls-1" d="M56,47.11l-.65-.29"/><path class="cls-1" d="M64.58,46.82l-.65.29"/><path class="cls-1" d="M64.8,46.71c.25-.13.51-.26.74-.41a6.78,6.78,0,0,0,.78-.54,4.18,4.18,0,0,0,.58-.46"/><path class="cls-1" d="M71.24,34.68a1.86,1.86,0,0,1,1.36,1.8v.64A1.89,1.89,0,0,1,70.71,39l-.18,0a10.66,10.66,0,0,1-3.47,6.17"/><line class="cls-1" x1="70.08" y1="73.21" x2="70.08" y2="63.42"/><line class="cls-1" x1="49.86" y1="73.21" x2="49.86" y2="63.42"/><path class="cls-1" d="M63.76,47.17v4.27a4.29,4.29,0,0,1-7.58,0V47.17h0c.15.06.3.12.44.16.3.09.6.18.92.25s.45.11.69.14a8.85,8.85,0,0,0,.9.1q.41,0,.81,0c.27,0,.55,0,.81,0a8.85,8.85,0,0,0,.9-.1c.24,0,.47-.09.7-.14s.62-.16.91-.25a3.89,3.89,0,0,0,.44-.16Z"/><path class="cls-1" d="M65.65,35.64a1.71,1.71,0,0,0-3.15,0"/><path class="cls-1" d="M57.44,35.64a1.82,1.82,0,0,0-1.58-1,1.84,1.84,0,0,0-1.58,1"/><path class="cls-1" d="M51.12,31.62v5.47a3.23,3.23,0,0,0-2.41-2.41,4.4,4.4,0,0,0-.74-.12V32.14l1.26-.23,1-.16.75-.12Z"/><path class="cls-1" d="M51.12,31.61H51Z"/><path class="cls-1" d="M72,32.14v2.42a4.12,4.12,0,0,0-.73.12,3.24,3.24,0,0,0-2.43,2.41V31.62h.11l.63.09.55.09.55.09h.06l.94.17Z"/><path class="cls-1" d="M68.81,31.61l.11,0h-.11Z"/><path class="cls-1" d="M72,32.14l-.32-.06-.94-.17h-.06l-.55-.09-.55-.09-.63-.09h-.11A61.36,61.36,0,0,0,60,30.87a61.51,61.51,0,0,0-8.85.75H51l-.75.12-1,.16L48,32.14c0-1.32.06-4,.17-5.34a10,10,0,0,1,9.36-9.23,45.23,45.23,0,0,1,4.94,0,10,10,0,0,1,9.37,9.23C71.9,28.1,72,30.82,72,32.14Z"/><path class="cls-1" d="M67.06,45.16v0l-.16.12a6.15,6.15,0,0,1-.58.46q-.37.29-.78.54c-.24.15-.49.28-.74.41l-.22.11-.65.29-.17.06h0a3.89,3.89,0,0,1-.44.16c-.29.09-.6.18-.91.25s-.46.11-.7.14a8.85,8.85,0,0,1-.9.1c-.26,0-.54,0-.81,0s-.54,0-.81,0a8.85,8.85,0,0,1-.9-.1c-.24,0-.46-.09-.69-.14s-.62-.16-.92-.25c-.14,0-.29-.1-.44-.16h0L56,47.11l-.65-.29-.22-.11c-.25-.13-.49-.26-.73-.41a9.13,9.13,0,0,1-.79-.54A6.15,6.15,0,0,1,53,45.3l-.16-.12v0A13.67,13.67,0,0,0,52.39,39,13.12,13.12,0,0,0,60,37.83,13.12,13.12,0,0,0,67.55,39,13.82,13.82,0,0,0,67.06,45.16Z"/><line class="cls-1" x1="51.12" y1="37.09" x2="52.39" y2="39.01"/><line class="cls-1" x1="68.81" y1="37.09" x2="67.55" y2="39.01"/><polyline class="cls-1" points="53.02 42.25 59.97 40.99 66.92 42.25"/><polyline class="cls-1" points="53.02 44.15 59.97 45.41 66.92 44.15"/><path class="cls-1" d="M39.12,73.21H15.75V61.66a1,1,0,0,1,1.05-1H38.07a1,1,0,0,1,1,1Z"/><path class="cls-1" d="M37.86,60.61H17V58.46a1,1,0,0,1,1-1.05H36.81a1,1,0,0,1,1,1.05Z"/><rect class="cls-1" x="23.96" y="54.25" width="6.95" height="3.16"/><path class="cls-1" d="M40.38,52.15a2.1,2.1,0,0,1-2.1,2.1H16.58a2.1,2.1,0,0,1-2.1-2.1V38a2.1,2.1,0,0,1,2.1-2.1h21.7a2.1,2.1,0,0,1,2.1,2.1Z"/><path class="cls-1" d="M21.57,73.14H19V67.45a4.43,4.43,0,0,1,3.05-4.2,1.05,1.05,0,0,1,.94.15,1,1,0,0,1,.44.85v.45a1,1,0,0,1-.68,1,1.92,1.92,0,0,0-1.22,1.77Z"/><path class="cls-1" d="M27.75,73.21H25.22V67.52a4.43,4.43,0,0,1,3.05-4.2,1,1,0,0,1,1.37,1v.45a1,1,0,0,1-.67,1,1.92,1.92,0,0,0-1.22,1.77Z"/><path class="cls-1" d="M35.33,64.37a1.27,1.27,0,1,1-1.26-1.27A1.27,1.27,0,0,1,35.33,64.37Z"/><path class="cls-1" d="M35.33,68.79a1.27,1.27,0,1,1-1.26-1.27A1.26,1.26,0,0,1,35.33,68.79Z"/><polyline class="cls-1" points="17.64 46.04 20.8 46.04 22.7 41.62 23.96 48.57 25.85 43.51 27.12 46.04 29.64 46.04 30.91 47.94 32.17 42.88 33.44 46.04 37.23 46.04"/><path class="cls-1" d="M37.23,50a1,1,0,0,1-1,1.05H18.69A1,1,0,0,1,17.64,50v-9.9a1,1,0,0,1,1.05-1H36.18a1,1,0,0,1,1,1Z"/><line class="cls-1" x1="26.52" y1="64.4" x2="28.3" y2="66.18"/><line class="cls-1" x1="25.22" y1="67.52" x2="27.75" y2="68.16"/><line class="cls-1" x1="25.22" y1="70.68" x2="27.75" y2="70.68"/><line class="cls-1" x1="20.2" y1="64.4" x2="21.99" y2="66.18"/><line class="cls-1" x1="18.9" y1="67.52" x2="21.43" y2="68.16"/><line class="cls-1" x1="18.9" y1="70.68" x2="21.43" y2="70.68"/><path class="cls-1" d="M88,56.56a.71.71,0,0,0-.69-.26.73.73,0,0,0-.55.48l-3.13,9.54,1.93,2.23,1.07-3.24L87,65a6,6,0,0,0,1-8.47Z"/><path class="cls-1" d="M82.53,79.83,82,81.34a1.63,1.63,0,0,1-1.76,1.14A1.56,1.56,0,0,1,79,80.68a1.84,1.84,0,0,1,0-.25l.56-1.73a3.21,3.21,0,0,0,1.14.61l1,.29Z"/><path class="cls-1" d="M85.85,69.65l-.79,2.46-.17.5L82.78,72a3,3,0,0,0-1-.1l.85-2.58,1-3,1.92,2.23.12.13A1,1,0,0,1,85.85,69.65Z"/><line class="cls-1" x1="82.64" y1="69.33" x2="85.05" y2="72.11"/><path class="cls-1" d="M86.51,74a9.93,9.93,0,0,1-.14,1.73,3.18,3.18,0,0,1-.1.52c0,.16-.08.34-.12.52a1.09,1.09,0,0,1-.05.17c-.07.23-.14.45-.22.68s-.17.45-.28.66-.2.43-.31.64-.23.42-.36.62a1.26,1.26,0,0,1-1.42.55l-1-.28-.78-.23-1-.29a3.21,3.21,0,0,1-1.14-.61,3,3,0,0,1-.94-3.14L79,74.1a2.47,2.47,0,0,1,.1-.29h0a2.43,2.43,0,0,1,.31-.6A3.1,3.1,0,0,1,82.78,72l2.11.6.69.2a1.17,1.17,0,0,1,.61.4A1.3,1.3,0,0,1,86.51,74Z"/></svg>