<svg id="Layer_1" data-name="Layer 1" xmlns="http://www.w3.org/2000/svg" viewBox="0 0 100 100"><defs><style>.cls-1{fill:none;stroke:#4550e5;stroke-linecap:round;stroke-linejoin:round;}.cls-2{fill:#4550e5;}</style></defs><title>teacher-maths-female</title><polyline class="cls-1" points="36.21 62.93 46.68 62.93 72.93 62.93 79.76 62.93"/><line class="cls-1" x1="23.04" y1="62.93" x2="22.5" y2="62.93"/><polyline class="cls-1" points="66.65 46.66 67.66 44.37 65.35 43.35 65.06 44.02 63.9 46.66"/><polyline class="cls-1" points="72.93 46.66 72.93 43.51 70.92 43.51 70.31 43.51 67.68 43.51 67.68 46.66"/><line class="cls-1" x1="61.04" y1="46.66" x2="55.03" y2="46.66"/><path class="cls-1" d="M75.56,46.66h3.15V26.18a2.11,2.11,0,0,0-2.1-2.1H39.86a2.14,2.14,0,0,0-2,1.3"/><line class="cls-1" x1="47.88" y1="46.66" x2="40.28" y2="46.66"/><line class="cls-1" x1="37.76" y1="40.77" x2="37.76" y2="37.68"/><line class="cls-1" x1="42.47" y1="49.28" x2="40.38" y2="49.28"/><line class="cls-1" x1="47.88" y1="46.66" x2="40.28" y2="46.66"/><line class="cls-1" x1="63.9" y1="46.66" x2="62.75" y2="49.28"/><line class="cls-1" x1="59.88" y1="49.28" x2="52.6" y2="49.28"/><line class="cls-1" x1="61.04" y1="46.66" x2="55.03" y2="46.66"/><line class="cls-1" x1="72.93" y1="49.28" x2="72.93" y2="46.66"/><path class="cls-1" d="M75.56,49.28h4.32a1.31,1.31,0,0,0,0-2.62H75.56"/><path class="cls-2" d="M50,31H48.41a.75.75,0,0,0-.77.78.74.74,0,0,0,.77.79h.67v5.71a.86.86,0,1,0,1.71,0V31.78A.73.73,0,0,0,50,31Z"/><path class="cls-2" d="M55,33.18a.64.64,0,0,0-.68.68v1.65H52.64a.64.64,0,0,0-.68.69.64.64,0,0,0,.68.68h1.65v1.65a.64.64,0,0,0,.68.68.64.64,0,0,0,.69-.68V36.88h1.65A.64.64,0,0,0,58,36.2a.64.64,0,0,0-.68-.69H55.66V33.86a.65.65,0,0,0-.69-.68Z"/><path class="cls-2" d="M61.06,31H59.44a.75.75,0,0,0-.77.78.74.74,0,0,0,.77.79h.67v5.71a.86.86,0,1,0,1.71,0V31.78a.73.73,0,0,0-.76-.8Z"/><path class="cls-2" d="M68.34,34.24H63.67a.64.64,0,0,0-.68.68.64.64,0,0,0,.68.69h4.67a.64.64,0,0,0,.68-.69.64.64,0,0,0-.68-.68Zm0,2.55H63.67a.68.68,0,0,0,0,1.36h4.67a.68.68,0,1,0,0-1.36Z"/><line class="cls-1" x1="67.68" y1="51.91" x2="50.18" y2="51.91"/><path class="cls-1" d="M47,51.91H46.6"/><path class="cls-1" d="M72.93,51.91A1,1,0,0,1,74,53V54a1.06,1.06,0,0,1-1,1H49.35"/><polyline class="cls-1" points="49.35 55.07 72.93 55.07 72.93 62.93 46.68 62.93 46.68 58.24"/><rect class="cls-1" x="70.31" y="43.51" width="2.63" height="8.4"/><polyline class="cls-1" points="67.68 46.66 67.68 43.51 70.31 43.51 70.31 51.91 67.68 51.91 67.68 46.66"/><polygon class="cls-1" points="67.66 44.37 66.65 46.66 65.51 49.28 64.36 51.88 62.05 50.87 62.75 49.28 63.9 46.66 65.35 43.35 67.66 44.37"/><polygon class="cls-1" points="45.73 55.3 45.73 55.31 45.72 55.31 42.74 52.96 45.73 55.3"/><path class="cls-1" d="M28.31,74v4a1.27,1.27,0,0,1-1.26,1.26H24.24A1.26,1.26,0,0,1,23,77.63L24.11,74Z"/><path class="cls-1" d="M22.53,60.83v1.84a1.84,1.84,0,1,1-3.67,0V60.83Z"/><path class="cls-1" d="M28.31,74c0,1.74-.9,2.44-2.1,2.44s-2.1-.7-2.1-2.44Z"/><path class="cls-1" d="M32.37,79.21h-2.8A1.26,1.26,0,0,1,28.31,78V74h4.2l1.09,3.67A1.27,1.27,0,0,1,32.37,79.21Z"/><path class="cls-1" d="M32.51,74c0,1.74-.91,2.44-2.1,2.44s-2.1-.7-2.1-2.44Z"/><path class="cls-1" d="M21.24,47.71c0,2.15,1.29,2.75,1.29,4.7v5.27"/><path class="cls-1" d="M34.08,52.41c0-1.95,1.29-2.55,1.29-4.7"/><path class="cls-1" d="M47.22,52.77a1.89,1.89,0,0,1-.41,1.17l-.74.93-.34.43h0l-3-2.35,1.09-1.37a1.88,1.88,0,0,1,2.66-.31,1.75,1.75,0,0,1,.36.36l.16.27A2,2,0,0,1,47.22,52.77Z"/><polyline class="cls-1" points="55.6 42.16 51.45 46.66 49.03 49.28 46.85 51.64 46.61 51.92 46.6 51.92 45.52 53.09"/><polygon class="cls-1" points="34.08 57.68 32.51 73.96 24.11 73.96 22.53 57.68 34.08 57.68"/><line class="cls-1" x1="28.31" y1="73.96" x2="28.31" y2="61.94"/><path class="cls-1" d="M34.14,32.33a7.87,7.87,0,0,1-3.58,3.93l-.14.05a6.2,6.2,0,0,1-4.22,0l-.15-.05a8,8,0,0,1-3.58-3.93c-1-2,2.33-7.38,5.84-7.57C31.81,25,35.16,30.34,34.14,32.33Z"/><path class="cls-1" d="M31.15,29.33a.9.9,0,0,0-1.27,0"/><path class="cls-1" d="M25.47,29.33a.89.89,0,0,1,1.26,0"/><path class="cls-1" d="M29.88,33a3,3,0,0,1-1.57.52A3,3,0,0,1,26.73,33"/><path class="cls-1" d="M34.14,32.33a7.87,7.87,0,0,1-3.58,3.93l-.14.05a5.28,5.28,0,0,1-4.22,0l-.15-.05a8,8,0,0,1-3.58-3.93c-1-2,2.33-7.38,5.84-7.57C31.81,25,35.16,30.34,34.14,32.33Z"/><path class="cls-1" d="M25.88,41.82a5.58,5.58,0,0,0,2.43.63,5.58,5.58,0,0,0,2.43-.63"/><path class="cls-1" d="M36.92,30c-1.33-4-3.81-9.48-8.61-9.62C23.51,20.48,21,26,19.7,30a6.31,6.31,0,0,0,3.36,7.7L26,39a8.69,8.69,0,0,0-2.84,1.3.47.47,0,0,1-.12.09l-.22.17c.7,2.1,1.12,5,5.5,5,4.38-.09,4.8-2.94,5.5-5l-.22-.17a.51.51,0,0,1-.13-.09A8.64,8.64,0,0,0,30.63,39l2.93-1.35A6.32,6.32,0,0,0,36.92,30Zm-6.36,6.3-.14.05a5.28,5.28,0,0,1-4.22,0l-.15-.05a8,8,0,0,1-3.58-3.93c-1-2,2.33-7.38,5.84-7.57,3.5.19,6.85,5.58,5.83,7.57A7.87,7.87,0,0,1,30.56,36.26Z"/><path class="cls-1" d="M45.72,55.31l-.82,1a6.18,6.18,0,0,1-4.76,2.24,6.09,6.09,0,0,1-6.06-6.11v5.27H22.53v3.15H18.86V48.23a9.36,9.36,0,0,1,3.95-7.66c.7,2.1,1.12,5,5.5,5,4.38-.09,4.8-2.94,5.5-5a9.41,9.41,0,0,1,3.82,6.09,9.07,9.07,0,0,1,.13,1.57v4.09A2.39,2.39,0,0,0,42,53.86l.75-.9Z"/><path class="cls-1" d="M34.14,32.33a7.87,7.87,0,0,1-3.58,3.93l-.14.05a5.28,5.28,0,0,1-4.22,0l-.15-.05a8,8,0,0,1-3.58-3.93c-1-2,2.33-7.38,5.84-7.57C31.81,25,35.16,30.34,34.14,32.33Z"/></svg>