<svg id="Layer_1" data-name="Layer 1" xmlns="http://www.w3.org/2000/svg" viewBox="0 0 100 100"><defs><style>.cls-1{fill:none;stroke:#4550e5;stroke-linecap:round;stroke-linejoin:round;}</style></defs><title>user-female-add</title><path class="cls-1" d="M46,50.45a14.16,14.16,0,0,1,2.34.74A14.71,14.71,0,0,1,54.55,56"/><path class="cls-1" d="M48.5,65.09a1,1,0,0,1,1-1H56a1,1,0,0,0,1-1v-2"/><path class="cls-1" d="M39,50.45A14.76,14.76,0,0,0,27.5,64.84v3.27H46"/><line class="cls-1" x1="33" y1="68.09" x2="33" y2="63.59"/><path class="cls-1" d="M36.66,51.19a5.86,5.86,0,0,0,11.68,0"/><path class="cls-1" d="M39,48v2.91a3.5,3.5,0,1,0,7,0V48"/><path class="cls-1" d="M33.5,37.61a1.8,1.8,0,0,0-1-1.57v.07a2,2,0,0,0,0,4l.12,0a10,10,0,0,0,19.76,0l.12,0a2,2,0,0,0,0-4v-.06a1.78,1.78,0,0,0-1,1.56"/><path class="cls-1" d="M39.49,42.4a4.36,4.36,0,0,0,6,0"/><path class="cls-1" d="M40,36.61a1.63,1.63,0,0,0-3,0"/><path class="cls-1" d="M48,36.61a1.63,1.63,0,0,0-3,0"/><path class="cls-1" d="M53.7,32.47a1.24,1.24,0,0,0-.5,0l-.06-.07a1.8,1.8,0,0,0,.16-3.44,1.74,1.74,0,0,0-1.17,0L52,28.62a2.4,2.4,0,0,0-2.81-3.88l-.13-.13-.07,0A2.6,2.6,0,0,0,49.1,24a2.39,2.39,0,0,0-4.23-1.54,2.4,2.4,0,0,0-2.37-2.06h0a2.4,2.4,0,0,0-2.37,2.06A2.39,2.39,0,0,0,35.9,24a2.6,2.6,0,0,0,.07.56l-.07,0-.13.13A2.4,2.4,0,0,0,33,28.62l-.09.29a1.74,1.74,0,0,0-1.17,0,1.8,1.8,0,0,0,.16,3.44l-.06.07a1.24,1.24,0,0,0-.5,0,1.21,1.21,0,0,0-.12,2.22C31.57,36,33.5,36,33.5,37.61c0-8.43,3.93-10,6.6-8.76a5.9,5.9,0,0,0,2.4.41h0a5.9,5.9,0,0,0,2.4-.41c2.67-1.22,6.6.33,6.6,8.76,0-1.62,1.93-1.6,2.32-2.92a1.21,1.21,0,0,0-.12-2.22Z"/><path class="cls-1" d="M48.5,68.11v2a1,1,0,0,0,1,1H56a1,1,0,0,1,1,1v6.5a1,1,0,0,0,1,1h5a1,1,0,0,0,1-1v-6.5a1,1,0,0,1,1-1h6.5a1,1,0,0,0,1-1v-5a1,1,0,0,0-1-1H65a1,1,0,0,1-1-1v-6.5a1,1,0,0,0-1-1H58a1,1,0,0,0-1,1v6.5a1,1,0,0,1-1,1H49.5a1,1,0,0,0-1,1v3"/></svg>