<svg id="Layer_1" data-name="Layer 1" xmlns="http://www.w3.org/2000/svg" viewBox="0 0 100 100"><defs><style>.cls-1{fill:none;stroke:#4550e5;stroke-linecap:round;stroke-linejoin:round;}</style></defs><title>user-male-add</title><path class="cls-1" d="M39,50.15l-.08,0h0A14.76,14.76,0,0,0,27.5,64.54v3.25H45l1-.69"/><path class="cls-1" d="M46,50.15l.07,0h0a13.9,13.9,0,0,1,2.64.89,14.65,14.65,0,0,1,5.82,4.65"/><line class="cls-1" x1="33" y1="67.79" x2="33" y2="63.29"/><path class="cls-1" d="M38.92,50.16v0L37.8,55l4.7,12.8L47.2,55l-1.11-4.8s0,0,0,0"/><polyline class="cls-1" points="39 48.15 39 52.59 42.5 54.92 46 52.59 46 48.15"/><polyline class="cls-1" points="44.42 62.56 42.5 55.29 40.58 62.56"/><polyline class="cls-1" points="46.17 57.73 42.5 55.29 38.83 57.73"/><path class="cls-1" d="M31,37.11a.11.11,0,0,1-.09,0,2,2,0,0,0-.37,1.15,2,2,0,0,0,2,2l.12,0a10,10,0,0,0,19.76,0l.12,0a2,2,0,0,0,2-2,2,2,0,0,0-.37-1.15.11.11,0,0,1-.09,0"/><path class="cls-1" d="M39.49,42.58a4.36,4.36,0,0,0,6,0"/><path class="cls-1" d="M40,36.79a1.63,1.63,0,0,0-3,0"/><path class="cls-1" d="M48,36.79a1.63,1.63,0,0,0-3,0"/><path class="cls-1" d="M49.69,22.62c-1.91-2.54-12.47-2.54-14.38,0C27.4,24.38,30.15,37.92,31,37.11a1.91,1.91,0,0,1,2.21-.32c1.33-2,1.83-2,1.83-5,1.1.66,13.15.38,13.78-4.32-.22,3.71,1.29,6.45,3,9.32a1.91,1.91,0,0,1,2.21.32C54.85,37.92,57.6,24.38,49.69,22.62Z"/><path class="cls-1" d="M40,67.79,36.13,65.1a1,1,0,0,1-.32-1.29l1.39-2.62L33.52,58a1,1,0,0,1-.3-1.09c.94-2.69,1.6-6.27,5.78-7.15L37.8,55l4.7,12.8"/><path class="cls-1" d="M48,61.62l-.23-.43L51.48,58a1,1,0,0,0,.3-1.08c-.68-2-1.22-4.38-3.05-5.89A6.13,6.13,0,0,0,46,49.79l.09.38v0L47.2,55l-2.78,7.57L42.5,67.79"/><line class="cls-1" x1="49.2" y1="63.85" x2="49.2" y2="63.84"/><path class="cls-1" d="M72.5,64.79a1,1,0,0,0-1-1H65a1,1,0,0,1-1-1v-6.5a1,1,0,0,0-1-1H58a1,1,0,0,0-1,1v6.5a1,1,0,0,1-1,1H49.5a1,1,0,0,0-1,1v5a1,1,0,0,0,1,1H56a1,1,0,0,1,1,1v6.5a1,1,0,0,0,1,1h5a1,1,0,0,0,1-1v-6.5a1,1,0,0,1,1-1h6.5a1,1,0,0,0,1-1Z"/></svg>